<?xml version="1.0" encoding="UTF-8" standalone="no"?>
<!-- Created with Inkscape (http://www.inkscape.org/) -->

<svg
   width="240mm"
   height="120mm"
   viewBox="0 0 240 120"
   version="1.1"
   id="svg8"
   inkscape:version="1.1.1 (3bf5ae0d25, 2021-09-20)"
   sodipodi:docname="1a.svg"
   xmlns:inkscape="http://www.inkscape.org/namespaces/inkscape"
   xmlns:sodipodi="http://sodipodi.sourceforge.net/DTD/sodipodi-0.dtd"
   xmlns="http://www.w3.org/2000/svg"
   xmlns:svg="http://www.w3.org/2000/svg"
   xmlns:rdf="http://www.w3.org/1999/02/22-rdf-syntax-ns#"
   xmlns:cc="http://creativecommons.org/ns#"
   xmlns:dc="http://purl.org/dc/elements/1.1/">
  <defs
     id="defs2">
    <marker
       style="overflow:visible;"
       id="Arrow1Lend"
       refX="0.0"
       refY="0.0"
       orient="auto"
       inkscape:stockid="Arrow1Lend"
       inkscape:isstock="true">
      <path
         transform="scale(0.8) rotate(180) translate(12.5,0)"
         style="fill-rule:evenodd;fill:context-stroke;stroke:context-stroke;stroke-width:1.0pt;"
         d="M 0.0,0.0 L 5.0,-5.0 L -12.5,0.0 L 5.0,5.0 L 0.0,0.0 z "
         id="path1066" />
    </marker>
    <marker
       style="overflow:visible"
       id="marker1351"
       refX="0.0"
       refY="0.0"
       orient="auto"
       inkscape:stockid="Arrow1Lstart"
       inkscape:isstock="true">
      <path
         transform="scale(0.8) translate(12.5,0)"
         style="fill-rule:evenodd;fill:context-stroke;stroke:context-stroke;stroke-width:1.0pt"
         d="M 0.0,0.0 L 5.0,-5.0 L -12.5,0.0 L 5.0,5.0 L 0.0,0.0 z "
         id="path1349" />
    </marker>
    <marker
       style="overflow:visible"
       id="Arrow1Lstart"
       refX="0.0"
       refY="0.0"
       orient="auto"
       inkscape:stockid="Arrow1Lstart"
       inkscape:isstock="true">
      <path
         transform="scale(0.8) translate(12.5,0)"
         style="fill-rule:evenodd;fill:context-stroke;stroke:context-stroke;stroke-width:1.0pt"
         d="M 0.0,0.0 L 5.0,-5.0 L -12.5,0.0 L 5.0,5.0 L 0.0,0.0 z "
         id="path1063" />
    </marker>
    <marker
       style="overflow:visible;"
       id="Arrow2Mend"
       refX="0.0"
       refY="0.0"
       orient="auto"
       inkscape:stockid="Arrow2Mend"
       inkscape:isstock="true">
      <path
         transform="scale(0.6) rotate(180) translate(0,0)"
         d="M 8.7185878,4.0337352 L -2.2072895,0.016013256 L 8.7185884,-4.0017078 C 6.9730900,-1.6296469 6.9831476,1.6157441 8.7185878,4.0337352 z "
         style="stroke:context-stroke;fill-rule:evenodd;fill:context-stroke;stroke-width:0.62500000;stroke-linejoin:round;"
         id="path1090" />
    </marker>
    <marker
       style="overflow:visible"
       id="Arrow2Mstart"
       refX="0.0"
       refY="0.0"
       orient="auto"
       inkscape:stockid="Arrow2Mstart"
       inkscape:isstock="true">
      <path
         transform="scale(0.6) translate(0,0)"
         d="M 8.7185878,4.0337352 L -2.2072895,0.016013256 L 8.7185884,-4.0017078 C 6.9730900,-1.6296469 6.9831476,1.6157441 8.7185878,4.0337352 z "
         style="stroke:context-stroke;fill-rule:evenodd;fill:context-stroke;stroke-width:0.62500000;stroke-linejoin:round"
         id="path1087" />
    </marker>
    <inkscape:path-effect
       effect="powerstroke"
       id="path-effect903"
       is_visible="true"
       lpeversion="1"
       offset_points="1,5"
       not_jump="false"
       sort_points="true"
       interpolator_type="CubicBezierJohan"
       interpolator_beta="0.2"
       start_linecap_type="zerowidth"
       linejoin_type="extrp_arc"
       miter_limit="4"
       scale_width="1"
       end_linecap_type="zerowidth" />
  </defs>
  <sodipodi:namedview
     id="base"
     pagecolor="#ffffff"
     bordercolor="#666666"
     borderopacity="1.0"
     inkscape:pageopacity="0.0"
     inkscape:pageshadow="2"
     inkscape:zoom="5.6250282"
     inkscape:cx="471.73097"
     inkscape:cy="206.75452"
     inkscape:document-units="mm"
     inkscape:current-layer="g218"
     showgrid="false"
     showborder="true"
     width="200mm"
     showguides="true"
     inkscape:guide-bbox="true"
     inkscape:window-width="2560"
     inkscape:window-height="1390"
     inkscape:window-x="1920"
     inkscape:window-y="24"
     inkscape:window-maximized="1"
     inkscape:pagecheckerboard="0">
    <inkscape:grid
       type="xygrid"
       id="grid815"
       units="mm"
       spacingx="10"
       spacingy="10"
       empspacing="4"
       dotted="false" />
    <sodipodi:guide
       position="123.06215,80.114561"
       orientation="0,-1"
       id="guide63855" />
    <sodipodi:guide
       position="135.30185,103.36998"
       orientation="0,-1"
       id="guide92615" />
    <sodipodi:guide
       position="114.81366,119.60088"
       orientation="1,0"
       id="guide92617" />
    <sodipodi:guide
       position="123.54111,60.477828"
       orientation="0,-1"
       id="guide123811" />
    <sodipodi:guide
       position="118.59199,33.816584"
       orientation="0,-1"
       id="guide138024" />
  </sodipodi:namedview>
  <metadata
     id="metadata5">
    <rdf:RDF>
      <cc:Work
         rdf:about="">
        <dc:format>image/svg+xml</dc:format>
        <dc:type
           rdf:resource="http://purl.org/dc/dcmitype/StillImage" />
        <dc:title />
      </cc:Work>
    </rdf:RDF>
  </metadata>
  <g
     inkscape:label="Layer 1"
     inkscape:groupmode="layer"
     id="layer1"
     transform="translate(0,-177)">
    <g
       id="g102"
       transform="matrix(0.35277777,0,0,-0.35277777,19.537949,324.48461)">
      <g
         transform="matrix(7.874016e-5,0,0,-7.874016e-5,153.27692,356.09399)"
         id="g120">
        <path
           id="path122"
           style="fill:none;stroke:#000000;stroke-width:12700;stroke-linecap:butt;stroke-linejoin:miter;stroke-miterlimit:8;stroke-dasharray:none;stroke-opacity:1"
           d="M 0,0 H 2928958 V 2648797 H 0 Z" />
      </g>
      <path
         id="path124"
         style="fill:#95b3d7;fill-opacity:1;fill-rule:evenodd;stroke:none"
         d="m 164.30691,284.81089 c 0,30.1728 25.5893,54.6326 57.1553,54.6326 31.566,0 57.1553,-24.4598 57.1553,-54.6326 0,-30.1727 -25.5893,-54.6325 -57.1553,-54.6325 -31.566,0 -57.1553,24.4598 -57.1553,54.6325 z" />
      <g
         transform="matrix(7.874016e-5,0,0,-7.874016e-5,164.30691,339.44349)"
         id="g126">
        <path
           id="path128"
           style="fill:none;stroke:#000000;stroke-width:19050;stroke-linecap:butt;stroke-linejoin:round;stroke-miterlimit:10;stroke-dasharray:none;stroke-opacity:1"
           d="M 0,693833.5 C 0,310639.8 324984,0 725872,0 c 400888,0 725872,310639.8 725872,693833.5 0,383193.5 -324984,693833.5 -725872,693833.5 C 324984,1387667 0,1077027 0,693833.5 Z" />
      </g>
      <path
         id="path130"
         style="fill:#95b3d7;fill-opacity:1;fill-rule:evenodd;stroke:none"
         d="m 219.38991,284.81089 c 0,30.1728 25.6043,54.6326 57.1887,54.6326 31.5844,0 57.1887,-24.4598 57.1887,-54.6326 0,-30.1727 -25.6043,-54.6325 -57.1887,-54.6325 -31.5844,0 -57.1887,24.4598 -57.1887,54.6325 z" />
      <g
         transform="matrix(7.874016e-5,0,0,-7.874016e-5,219.38991,339.44349)"
         id="g132">
        <path
           id="path134"
           style="fill:none;stroke:#000000;stroke-width:19050;stroke-linecap:butt;stroke-linejoin:round;stroke-miterlimit:10;stroke-dasharray:none;stroke-opacity:1"
           d="M 0,693833.5 C 0,310639.8 325174,0 726296.5,0 1127419,0 1452593,310639.8 1452593,693833.5 1452593,1077027 1127419,1387667 726296.5,1387667 325174,1387667 0,1077027 0,693833.5 Z" />
      </g>
      <path
         id="path136"
         style="fill:#95b3d7;fill-opacity:1;fill-rule:evenodd;stroke:none"
         d="m 194.32181,231.64949 c 0,30.1728 25.6042,54.6326 57.1887,54.6326 31.5844,0 57.1887,-24.4598 57.1887,-54.6326 0,-30.1727 -25.6043,-54.6325 -57.1887,-54.6325 -31.5845,0 -57.1887,24.4598 -57.1887,54.6325 z" />
      <g
         transform="matrix(7.874016e-5,0,0,-7.874016e-5,194.32181,286.28209)"
         id="g138">
        <path
           id="path140"
           style="fill:none;stroke:#000000;stroke-width:19050;stroke-linecap:butt;stroke-linejoin:round;stroke-miterlimit:10;stroke-dasharray:none;stroke-opacity:1"
           d="M 0,693833.5 C 0,310639.8 325174,0 726296.5,0 1127419,0 1452593,310639.8 1452593,693833.5 1452593,1077027 1127419,1387667 726296.5,1387667 325174,1387667 0,1077027 0,693833.5 Z" />
      </g>
      <g
         transform="matrix(7.874016e-5,0,0,-7.874016e-5,219.45671,339.44349)"
         id="g142">
        <path
           id="path144"
           style="fill:none;stroke:#000000;stroke-width:19050;stroke-linecap:butt;stroke-linejoin:round;stroke-miterlimit:10;stroke-dasharray:none;stroke-opacity:1"
           d="M 0,693833.5 C 0,310639.8 324984,0 725872,0 c 400888,0 725872,310639.8 725872,693833.5 0,383193.5 -324984,693833.5 -725872,693833.5 C 324984,1387667 0,1077027 0,693833.5 Z" />
      </g>
      <g
         transform="matrix(7.874016e-5,0,0,-7.874016e-5,164.30691,339.51029)"
         id="g146">
        <path
           id="path148"
           style="fill:none;stroke:#000000;stroke-width:19050;stroke-linecap:butt;stroke-linejoin:round;stroke-miterlimit:10;stroke-dasharray:none;stroke-opacity:1"
           d="M 0,693833.5 C 0,310639.8 324984,0 725872,0 c 400888,0 725872,310639.8 725872,693833.5 0,383193.5 -324984,693833.5 -725872,693833.5 C 324984,1387667 0,1077027 0,693833.5 Z" />
      </g>
      <g
         transform="matrix(0.24,0,0,0.24,333.54721,-373.25141)"
         id="g150">
        <text
           id="text154"
           style="font-variant:normal;font-weight:bold;font-size:62.5px;font-family:Arial;-inkscape-font-specification:Arial-BoldMT;writing-mode:lr-tb;fill:#000000;fill-opacity:1;fill-rule:nonzero;stroke:none"
           transform="matrix(1,0,0,-1,0,2250)"><tspan
             id="tspan152"
             y="0"
             x="0">S</tspan></text>
      </g>
      <g
         transform="matrix(0.24,0,0,0.24,182.13571,-247.01141)"
         id="g156">
        <text
           id="text160"
           style="font-variant:normal;font-weight:bold;font-size:62.5px;font-family:Arial;-inkscape-font-specification:Arial-BoldMT;writing-mode:lr-tb;fill:#000000;fill-opacity:1;fill-rule:nonzero;stroke:none"
           transform="matrix(1,0,0,-1,0,2250)"><tspan
             id="tspan158"
             y="0"
             x="0">7</tspan></text>
      </g>
      <g
         transform="matrix(0.24,0,0,0.24,236.28291,-278.93141)"
         id="g162">
        <text
           id="text166"
           style="font-variant:normal;font-weight:bold;font-size:62.5px;font-family:Arial;-inkscape-font-specification:Arial-BoldMT;writing-mode:lr-tb;fill:#000000;fill-opacity:1;fill-rule:nonzero;stroke:none"
           transform="matrix(1,0,0,-1,0,2250)"><tspan
             id="tspan164"
             y="0"
             x="0">1</tspan></text>
      </g>
      <g
         transform="matrix(0.24,0,0,0.24,236.28291,-247.01141)"
         id="g168">
        <text
           id="text172"
           style="font-variant:normal;font-weight:bold;font-size:62.5px;font-family:Arial;-inkscape-font-specification:Arial-BoldMT;writing-mode:lr-tb;fill:#000000;fill-opacity:1;fill-rule:nonzero;stroke:none"
           transform="matrix(1,0,0,-1,0,2250)"><tspan
             id="tspan170"
             y="0"
             x="0">2</tspan></text>
      </g>
      <g
         transform="matrix(0.24,0,0,0.24,271.37821,-296.21141)"
         id="g174">
        <text
           id="text178"
           style="font-variant:normal;font-weight:bold;font-size:62.5px;font-family:Arial;-inkscape-font-specification:Arial-BoldMT;writing-mode:lr-tb;fill:#000000;fill-opacity:1;fill-rule:nonzero;stroke:none"
           transform="matrix(1,0,0,-1,0,2250)"><tspan
             id="tspan176"
             y="0"
             x="0">3</tspan></text>
      </g>
      <g
         transform="matrix(0.24,0,0,0.24,201.52181,-296.21141)"
         id="g180">
        <text
           id="text184"
           style="font-variant:normal;font-weight:bold;font-size:62.5px;font-family:Arial;-inkscape-font-specification:Arial-BoldMT;writing-mode:lr-tb;fill:#000000;fill-opacity:1;fill-rule:nonzero;stroke:none"
           transform="matrix(1,0,0,-1,0,2250)"><tspan
             id="tspan182"
             y="0"
             x="0">4</tspan></text>
      </g>
      <g
         transform="matrix(0.24,0,0,0.24,236.28291,-341.09141)"
         id="g186">
        <text
           id="text190"
           style="font-variant:normal;font-weight:bold;font-size:62.5px;font-family:Arial;-inkscape-font-specification:Arial-BoldMT;writing-mode:lr-tb;fill:#000000;fill-opacity:1;fill-rule:nonzero;stroke:none"
           transform="matrix(1,0,0,-1,0,2250)"><tspan
             id="tspan188"
             y="0"
             x="0">5</tspan></text>
      </g>
      <g
         transform="matrix(0.24,0,0,0.24,289.02621,-247.01141)"
         id="g192">
        <text
           id="text196"
           style="font-variant:normal;font-weight:bold;font-size:62.5px;font-family:Arial;-inkscape-font-specification:Arial-BoldMT;writing-mode:lr-tb;fill:#000000;fill-opacity:1;fill-rule:nonzero;stroke:none"
           transform="matrix(1,0,0,-1,0,2250)"><tspan
             id="tspan194"
             y="0"
             x="0">6</tspan></text>
      </g>
      <g
         transform="matrix(0.24,0,0,0.24,191.76191,-226.13141)"
         id="g198">
        <text
           id="text202"
           style="font-variant:normal;font-weight:bold;font-size:62.5px;font-family:Arial;-inkscape-font-specification:Arial-BoldMT;writing-mode:lr-tb;fill:#000000;fill-opacity:1;fill-rule:nonzero;stroke:none"
           transform="matrix(1,0,0,-1,0,2250)"><tspan
             id="tspan200"
             y="0"
             x="0">A</tspan></text>
      </g>
      <g
         transform="matrix(0.24,0,0,0.24,280.80381,-226.13141)"
         id="g204">
        <text
           id="text208"
           style="font-variant:normal;font-weight:bold;font-size:62.5px;font-family:Arial;-inkscape-font-specification:Arial-BoldMT;writing-mode:lr-tb;fill:#000000;fill-opacity:1;fill-rule:nonzero;stroke:none"
           transform="matrix(1,0,0,-1,0,2250)"><tspan
             id="tspan206"
             y="0"
             x="0">B</tspan></text>
      </g>
      <g
         transform="matrix(0.24,0,0,0.24,271.37821,-335.33141)"
         id="g210">
        <text
           id="text214"
           style="font-variant:normal;font-weight:bold;font-size:62.5px;font-family:Arial;-inkscape-font-specification:Arial-BoldMT;writing-mode:lr-tb;fill:#000000;fill-opacity:1;fill-rule:nonzero;stroke:none"
           transform="matrix(1,0,0,-1,0,2250)"><tspan
             id="tspan212"
             y="0"
             x="0">C</tspan></text>
      </g>
      <g
         transform="matrix(0.24,0,0,0.24,380.7334,-252.72)"
         id="g218" />
    </g>
  </g>
</svg>
