<svg width="550" height="286" viewBox="0 0 550 286" fill="none" xmlns="http://www.w3.org/2000/svg">
<rect width="550" height="286" fill="white"/>
<path d="M41 20H208V55H41V20Z" fill="#EEEEEE"/>
<path d="M41 20V19.5H40.5V20H41ZM208 20H208.5V19.5H208V20ZM208 55V55.5H208.5V55H208ZM41 55H40.5V55.5H41V55ZM41 20.5H208V19.5H41V20.5ZM207.5 20V55H208.5V20H207.5ZM208 54.5H41V55.5H208V54.5ZM41.5 55V20H40.5V55H41.5Z" fill="#AAAAAA"/>
<path d="M208 20H258V55H208V20Z" fill="#E0EAFF"/>
<text fill="#074EE8" xml:space="preserve" style="white-space: pre" font-family="Inter" font-size="14" font-weight="bold" letter-spacing="0em"><tspan x="218.624" y="42.5909">JAN</tspan></text>
<path d="M208 20V19.5H207.5V20H208ZM258 20H258.5V19.5H258V20ZM258 55V55.5H258.5V55H258ZM208 55H207.5V55.5H208V55ZM208 20.5H258V19.5H208V20.5ZM257.5 20V55H258.5V20H257.5ZM258 54.5H208V55.5H258V54.5ZM208.5 55V20H207.5V55H208.5Z" fill="#AAAAAA"/>
<path d="M258 20H308V55H258V20Z" fill="#E0EAFF"/>
<text fill="#074EE8" xml:space="preserve" style="white-space: pre" font-family="Inter" font-size="14" font-weight="bold" letter-spacing="0em"><tspan x="269.991" y="42.5909">FEB</tspan></text>
<path d="M258 20V19.5H257.5V20H258ZM308 20H308.5V19.5H308V20ZM308 55V55.5H308.5V55H308ZM258 55H257.5V55.5H258V55ZM258 20.5H308V19.5H258V20.5ZM307.5 20V55H308.5V20H307.5ZM308 54.5H258V55.5H308V54.5ZM258.5 55V20H257.5V55H258.5Z" fill="#AAAAAA"/>
<path d="M308 20H358V55H308V20Z" fill="#E0EAFF"/>
<text fill="#074EE8" xml:space="preserve" style="white-space: pre" font-family="Inter" font-size="14" font-weight="bold" letter-spacing="0em"><tspan x="316.765" y="42.5909">MAR</tspan></text>
<path d="M308 20V19.5H307.5V20H308ZM358 20H358.5V19.5H358V20ZM358 55V55.5H358.5V55H358ZM308 55H307.5V55.5H308V55ZM308 20.5H358V19.5H308V20.5ZM357.5 20V55H358.5V20H357.5ZM358 54.5H308V55.5H358V54.5ZM308.5 55V20H307.5V55H308.5Z" fill="#AAAAAA"/>
<path d="M358 20H408V55H358V20Z" fill="#E0EAFF"/>
<text fill="#074EE8" xml:space="preserve" style="white-space: pre" font-family="Inter" font-size="14" font-weight="bold" letter-spacing="0em"><tspan x="368.638" y="42.5909">APR</tspan></text>
<path d="M358 20V19.5H357.5V20H358ZM408 20H408.5V19.5H408V20ZM408 55V55.5H408.5V55H408ZM358 55H357.5V55.5H358V55ZM358 20.5H408V19.5H358V20.5ZM407.5 20V55H408.5V20H407.5ZM408 54.5H358V55.5H408V54.5ZM358.5 55V20H357.5V55H358.5Z" fill="#AAAAAA"/>
<path d="M408 20H458V55H408V20Z" fill="#E0EAFF"/>
<text fill="#074EE8" xml:space="preserve" style="white-space: pre" font-family="Inter" font-size="14" font-weight="bold" letter-spacing="0em"><tspan x="416.806" y="42.5909">MAY</tspan></text>
<path d="M408 20V19.5H407.5V20H408ZM458 20H458.5V19.5H458V20ZM458 55V55.5H458.5V55H458ZM408 55H407.5V55.5H408V55ZM408 20.5H458V19.5H408V20.5ZM457.5 20V55H458.5V20H457.5ZM458 54.5H408V55.5H458V54.5ZM408.5 55V20H407.5V55H408.5Z" fill="#AAAAAA"/>
<path d="M458 20H508V55H458V20Z" fill="#E0EAFF"/>
<text fill="#074EE8" xml:space="preserve" style="white-space: pre" font-family="Inter" font-size="14" font-weight="bold" letter-spacing="0em"><tspan x="468.754" y="42.5909">JUN</tspan></text>
<path d="M458 20V19.5H457.5V20H458ZM508 20H508.5V19.5H508V20ZM508 55V55.5H508.5V55H508ZM458 55H457.5V55.5H458V55ZM458 20.5H508V19.5H458V20.5ZM507.5 20V55H508.5V20H507.5ZM508 54.5H458V55.5H508V54.5ZM458.5 55V20H457.5V55H458.5Z" fill="#AAAAAA"/>
<path d="M41 55H208V90H41V55Z" fill="#FFEDD5"/>
<text fill="#EA580C" xml:space="preserve" style="white-space: pre" font-family="Inter" font-size="12" font-weight="500" letter-spacing="0em"><tspan x="53" y="76.8636">Storyline writing</tspan></text>
<path d="M41 55V54.5H40.5V55H41ZM208 55H208.5V54.5H208V55ZM208 90V90.5H208.5V90H208ZM41 90H40.5V90.5H41V90ZM41 55.5H208V54.5H41V55.5ZM207.5 55V90H208.5V55H207.5ZM208 89.5H41V90.5H208V89.5ZM41.5 90V55H40.5V90H41.5Z" fill="#AAAAAA"/>
<path d="M208 55H258V90H208V55Z" fill="#EEEEEE"/>
<path d="M208 55V54.5H207.5V55H208ZM258 55H258.5V54.5H258V55ZM258 90V90.5H258.5V90H258ZM208 90H207.5V90.5H208V90ZM208 55.5H258V54.5H208V55.5ZM257.5 55V90H258.5V55H257.5ZM258 89.5H208V90.5H258V89.5ZM208.5 90V55H207.5V90H208.5Z" fill="#AAAAAA"/>
<path d="M258 55H308V90H258V55Z" fill="#EEEEEE"/>
<path d="M258 55V54.5H257.5V55H258ZM308 55H308.5V54.5H308V55ZM308 90V90.5H308.5V90H308ZM258 90H257.5V90.5H258V90ZM258 55.5H308V54.5H258V55.5ZM307.5 55V90H308.5V55H307.5ZM308 89.5H258V90.5H308V89.5ZM258.5 90V55H257.5V90H258.5Z" fill="#AAAAAA"/>
<path d="M308 55H358V90H308V55Z" fill="#EEEEEE"/>
<path d="M308 55V54.5H307.5V55H308ZM358 55H358.5V54.5H358V55ZM358 90V90.5H358.5V90H358ZM308 90H307.5V90.5H308V90ZM308 55.5H358V54.5H308V55.5ZM357.5 55V90H358.5V55H357.5ZM358 89.5H308V90.5H358V89.5ZM308.5 90V55H307.5V90H308.5Z" fill="#AAAAAA"/>
<path d="M358 55H408V90H358V55Z" fill="#EEEEEE"/>
<path d="M358 55V54.5H357.5V55H358ZM408 55H408.5V54.5H408V55ZM408 90V90.5H408.5V90H408ZM358 90H357.5V90.5H358V90ZM358 55.5H408V54.5H358V55.5ZM407.5 55V90H408.5V55H407.5ZM408 89.5H358V90.5H408V89.5ZM358.5 90V55H357.5V90H358.5Z" fill="#AAAAAA"/>
<path d="M408 55H458V90H408V55Z" fill="#EEEEEE"/>
<path d="M408 55V54.5H407.5V55H408ZM458 55H458.5V54.5H458V55ZM458 90V90.5H458.5V90H458ZM408 90H407.5V90.5H408V90ZM408 55.5H458V54.5H408V55.5ZM457.5 55V90H458.5V55H457.5ZM458 89.5H408V90.5H458V89.5ZM408.5 90V55H407.5V90H408.5Z" fill="#AAAAAA"/>
<path d="M458 55H508V90H458V55Z" fill="#EEEEEE"/>
<path d="M458 55V54.5H457.5V55H458ZM508 55H508.5V54.5H508V55ZM508 90V90.5H508.5V90H508ZM458 90H457.5V90.5H458V90ZM458 55.5H508V54.5H458V55.5ZM507.5 55V90H508.5V55H507.5ZM508 89.5H458V90.5H508V89.5ZM458.5 90V55H457.5V90H458.5Z" fill="#AAAAAA"/>
<path d="M41 90H208V125H41V90Z" fill="#E0F2FE"/>
<text fill="#0284C7" xml:space="preserve" style="white-space: pre" font-family="Inter" font-size="12" font-weight="500" letter-spacing="0em"><tspan x="53" y="111.864">Project bootstrap</tspan></text>
<path d="M41 90V89.5H40.5V90H41ZM208 90H208.5V89.5H208V90ZM208 125V125.5H208.5V125H208ZM41 125H40.5V125.5H41V125ZM41 90.5H208V89.5H41V90.5ZM207.5 90V125H208.5V90H207.5ZM208 124.5H41V125.5H208V124.5ZM41.5 125V90H40.5V125H41.5Z" fill="#AAAAAA"/>
<path d="M208 90H258V125H208V90Z" fill="#EEEEEE"/>
<path d="M208 90V89.5H207.5V90H208ZM258 90H258.5V89.5H258V90ZM258 125V125.5H258.5V125H258ZM208 125H207.5V125.5H208V125ZM208 90.5H258V89.5H208V90.5ZM257.5 90V125H258.5V90H257.5ZM258 124.5H208V125.5H258V124.5ZM208.5 125V90H207.5V125H208.5Z" fill="#AAAAAA"/>
<path d="M258 90H308V125H258V90Z" fill="#EEEEEE"/>
<path d="M258 90V89.5H257.5V90H258ZM308 90H308.5V89.5H308V90ZM308 125V125.5H308.5V125H308ZM258 125H257.5V125.5H258V125ZM258 90.5H308V89.5H258V90.5ZM307.5 90V125H308.5V90H307.5ZM308 124.5H258V125.5H308V124.5ZM258.5 125V90H257.5V125H258.5Z" fill="#AAAAAA"/>
<path d="M308 90H358V125H308V90Z" fill="#EEEEEE"/>
<path d="M308 90V89.5H307.5V90H308ZM358 90H358.5V89.5H358V90ZM358 125V125.5H358.5V125H358ZM308 125H307.5V125.5H308V125ZM308 90.5H358V89.5H308V90.5ZM357.5 90V125H358.5V90H357.5ZM358 124.5H308V125.5H358V124.5ZM308.5 125V90H307.5V125H308.5Z" fill="#AAAAAA"/>
<path d="M358 90H408V125H358V90Z" fill="#EEEEEE"/>
<path d="M358 90V89.5H357.5V90H358ZM408 90H408.5V89.5H408V90ZM408 125V125.5H408.5V125H408ZM358 125H357.5V125.5H358V125ZM358 90.5H408V89.5H358V90.5ZM407.5 90V125H408.5V90H407.5ZM408 124.5H358V125.5H408V124.5ZM358.5 125V90H357.5V125H358.5Z" fill="#AAAAAA"/>
<path d="M408 90H458V125H408V90Z" fill="#EEEEEE"/>
<path d="M408 90V89.5H407.5V90H408ZM458 90H458.5V89.5H458V90ZM458 125V125.5H458.5V125H458ZM408 125H407.5V125.5H408V125ZM408 90.5H458V89.5H408V90.5ZM457.5 90V125H458.5V90H457.5ZM458 124.5H408V125.5H458V124.5ZM408.5 125V90H407.5V125H408.5Z" fill="#AAAAAA"/>
<path d="M458 90H508V125H458V90Z" fill="#EEEEEE"/>
<path d="M458 90V89.5H457.5V90H458ZM508 90H508.5V89.5H508V90ZM508 125V125.5H508.5V125H508ZM458 125H457.5V125.5H458V125ZM458 90.5H508V89.5H458V90.5ZM507.5 90V125H508.5V90H507.5ZM508 124.5H458V125.5H508V124.5ZM458.5 125V90H457.5V125H458.5Z" fill="#AAAAAA"/>
<path d="M41 125H208V160H41V125Z" fill="#F3E8FF"/>
<text fill="#9333EA" xml:space="preserve" style="white-space: pre" font-family="Inter" font-size="12" font-weight="500" letter-spacing="0em"><tspan x="53" y="146.864">3D modeling</tspan></text>
<path d="M41 125V124.5H40.5V125H41ZM208 125H208.5V124.5H208V125ZM208 160V160.5H208.5V160H208ZM41 160H40.5V160.5H41V160ZM41 125.5H208V124.5H41V125.5ZM207.5 125V160H208.5V125H207.5ZM208 159.5H41V160.5H208V159.5ZM41.5 160V125H40.5V160H41.5Z" fill="#AAAAAA"/>
<path d="M208 125H258V160H208V125Z" fill="#EEEEEE"/>
<path d="M208 125V124.5H207.5V125H208ZM258 125H258.5V124.5H258V125ZM258 160V160.5H258.5V160H258ZM208 160H207.5V160.5H208V160ZM208 125.5H258V124.5H208V125.5ZM257.5 125V160H258.5V125H257.5ZM258 159.5H208V160.5H258V159.5ZM208.5 160V125H207.5V160H208.5Z" fill="#AAAAAA"/>
<path d="M258 125H308V160H258V125Z" fill="#EEEEEE"/>
<path d="M258 125V124.5H257.5V125H258ZM308 125H308.5V124.5H308V125ZM308 160V160.5H308.5V160H308ZM258 160H257.5V160.5H258V160ZM258 125.5H308V124.5H258V125.5ZM307.5 125V160H308.5V125H307.5ZM308 159.5H258V160.5H308V159.5ZM258.5 160V125H257.5V160H258.5Z" fill="#AAAAAA"/>
<path d="M308 125H358V160H308V125Z" fill="#EEEEEE"/>
<path d="M308 125V124.5H307.5V125H308ZM358 125H358.5V124.5H358V125ZM358 160V160.5H358.5V160H358ZM308 160H307.5V160.5H308V160ZM308 125.5H358V124.5H308V125.5ZM357.5 125V160H358.5V125H357.5ZM358 159.5H308V160.5H358V159.5ZM308.5 160V125H307.5V160H308.5Z" fill="#AAAAAA"/>
<path d="M358 125H408V160H358V125Z" fill="#EEEEEE"/>
<path d="M358 125V124.5H357.5V125H358ZM408 125H408.5V124.5H408V125ZM408 160V160.5H408.5V160H408ZM358 160H357.5V160.5H358V160ZM358 125.5H408V124.5H358V125.5ZM407.5 125V160H408.5V125H407.5ZM408 159.5H358V160.5H408V159.5ZM358.5 160V125H357.5V160H358.5Z" fill="#AAAAAA"/>
<path d="M408 125H458V160H408V125Z" fill="#EEEEEE"/>
<path d="M408 125V124.5H407.5V125H408ZM458 125H458.5V124.5H458V125ZM458 160V160.5H458.5V160H458ZM408 160H407.5V160.5H408V160ZM408 125.5H458V124.5H408V125.5ZM457.5 125V160H458.5V125H457.5ZM458 159.5H408V160.5H458V159.5ZM408.5 160V125H407.5V160H408.5Z" fill="#AAAAAA"/>
<path d="M458 125H508V160H458V125Z" fill="#EEEEEE"/>
<path d="M458 125V124.5H457.5V125H458ZM508 125H508.5V124.5H508V125ZM508 160V160.5H508.5V160H508ZM458 160H457.5V160.5H458V160ZM458 125.5H508V124.5H458V125.5ZM507.5 125V160H508.5V125H507.5ZM508 159.5H458V160.5H508V159.5ZM458.5 160V125H457.5V160H458.5Z" fill="#AAAAAA"/>
<path d="M41 160H208V195H41V160Z" fill="#FEE2E2"/>
<text fill="#DC2626" xml:space="preserve" style="white-space: pre" font-family="Inter" font-size="12" font-weight="500" letter-spacing="0em"><tspan x="53" y="181.864">Game development</tspan></text>
<path d="M41 160V159.5H40.5V160H41ZM208 160H208.5V159.5H208V160ZM208 195V195.5H208.5V195H208ZM41 195H40.5V195.5H41V195ZM41 160.5H208V159.5H41V160.5ZM207.5 160V195H208.5V160H207.5ZM208 194.5H41V195.5H208V194.5ZM41.5 195V160H40.5V195H41.5Z" fill="#AAAAAA"/>
<path d="M208 160H258V195H208V160Z" fill="#EEEEEE"/>
<path d="M208 160V159.5H207.5V160H208ZM258 160H258.5V159.5H258V160ZM258 195V195.5H258.5V195H258ZM208 195H207.5V195.5H208V195ZM208 160.5H258V159.5H208V160.5ZM257.5 160V195H258.5V160H257.5ZM258 194.5H208V195.5H258V194.5ZM208.5 195V160H207.5V195H208.5Z" fill="#AAAAAA"/>
<path d="M258 160H308V195H258V160Z" fill="#EEEEEE"/>
<path d="M258 160V159.5H257.5V160H258ZM308 160H308.5V159.5H308V160ZM308 195V195.5H308.5V195H308ZM258 195H257.5V195.5H258V195ZM258 160.5H308V159.5H258V160.5ZM307.5 160V195H308.5V160H307.5ZM308 194.5H258V195.5H308V194.5ZM258.5 195V160H257.5V195H258.5Z" fill="#AAAAAA"/>
<path d="M308 160H358V195H308V160Z" fill="#EEEEEE"/>
<path d="M308 160V159.5H307.5V160H308ZM358 160H358.5V159.5H358V160ZM358 195V195.5H358.5V195H358ZM308 195H307.5V195.5H308V195ZM308 160.5H358V159.5H308V160.5ZM357.5 160V195H358.5V160H357.5ZM358 194.5H308V195.5H358V194.5ZM308.5 195V160H307.5V195H308.5Z" fill="#AAAAAA"/>
<path d="M358 160H408V195H358V160Z" fill="#EEEEEE"/>
<path d="M358 160V159.5H357.5V160H358ZM408 160H408.5V159.5H408V160ZM408 195V195.5H408.5V195H408ZM358 195H357.5V195.5H358V195ZM358 160.5H408V159.5H358V160.5ZM407.5 160V195H408.5V160H407.5ZM408 194.5H358V195.5H408V194.5ZM358.5 195V160H357.5V195H358.5Z" fill="#AAAAAA"/>
<path d="M408 160H458V195H408V160Z" fill="#EEEEEE"/>
<path d="M408 160V159.5H407.5V160H408ZM458 160H458.5V159.5H458V160ZM458 195V195.5H458.5V195H458ZM408 195H407.5V195.5H408V195ZM408 160.5H458V159.5H408V160.5ZM457.5 160V195H458.5V160H457.5ZM458 194.5H408V195.5H458V194.5ZM408.5 195V160H407.5V195H408.5Z" fill="#AAAAAA"/>
<path d="M458 160H508V195H458V160Z" fill="#EEEEEE"/>
<path d="M458 160V159.5H457.5V160H458ZM508 160H508.5V159.5H508V160ZM508 195V195.5H508.5V195H508ZM458 195H457.5V195.5H458V195ZM458 160.5H508V159.5H458V160.5ZM507.5 160V195H508.5V160H507.5ZM508 194.5H458V195.5H508V194.5ZM458.5 195V160H457.5V195H458.5Z" fill="#AAAAAA"/>
<path d="M41 195H208V230H41V195Z" fill="#DCFCE7"/>
<text fill="#16A34A" xml:space="preserve" style="white-space: pre" font-family="Inter" font-size="12" font-weight="500" letter-spacing="0em"><tspan x="53" y="216.864">Marketing</tspan></text>
<path d="M41 195V194.5H40.5V195H41ZM208 195H208.5V194.5H208V195ZM208 230V230.5H208.5V230H208ZM41 230H40.5V230.5H41V230ZM41 195.5H208V194.5H41V195.5ZM207.5 195V230H208.5V195H207.5ZM208 229.5H41V230.5H208V229.5ZM41.5 230V195H40.5V230H41.5Z" fill="#AAAAAA"/>
<path d="M208 195H258V230H208V195Z" fill="#EEEEEE"/>
<path d="M208 195V194.5H207.5V195H208ZM258 195H258.5V194.5H258V195ZM258 230V230.5H258.5V230H258ZM208 230H207.5V230.5H208V230ZM208 195.5H258V194.5H208V195.5ZM257.5 195V230H258.5V195H257.5ZM258 229.5H208V230.5H258V229.5ZM208.5 230V195H207.5V230H208.5Z" fill="#AAAAAA"/>
<path d="M258 195H308V230H258V195Z" fill="#EEEEEE"/>
<path d="M258 195V194.5H257.5V195H258ZM308 195H308.5V194.5H308V195ZM308 230V230.5H308.5V230H308ZM258 230H257.5V230.5H258V230ZM258 195.5H308V194.5H258V195.5ZM307.5 195V230H308.5V195H307.5ZM308 229.5H258V230.5H308V229.5ZM258.5 230V195H257.5V230H258.5Z" fill="#AAAAAA"/>
<path d="M308 195H358V230H308V195Z" fill="#EEEEEE"/>
<path d="M308 195V194.5H307.5V195H308ZM358 195H358.5V194.5H358V195ZM358 230V230.5H358.5V230H358ZM308 230H307.5V230.5H308V230ZM308 195.5H358V194.5H308V195.5ZM357.5 195V230H358.5V195H357.5ZM358 229.5H308V230.5H358V229.5ZM308.5 230V195H307.5V230H308.5Z" fill="#AAAAAA"/>
<path d="M358 195H408V230H358V195Z" fill="#EEEEEE"/>
<path d="M358 195V194.5H357.5V195H358ZM408 195H408.5V194.5H408V195ZM408 230V230.5H408.5V230H408ZM358 230H357.5V230.5H358V230ZM358 195.5H408V194.5H358V195.5ZM407.5 195V230H408.5V195H407.5ZM408 229.5H358V230.5H408V229.5ZM358.5 230V195H357.5V230H358.5Z" fill="#AAAAAA"/>
<path d="M408 195H458V230H408V195Z" fill="#EEEEEE"/>
<path d="M408 195V194.5H407.5V195H408ZM458 195H458.5V194.5H458V195ZM458 230V230.5H458.5V230H458ZM408 230H407.5V230.5H408V230ZM408 195.5H458V194.5H408V195.5ZM457.5 195V230H458.5V195H457.5ZM458 229.5H408V230.5H458V229.5ZM408.5 230V195H407.5V230H408.5Z" fill="#AAAAAA"/>
<path d="M458 195H508V230H458V195Z" fill="#EEEEEE"/>
<path d="M458 195V194.5H457.5V195H458ZM508 195H508.5V194.5H508V195ZM508 230V230.5H508.5V230H508ZM458 230H457.5V230.5H458V230ZM458 195.5H508V194.5H458V195.5ZM507.5 195V230H508.5V195H507.5ZM508 229.5H458V230.5H508V229.5ZM458.5 230V195H457.5V230H458.5Z" fill="#AAAAAA"/>
<path d="M41 230H208V265H41V230Z" fill="#FFE4E6"/>
<text fill="#E11D48" xml:space="preserve" style="white-space: pre" font-family="Inter" font-size="12" font-weight="500" letter-spacing="0em"><tspan x="53" y="251.864">Private beta testing</tspan></text>
<path d="M41 230V229.5H40.5V230H41ZM208 230H208.5V229.5H208V230ZM208 265V265.5H208.5V265H208ZM41 265H40.5V265.5H41V265ZM41 230.5H208V229.5H41V230.5ZM207.5 230V265H208.5V230H207.5ZM208 264.5H41V265.5H208V264.5ZM41.5 265V230H40.5V265H41.5Z" fill="#AAAAAA"/>
<path d="M208 230H258V265H208V230Z" fill="#EEEEEE"/>
<path d="M208 230V229.5H207.5V230H208ZM258 230H258.5V229.5H258V230ZM258 265V265.5H258.5V265H258ZM208 265H207.5V265.5H208V265ZM208 230.5H258V229.5H208V230.5ZM257.5 230V265H258.5V230H257.5ZM258 264.5H208V265.5H258V264.5ZM208.5 265V230H207.5V265H208.5Z" fill="#AAAAAA"/>
<path d="M258 230H308V265H258V230Z" fill="#EEEEEE"/>
<path d="M258 230V229.5H257.5V230H258ZM308 230H308.5V229.5H308V230ZM308 265V265.5H308.5V265H308ZM258 265H257.5V265.5H258V265ZM258 230.5H308V229.5H258V230.5ZM307.5 230V265H308.5V230H307.5ZM308 264.5H258V265.5H308V264.5ZM258.5 265V230H257.5V265H258.5Z" fill="#AAAAAA"/>
<path d="M308 230H358V265H308V230Z" fill="#EEEEEE"/>
<path d="M308 230V229.5H307.5V230H308ZM358 230H358.5V229.5H358V230ZM358 265V265.5H358.5V265H358ZM308 265H307.5V265.5H308V265ZM308 230.5H358V229.5H308V230.5ZM357.5 230V265H358.5V230H357.5ZM358 264.5H308V265.5H358V264.5ZM308.5 265V230H307.5V265H308.5Z" fill="#AAAAAA"/>
<path d="M358 230H408V265H358V230Z" fill="#EEEEEE"/>
<path d="M358 230V229.5H357.5V230H358ZM408 230H408.5V229.5H408V230ZM408 265V265.5H408.5V265H408ZM358 265H357.5V265.5H358V265ZM358 230.5H408V229.5H358V230.5ZM407.5 230V265H408.5V230H407.5ZM408 264.5H358V265.5H408V264.5ZM358.5 265V230H357.5V265H358.5Z" fill="#AAAAAA"/>
<path d="M408 230H458V265H408V230Z" fill="#EEEEEE"/>
<path d="M408 230V229.5H407.5V230H408ZM458 230H458.5V229.5H458V230ZM458 265V265.5H458.5V265H458ZM408 265H407.5V265.5H408V265ZM408 230.5H458V229.5H408V230.5ZM457.5 230V265H458.5V230H457.5ZM458 264.5H408V265.5H458V264.5ZM408.5 265V230H407.5V265H408.5Z" fill="#AAAAAA"/>
<path d="M458 230H508V265H458V230Z" fill="#EEEEEE"/>
<path d="M458 230V229.5H457.5V230H458ZM508 230H508.5V229.5H508V230ZM508 265V265.5H508.5V265H508ZM458 265H457.5V265.5H458V265ZM458 230.5H508V229.5H458V230.5ZM507.5 230V265H508.5V230H507.5ZM508 264.5H458V265.5H508V264.5ZM458.5 265V230H457.5V265H458.5Z" fill="#AAAAAA"/>
<path d="M233 72L333 72" stroke="#F97316" stroke-width="12" stroke-linecap="round"/>
<path d="M233 107H258" stroke="#0EA5E9" stroke-width="12" stroke-linecap="round"/>
<path d="M433 247H483" stroke="#F43F5E" stroke-width="12" stroke-linecap="round"/>
<path d="M258 143H383" stroke="#A855F7" stroke-width="12" stroke-linecap="round"/>
<path d="M333 212H483" stroke="#22C55E" stroke-width="12" stroke-linecap="round"/>
<path d="M245 177H483" stroke="#EF4444" stroke-width="12" stroke-linecap="round"/>
</svg>
