<svg width="744" height="713" viewBox="0 0 744 713" fill="none" xmlns="http://www.w3.org/2000/svg">
<g clip-path="url(#clip0_2_3)">
<rect width="744" height="713" fill="#EEEEEE"/>
<path d="M36 130C36 125.582 39.5817 122 44 122H178C182.418 122 186 125.582 186 130V264C186 268.418 182.418 272 178 272H44C39.5817 272 36 268.418 36 264V130Z" fill="#E0EAFF"/>
<path d="M49.36 261.592V263H45.056V261.592H46.528V255.96C46.4427 256.344 46.304 256.643 46.112 256.856C45.92 257.059 45.7173 257.203 45.504 257.288C45.2907 257.373 45.0987 257.427 44.928 257.448C44.7573 257.459 44.6453 257.464 44.592 257.464V255.688C44.656 255.699 44.7947 255.699 45.008 255.688C45.2213 255.667 45.4507 255.603 45.696 255.496C45.952 255.389 46.176 255.219 46.368 254.984C46.56 254.749 46.6667 254.419 46.688 253.992H48.128V261.592H49.36Z" fill="#074EE8"/>
<path d="M51 263L53.4 259.608L51.128 256.424H52.92L54.424 258.664L55.928 256.424H57.736L55.464 259.608L57.88 263H56.088L54.424 260.584L52.792 263H51ZM63.529 259.96C63.0597 259.96 62.745 259.843 62.585 259.608C62.425 259.373 62.345 259.101 62.345 258.792C62.345 258.483 62.425 258.216 62.585 257.992C62.745 257.757 63.0597 257.64 63.529 257.64C63.9877 257.64 64.2917 257.757 64.441 257.992C64.601 258.216 64.681 258.483 64.681 258.792C64.681 259.101 64.601 259.373 64.441 259.608C64.2917 259.843 63.9877 259.96 63.529 259.96Z" fill="#074EE8"/>
<path d="M71.04 263V253.992H72.672V258.248L76.656 253.992H78.784V254.184L75.216 257.624L78.976 262.808V263H77.104L74.032 258.76L72.672 260.072V263H71.04ZM82.8046 263.16C82.0473 263.16 81.4286 263 80.9486 262.68C80.4793 262.349 80.1273 261.933 79.8926 261.432C79.6686 260.92 79.5513 260.381 79.5406 259.816C79.53 259.155 79.6526 258.568 79.9086 258.056C80.1753 257.533 80.5486 257.128 81.0286 256.84C81.5193 256.541 82.0953 256.392 82.7566 256.392C83.3433 256.392 83.866 256.52 84.3246 256.776C84.794 257.032 85.1673 257.395 85.4446 257.864C85.722 258.323 85.866 258.867 85.8766 259.496C85.8766 259.517 85.8766 259.576 85.8766 259.672C85.8766 259.768 85.8766 259.848 85.8766 259.912H81.0926C81.0926 260.52 81.242 260.989 81.5406 261.32C81.8393 261.64 82.25 261.8 82.7726 261.8C83.178 261.8 83.514 261.699 83.7806 261.496C84.058 261.293 84.2233 261.027 84.2766 260.696H85.8606C85.786 261.389 85.4873 261.976 84.9646 262.456C84.442 262.925 83.722 263.16 82.8046 263.16ZM81.1406 259.176H84.2446C84.234 259.101 84.2073 258.984 84.1646 258.824C84.1326 258.664 84.0633 258.499 83.9566 258.328C83.8606 258.157 83.7113 258.013 83.5086 257.896C83.306 257.779 83.0446 257.72 82.7246 257.72C82.298 257.72 81.9726 257.811 81.7486 257.992C81.5353 258.163 81.3806 258.365 81.2846 258.6C81.1993 258.824 81.1513 259.016 81.1406 259.176ZM87.2033 263V256.424H88.7233L88.8353 258.248C88.8993 257.971 89.0219 257.693 89.2033 257.416C89.3953 257.128 89.6566 256.893 89.9873 256.712C90.3286 256.52 90.7659 256.424 91.2993 256.424H91.5393V258.248H91.2993C90.3819 258.248 89.7419 258.397 89.3793 258.696C89.0166 258.984 88.8353 259.475 88.8353 260.168V263H87.2033ZM93.6175 255.704C93.2655 255.715 93.0308 255.635 92.9135 255.464C92.8068 255.283 92.7535 255.069 92.7535 254.824C92.7535 254.589 92.8122 254.387 92.9295 254.216C93.0468 254.045 93.2762 253.96 93.6175 253.96C93.9482 253.96 94.1668 254.045 94.2735 254.216C94.3908 254.387 94.4495 254.589 94.4495 254.824C94.4495 255.069 94.3908 255.277 94.2735 255.448C94.1668 255.608 93.9482 255.693 93.6175 255.704ZM92.7855 263V256.424H94.4175V263H92.7855ZM98.61 263.16C98.3327 263.16 98.0233 263.112 97.682 263.016C97.3513 262.92 97.0313 262.776 96.722 262.584C96.4233 262.392 96.1727 262.147 95.97 261.848C95.778 261.539 95.682 261.176 95.682 260.76H97.186C97.186 260.781 97.1913 260.856 97.202 260.984C97.2127 261.101 97.2553 261.24 97.33 261.4C97.4153 261.549 97.554 261.683 97.746 261.8C97.938 261.917 98.2153 261.976 98.578 261.976C99.0047 261.976 99.3247 261.901 99.538 261.752C99.7513 261.592 99.858 261.411 99.858 261.208C99.858 260.973 99.7567 260.792 99.554 260.664C99.362 260.525 99.1113 260.413 98.802 260.328C98.4927 260.243 98.162 260.157 97.81 260.072C97.4687 259.976 97.1433 259.853 96.834 259.704C96.5353 259.555 96.29 259.352 96.098 259.096C95.906 258.829 95.81 258.488 95.81 258.072C95.81 257.464 96.0553 257.005 96.546 256.696C97.0367 256.376 97.6607 256.216 98.418 256.216C98.9513 256.216 99.4473 256.301 99.906 256.472C100.365 256.632 100.733 256.893 101.01 257.256C101.287 257.608 101.426 258.072 101.426 258.648H99.922C99.9327 258.317 99.858 258.072 99.698 257.912C99.5487 257.741 99.3567 257.624 99.122 257.56C98.898 257.496 98.6793 257.464 98.466 257.464C98.082 257.464 97.7887 257.533 97.586 257.672C97.394 257.8 97.298 257.971 97.298 258.184C97.298 258.429 97.394 258.621 97.586 258.76C97.7887 258.888 98.0447 258.995 98.354 259.08C98.674 259.165 99.0047 259.256 99.346 259.352C99.698 259.437 100.029 259.555 100.338 259.704C100.658 259.853 100.914 260.056 101.106 260.312C101.309 260.557 101.41 260.888 101.41 261.304C101.41 261.933 101.149 262.403 100.626 262.712C100.114 263.011 99.442 263.16 98.61 263.16ZM109.103 266.184C109.103 266.184 108.996 266.099 108.783 265.928C108.58 265.757 108.324 265.501 108.015 265.16C107.716 264.829 107.412 264.408 107.103 263.896C106.804 263.384 106.554 262.787 106.351 262.104C106.148 261.421 106.047 260.653 106.047 259.8C106.047 258.936 106.148 258.163 106.351 257.48C106.554 256.787 106.804 256.184 107.103 255.672C107.412 255.16 107.716 254.733 108.015 254.392C108.324 254.04 108.58 253.779 108.783 253.608C108.996 253.437 109.103 253.352 109.103 253.352L110.367 254.616C110.324 254.648 110.186 254.739 109.951 254.888C109.727 255.027 109.455 255.235 109.135 255.512C108.826 255.779 108.516 256.115 108.207 256.52C107.898 256.915 107.642 257.384 107.439 257.928C107.236 258.472 107.135 259.096 107.135 259.8C107.135 260.515 107.242 261.149 107.455 261.704C107.679 262.259 107.951 262.733 108.271 263.128C108.591 263.533 108.911 263.864 109.231 264.12C109.551 264.376 109.818 264.568 110.031 264.696C110.255 264.824 110.367 264.888 110.367 264.888L109.103 266.184ZM111.741 263V253.992H114.589L116.701 262.296H116.733L118.829 253.992H121.661V263H119.965L120.077 254.728H120.061L117.901 263H115.501L113.373 254.728H113.341L113.437 263H111.741ZM124.243 255.704C123.891 255.715 123.656 255.635 123.539 255.464C123.432 255.283 123.379 255.069 123.379 254.824C123.379 254.589 123.437 254.387 123.555 254.216C123.672 254.045 123.901 253.96 124.243 253.96C124.573 253.96 124.792 254.045 124.899 254.216C125.016 254.387 125.075 254.589 125.075 254.824C125.075 255.069 125.016 255.277 124.899 255.448C124.792 255.608 124.573 255.693 124.243 255.704ZM123.411 263V256.424H125.043V263H123.411ZM126.467 263V256.456H127.859L128.131 257.848H128.163C128.174 257.816 128.211 257.731 128.275 257.592C128.35 257.443 128.467 257.277 128.627 257.096C128.798 256.915 129.022 256.76 129.299 256.632C129.587 256.493 129.944 256.424 130.371 256.424C130.958 256.424 131.411 256.541 131.731 256.776C132.051 257.011 132.28 257.309 132.419 257.672C132.558 258.024 132.643 258.392 132.675 258.776C132.707 259.16 132.723 259.507 132.723 259.816V263H131.123V259.8C131.123 259.448 131.091 259.128 131.027 258.84C130.963 258.541 130.824 258.307 130.611 258.136C130.408 257.955 130.104 257.864 129.699 257.864C129.272 257.864 128.947 257.96 128.723 258.152C128.499 258.344 128.344 258.595 128.259 258.904C128.174 259.203 128.131 259.523 128.131 259.864V263H126.467ZM136.08 263C135.557 263 135.163 262.872 134.896 262.616C134.64 262.36 134.512 261.944 134.512 261.368V257.576H133.52V256.424C133.829 256.424 134.069 256.392 134.24 256.328C134.411 256.264 134.533 256.115 134.608 255.88C134.683 255.645 134.72 255.267 134.72 254.744H136.032V256.424H137.536V257.576H136.032V261.72H137.568V263H136.08ZM139.547 266.184L138.283 264.888C138.283 264.888 138.39 264.824 138.603 264.696C138.827 264.568 139.099 264.376 139.419 264.12C139.739 263.864 140.059 263.533 140.379 263.128C140.699 262.733 140.966 262.259 141.179 261.704C141.403 261.149 141.515 260.515 141.515 259.8C141.515 259.096 141.414 258.472 141.211 257.928C141.008 257.384 140.752 256.915 140.443 256.52C140.134 256.115 139.819 255.779 139.499 255.512C139.19 255.235 138.918 255.027 138.683 254.888C138.459 254.739 138.326 254.648 138.283 254.616L139.547 253.352C139.547 253.352 139.648 253.437 139.851 253.608C140.064 253.779 140.32 254.04 140.619 254.392C140.928 254.733 141.232 255.16 141.531 255.672C141.84 256.184 142.096 256.787 142.299 257.48C142.502 258.163 142.603 258.936 142.603 259.8C142.603 260.653 142.502 261.421 142.299 262.104C142.096 262.787 141.84 263.384 141.531 263.896C141.232 264.408 140.928 264.829 140.619 265.16C140.32 265.501 140.064 265.757 139.851 265.928C139.648 266.099 139.547 266.184 139.547 266.184Z" fill="#074EE8"/>
<path d="M91.3333 160.333H83.3333L120.833 197.833L125 193.917M145.667 219.167L142.167 222.667C141.781 223.053 141.323 223.359 140.819 223.568C140.315 223.778 139.775 223.885 139.229 223.885C138.683 223.885 138.143 223.778 137.639 223.568C137.135 223.359 136.677 223.053 136.292 222.667L123.292 209.667L112.125 220.75L106.25 214.875L112.167 208.958L75 171.792V152H94.7917L131.958 189.167L137.875 183.25L143.75 189.125L132.625 200.25L145.625 213.25C147.292 214.917 147.292 217.542 145.667 219.167Z" fill="#074EE8"/>
<path d="M44 124H178V120H44V124ZM184 130V264H188V130H184ZM178 270H44V274H178V270ZM38 264V130H34V264H38ZM44 270C40.6863 270 38 267.314 38 264H34C34 269.523 38.4772 274 44 274V270ZM184 264C184 267.314 181.314 270 178 270V274C183.523 274 188 269.523 188 264H184ZM178 124C181.314 124 184 126.686 184 130H188C188 124.477 183.523 120 178 120V124ZM44 120C38.4772 120 34 124.477 34 130H38C38 126.686 40.6863 124 44 124V120Z" fill="#074EE8"/>
<path d="M210 130C210 125.582 213.582 122 218 122H352C356.418 122 360 125.582 360 130V264C360 268.418 356.418 272 352 272H218C213.582 272 210 268.418 210 264V130Z" fill="#E0EAFF"/>
<path d="M223.36 261.592V263H219.056V261.592H220.528V255.96C220.443 256.344 220.304 256.643 220.112 256.856C219.92 257.059 219.717 257.203 219.504 257.288C219.291 257.373 219.099 257.427 218.928 257.448C218.757 257.459 218.645 257.464 218.592 257.464V255.688C218.656 255.699 218.795 255.699 219.008 255.688C219.221 255.667 219.451 255.603 219.696 255.496C219.952 255.389 220.176 255.219 220.368 254.984C220.56 254.749 220.667 254.419 220.688 253.992H222.128V261.592H223.36Z" fill="#074EE8"/>
<path d="M225 263L227.4 259.608L225.128 256.424H226.92L228.424 258.664L229.928 256.424H231.736L229.464 259.608L231.88 263H230.088L228.424 260.584L226.792 263H225ZM237.529 259.96C237.06 259.96 236.745 259.843 236.585 259.608C236.425 259.373 236.345 259.101 236.345 258.792C236.345 258.483 236.425 258.216 236.585 257.992C236.745 257.757 237.06 257.64 237.529 257.64C237.988 257.64 238.292 257.757 238.441 257.992C238.601 258.216 238.681 258.483 238.681 258.792C238.681 259.101 238.601 259.373 238.441 259.608C238.292 259.843 237.988 259.96 237.529 259.96Z" fill="#074EE8"/>
<path d="M246.544 263H244.912V253.992H248.528C249.531 253.992 250.309 254.243 250.864 254.744C251.419 255.245 251.696 256.003 251.696 257.016C251.696 257.901 251.408 258.595 250.832 259.096C250.267 259.597 249.499 259.848 248.528 259.848H246.544V263ZM248.304 255.32H246.544V258.648H248.304C248.88 258.648 249.344 258.509 249.696 258.232C250.048 257.955 250.224 257.539 250.224 256.984C250.224 256.419 250.048 256.003 249.696 255.736C249.355 255.459 248.891 255.32 248.304 255.32ZM255.633 263.16C254.875 263.16 254.257 263 253.777 262.68C253.307 262.349 252.955 261.933 252.721 261.432C252.497 260.92 252.379 260.381 252.369 259.816C252.358 259.155 252.481 258.568 252.737 258.056C253.003 257.533 253.377 257.128 253.857 256.84C254.347 256.541 254.923 256.392 255.585 256.392C256.171 256.392 256.694 256.52 257.153 256.776C257.622 257.032 257.995 257.395 258.273 257.864C258.55 258.323 258.694 258.867 258.705 259.496C258.705 259.517 258.705 259.576 258.705 259.672C258.705 259.768 258.705 259.848 258.705 259.912H253.921C253.921 260.52 254.07 260.989 254.369 261.32C254.667 261.64 255.078 261.8 255.601 261.8C256.006 261.8 256.342 261.699 256.609 261.496C256.886 261.293 257.051 261.027 257.105 260.696H258.689C258.614 261.389 258.315 261.976 257.793 262.456C257.27 262.925 256.55 263.16 255.633 263.16ZM253.969 259.176H257.073C257.062 259.101 257.035 258.984 256.993 258.824C256.961 258.664 256.891 258.499 256.785 258.328C256.689 258.157 256.539 258.013 256.337 257.896C256.134 257.779 255.873 257.72 255.553 257.72C255.126 257.72 254.801 257.811 254.577 257.992C254.363 258.163 254.209 258.365 254.113 258.6C254.027 258.824 253.979 259.016 253.969 259.176ZM259.951 263V256.456H261.343L261.615 257.848H261.647C261.658 257.816 261.695 257.731 261.759 257.592C261.834 257.443 261.951 257.277 262.111 257.096C262.282 256.915 262.506 256.76 262.783 256.632C263.071 256.493 263.429 256.424 263.855 256.424C264.442 256.424 264.895 256.541 265.215 256.776C265.535 257.011 265.765 257.309 265.903 257.672C266.042 258.024 266.127 258.392 266.159 258.776C266.191 259.16 266.207 259.507 266.207 259.816V263H264.607V259.8C264.607 259.448 264.575 259.128 264.511 258.84C264.447 258.541 264.309 258.307 264.095 258.136C263.893 257.955 263.589 257.864 263.183 257.864C262.757 257.864 262.431 257.96 262.207 258.152C261.983 258.344 261.829 258.595 261.743 258.904C261.658 259.203 261.615 259.523 261.615 259.864V263H259.951ZM270.205 263.16C269.223 263.16 268.525 262.856 268.109 262.248C267.693 261.629 267.485 260.824 267.485 259.832C267.485 258.797 267.698 257.971 268.125 257.352C268.551 256.733 269.245 256.424 270.205 256.424C270.621 256.424 270.967 256.493 271.245 256.632C271.533 256.76 271.757 256.915 271.917 257.096C272.087 257.277 272.21 257.443 272.285 257.592C272.359 257.741 272.402 257.832 272.413 257.864H272.445V253.992H274.125V263H272.717L272.445 261.832H272.413C272.402 261.853 272.354 261.933 272.269 262.072C272.194 262.211 272.066 262.365 271.885 262.536C271.714 262.707 271.49 262.856 271.213 262.984C270.935 263.101 270.599 263.16 270.205 263.16ZM270.733 261.784C271.341 261.784 271.773 261.603 272.029 261.24C272.295 260.867 272.429 260.392 272.429 259.816C272.429 259.261 272.301 258.803 272.045 258.44C271.799 258.067 271.378 257.88 270.781 257.88C270.343 257.88 269.997 257.976 269.741 258.168C269.495 258.349 269.325 258.589 269.229 258.888C269.133 259.176 269.085 259.485 269.085 259.816C269.085 260.147 269.127 260.467 269.213 260.776C269.309 261.075 269.474 261.32 269.709 261.512C269.954 261.693 270.295 261.784 270.733 261.784ZM277.739 263.16C276.832 263.16 276.187 262.851 275.803 262.232C275.419 261.613 275.227 260.803 275.227 259.8C275.227 258.787 275.419 257.971 275.803 257.352C276.197 256.723 276.843 256.408 277.739 256.408C278.251 256.408 278.656 256.499 278.955 256.68C279.253 256.851 279.477 257.043 279.627 257.256C279.776 257.469 279.867 257.629 279.899 257.736H279.931V256.424H281.611V263H280.203L279.931 261.928H279.899C279.867 262.024 279.771 262.173 279.611 262.376C279.461 262.568 279.232 262.749 278.923 262.92C278.624 263.08 278.229 263.16 277.739 263.16ZM278.411 261.784C279.008 261.784 279.408 261.597 279.611 261.224C279.824 260.84 279.931 260.371 279.931 259.816C279.931 259.229 279.824 258.755 279.611 258.392C279.397 258.029 278.997 257.848 278.411 257.848C277.995 257.848 277.669 257.939 277.435 258.12C277.211 258.301 277.051 258.541 276.955 258.84C276.869 259.128 276.827 259.453 276.827 259.816C276.827 260.179 276.869 260.509 276.955 260.808C277.051 261.107 277.211 261.347 277.435 261.528C277.669 261.699 277.995 261.784 278.411 261.784ZM282.733 263V256.456H284.125L284.397 257.848H284.429C284.439 257.816 284.477 257.731 284.541 257.592C284.615 257.443 284.733 257.277 284.893 257.096C285.063 256.915 285.287 256.76 285.565 256.632C285.853 256.493 286.21 256.424 286.637 256.424C287.223 256.424 287.677 256.541 287.997 256.776C288.317 257.011 288.546 257.309 288.685 257.672C288.823 258.024 288.909 258.392 288.941 258.776C288.973 259.16 288.989 259.507 288.989 259.816V263H287.389V259.8C287.389 259.448 287.357 259.128 287.293 258.84C287.229 258.541 287.09 258.307 286.877 258.136C286.674 257.955 286.37 257.864 285.965 257.864C285.538 257.864 285.213 257.96 284.989 258.152C284.765 258.344 284.61 258.595 284.525 258.904C284.439 259.203 284.397 259.523 284.397 259.864V263H282.733ZM292.346 263C291.823 263 291.428 262.872 291.162 262.616C290.906 262.36 290.778 261.944 290.778 261.368V257.576H289.786V256.424C290.095 256.424 290.335 256.392 290.506 256.328C290.676 256.264 290.799 256.115 290.874 255.88C290.948 255.645 290.986 255.267 290.986 254.744H292.298V256.424H293.802V257.576H292.298V261.72H293.834V263H292.346Z" fill="#074EE8"/>
<path d="M318.333 146.333H251.667V154.667L275.875 172.833C268.528 175.256 262.444 180.497 258.959 187.403C255.474 194.31 254.875 202.318 257.292 209.667C258.487 213.307 260.389 216.676 262.888 219.581C265.387 222.485 268.434 224.869 271.855 226.595C275.276 228.321 279.004 229.356 282.825 229.64C286.647 229.924 290.486 229.451 294.125 228.25C299.96 226.332 305.041 222.621 308.643 217.645C312.245 212.67 314.184 206.684 314.184 200.542C314.184 194.399 312.245 188.414 308.643 183.438C305.041 178.463 299.96 174.751 294.125 172.833L318.333 154.667V146.333ZM297.25 219.25L285 212.083L272.75 219.25L276 205.375L265.208 196.042L279.417 194.833L285 181.75L290.583 194.833L304.792 196.042L294 205.375L297.25 219.25Z" fill="#074EE8"/>
<path d="M218 124H352V120H218V124ZM358 130V264H362V130H358ZM352 270H218V274H352V270ZM212 264V130H208V264H212ZM218 270C214.686 270 212 267.314 212 264H208C208 269.523 212.477 274 218 274V270ZM358 264C358 267.314 355.314 270 352 270V274C357.523 274 362 269.523 362 264H358ZM352 124C355.314 124 358 126.686 358 130H362C362 124.477 357.523 120 352 120V124ZM218 120C212.477 120 208 124.477 208 130H212C212 126.686 214.686 124 218 124V120Z" fill="#074EE8"/>
<path d="M384 130C384 125.582 387.582 122 392 122H526C530.418 122 534 125.582 534 130V264C534 268.418 530.418 272 526 272H392C387.582 272 384 268.418 384 264V130Z" fill="#EEEEEE"/>
<path d="M392 124H526V120H392V124ZM532 130V264H536V130H532ZM526 270H392V274H526V270ZM386 264V130H382V264H386ZM392 270C388.686 270 386 267.314 386 264H382C382 269.523 386.477 274 392 274V270ZM532 264C532 267.314 529.314 270 526 270V274C531.523 274 536 269.523 536 264H532ZM526 124C529.314 124 532 126.686 532 130H536C536 124.477 531.523 120 526 120V124ZM392 120C386.477 120 382 124.477 382 130H386C386 126.686 388.686 124 392 124V120Z" fill="#AAAAAA"/>
<path d="M558 130C558 125.582 561.582 122 566 122H700C704.418 122 708 125.582 708 130V264C708 268.418 704.418 272 700 272H566C561.582 272 558 268.418 558 264V130Z" fill="#EEEEEE"/>
<path d="M566 124H700V120H566V124ZM706 130V264H710V130H706ZM700 270H566V274H700V270ZM560 264V130H556V264H560ZM566 270C562.686 270 560 267.314 560 264H556C556 269.523 560.477 274 566 274V270ZM706 264C706 267.314 703.314 270 700 270V274C705.523 274 710 269.523 710 264H706ZM700 124C703.314 124 706 126.686 706 130H710C710 124.477 705.523 120 700 120V124ZM566 120C560.477 120 556 124.477 556 130H560C560 126.686 562.686 124 566 124V120Z" fill="#AAAAAA"/>
<path d="M36 304C36 299.582 39.5817 296 44 296H178C182.418 296 186 299.582 186 304V438C186 442.418 182.418 446 178 446H44C39.5817 446 36 442.418 36 438V304Z" fill="#EEEEEE"/>
<path d="M44 298H178V294H44V298ZM184 304V438H188V304H184ZM178 444H44V448H178V444ZM38 438V304H34V438H38ZM44 444C40.6863 444 38 441.314 38 438H34C34 443.523 38.4772 448 44 448V444ZM184 438C184 441.314 181.314 444 178 444V448C183.523 448 188 443.523 188 438H184ZM178 298C181.314 298 184 300.686 184 304H188C188 298.477 183.523 294 178 294V298ZM44 294C38.4772 294 34 298.477 34 304H38C38 300.686 40.6863 298 44 298V294Z" fill="#AAAAAA"/>
<path d="M210 304C210 299.582 213.582 296 218 296H352C356.418 296 360 299.582 360 304V438C360 442.418 356.418 446 352 446H218C213.582 446 210 442.418 210 438V304Z" fill="#EEEEEE"/>
<path d="M218 298H352V294H218V298ZM358 304V438H362V304H358ZM352 444H218V448H352V444ZM212 438V304H208V438H212ZM218 444C214.686 444 212 441.314 212 438H208C208 443.523 212.477 448 218 448V444ZM358 438C358 441.314 355.314 444 352 444V448C357.523 448 362 443.523 362 438H358ZM352 298C355.314 298 358 300.686 358 304H362C362 298.477 357.523 294 352 294V298ZM218 294C212.477 294 208 298.477 208 304H212C212 300.686 214.686 298 218 298V294Z" fill="#AAAAAA"/>
<path d="M384 304C384 299.582 387.582 296 392 296H526C530.418 296 534 299.582 534 304V438C534 442.418 530.418 446 526 446H392C387.582 446 384 442.418 384 438V304Z" fill="#EEEEEE"/>
<path d="M392 298H526V294H392V298ZM532 304V438H536V304H532ZM526 444H392V448H526V444ZM386 438V304H382V438H386ZM392 444C388.686 444 386 441.314 386 438H382C382 443.523 386.477 448 392 448V444ZM532 438C532 441.314 529.314 444 526 444V448C531.523 448 536 443.523 536 438H532ZM526 298C529.314 298 532 300.686 532 304H536C536 298.477 531.523 294 526 294V298ZM392 294C386.477 294 382 298.477 382 304H386C386 300.686 388.686 298 392 298V294Z" fill="#AAAAAA"/>
<path d="M558 304C558 299.582 561.582 296 566 296H700C704.418 296 708 299.582 708 304V438C708 442.418 704.418 446 700 446H566C561.582 446 558 442.418 558 438V304Z" fill="#EEEEEE"/>
<path d="M566 298H700V294H566V298ZM706 304V438H710V304H706ZM700 444H566V448H700V444ZM560 438V304H556V438H560ZM566 444C562.686 444 560 441.314 560 438H556C556 443.523 560.477 448 566 448V444ZM706 438C706 441.314 703.314 444 700 444V448C705.523 448 710 443.523 710 438H706ZM700 298C703.314 298 706 300.686 706 304H710C710 298.477 705.523 294 700 294V298ZM566 294C560.477 294 556 298.477 556 304H560C560 300.686 562.686 298 566 298V294Z" fill="#AAAAAA"/>
<path d="M36 478C36 473.582 39.5817 470 44 470H178C182.418 470 186 473.582 186 478V612C186 616.418 182.418 620 178 620H44C39.5817 620 36 616.418 36 612V478Z" fill="#EEEEEE"/>
<path d="M44 472H178V468H44V472ZM184 478V612H188V478H184ZM178 618H44V622H178V618ZM38 612V478H34V612H38ZM44 618C40.6863 618 38 615.314 38 612H34C34 617.523 38.4772 622 44 622V618ZM184 612C184 615.314 181.314 618 178 618V622C183.523 622 188 617.523 188 612H184ZM178 472C181.314 472 184 474.686 184 478H188C188 472.477 183.523 468 178 468V472ZM44 468C38.4772 468 34 472.477 34 478H38C38 474.686 40.6863 472 44 472V468Z" fill="#AAAAAA"/>
<path d="M210 478C210 473.582 213.582 470 218 470H352C356.418 470 360 473.582 360 478V612C360 616.418 356.418 620 352 620H218C213.582 620 210 616.418 210 612V478Z" fill="#EEEEEE"/>
<path d="M218 472H352V468H218V472ZM358 478V612H362V478H358ZM352 618H218V622H352V618ZM212 612V478H208V612H212ZM218 618C214.686 618 212 615.314 212 612H208C208 617.523 212.477 622 218 622V618ZM358 612C358 615.314 355.314 618 352 618V622C357.523 622 362 617.523 362 612H358ZM352 472C355.314 472 358 474.686 358 478H362C362 472.477 357.523 468 352 468V472ZM218 468C212.477 468 208 472.477 208 478H212C212 474.686 214.686 472 218 472V468Z" fill="#AAAAAA"/>
<path d="M384 478C384 473.582 387.582 470 392 470H526C530.418 470 534 473.582 534 478V612C534 616.418 530.418 620 526 620H392C387.582 620 384 616.418 384 612V478Z" fill="#EEEEEE"/>
<path d="M392 472H526V468H392V472ZM532 478V612H536V478H532ZM526 618H392V622H526V618ZM386 612V478H382V612H386ZM392 618C388.686 618 386 615.314 386 612H382C382 617.523 386.477 622 392 622V618ZM532 612C532 615.314 529.314 618 526 618V622C531.523 622 536 617.523 536 612H532ZM526 472C529.314 472 532 474.686 532 478H536C536 472.477 531.523 468 526 468V472ZM392 468C386.477 468 382 472.477 382 478H386C386 474.686 388.686 472 392 472V468Z" fill="#AAAAAA"/>
<path d="M558 478C558 473.582 561.582 470 566 470H700C704.418 470 708 473.582 708 478V612C708 616.418 704.418 620 700 620H566C561.582 620 558 616.418 558 612V478Z" fill="#EEEEEE"/>
<path d="M566 472H700V468H566V472ZM706 478V612H710V478H706ZM700 618H566V622H700V618ZM560 612V478H556V612H560ZM566 618C562.686 618 560 615.314 560 612H556C556 617.523 560.477 622 566 622V618ZM706 612C706 615.314 703.314 618 700 618V622C705.523 622 710 617.523 710 612H706ZM700 472C703.314 472 706 474.686 706 478H710C710 472.477 705.523 468 700 468V472ZM566 468C560.477 468 556 472.477 556 478H560C560 474.686 562.686 472 566 472V468Z" fill="#AAAAAA"/>
<path d="M36 652C36 647.582 39.5817 644 44 644H178C182.418 644 186 647.582 186 652V786C186 790.418 182.418 794 178 794H44C39.5817 794 36 790.418 36 786V652Z" fill="#EEEEEE"/>
<path d="M44 646H178V642H44V646ZM184 652V786H188V652H184ZM178 792H44V796H178V792ZM38 786V652H34V786H38ZM44 792C40.6863 792 38 789.314 38 786H34C34 791.523 38.4772 796 44 796V792ZM184 786C184 789.314 181.314 792 178 792V796C183.523 796 188 791.523 188 786H184ZM178 646C181.314 646 184 648.686 184 652H188C188 646.477 183.523 642 178 642V646ZM44 642C38.4772 642 34 646.477 34 652H38C38 648.686 40.6863 646 44 646V642Z" fill="#AAAAAA"/>
<path d="M210 652C210 647.582 213.582 644 218 644H352C356.418 644 360 647.582 360 652V786C360 790.418 356.418 794 352 794H218C213.582 794 210 790.418 210 786V652Z" fill="#EEEEEE"/>
<path d="M218 646H352V642H218V646ZM358 652V786H362V652H358ZM352 792H218V796H352V792ZM212 786V652H208V786H212ZM218 792C214.686 792 212 789.314 212 786H208C208 791.523 212.477 796 218 796V792ZM358 786C358 789.314 355.314 792 352 792V796C357.523 796 362 791.523 362 786H358ZM352 646C355.314 646 358 648.686 358 652H362C362 646.477 357.523 642 352 642V646ZM218 642C212.477 642 208 646.477 208 652H212C212 648.686 214.686 646 218 646V642Z" fill="#AAAAAA"/>
<path d="M384 652C384 647.582 387.582 644 392 644H526C530.418 644 534 647.582 534 652V786C534 790.418 530.418 794 526 794H392C387.582 794 384 790.418 384 786V652Z" fill="#EEEEEE"/>
<path d="M392 646H526V642H392V646ZM532 652V786H536V652H532ZM526 792H392V796H526V792ZM386 786V652H382V786H386ZM392 792C388.686 792 386 789.314 386 786H382C382 791.523 386.477 796 392 796V792ZM532 786C532 789.314 529.314 792 526 792V796C531.523 796 536 791.523 536 786H532ZM526 646C529.314 646 532 648.686 532 652H536C536 646.477 531.523 642 526 642V646ZM392 642C386.477 642 382 646.477 382 652H386C386 648.686 388.686 646 392 646V642Z" fill="#AAAAAA"/>
<path d="M558 652C558 647.582 561.582 644 566 644H700C704.418 644 708 647.582 708 652V786C708 790.418 704.418 794 700 794H566C561.582 794 558 790.418 558 786V652Z" fill="#EEEEEE"/>
<path d="M566 646H700V642H566V646ZM706 652V786H710V652H706ZM700 792H566V796H700V792ZM560 786V652H556V786H560ZM566 792C562.686 792 560 789.314 560 786H556C556 791.523 560.477 796 566 796V792ZM706 786C706 789.314 703.314 792 700 792V796C705.523 796 710 791.523 710 786H706ZM700 646C703.314 646 706 648.686 706 652H710C710 646.477 705.523 642 700 642V646ZM566 642C560.477 642 556 646.477 556 652H560C560 648.686 562.686 646 566 646V642Z" fill="#AAAAAA"/>
<rect width="744" height="114" fill="#EEEEEE"/>
<path d="M42.156 70.5V63.336L35.244 50.232H39.348L44.064 60.132L48.708 50.232H52.812L45.792 63.3V70.5H42.156ZM59.3277 70.86C57.6477 70.86 56.2557 70.536 55.1517 69.888C54.0477 69.24 53.2197 68.352 52.6677 67.224C52.1157 66.072 51.8397 64.764 51.8397 63.3C51.8157 61.092 52.4277 59.28 53.6757 57.864C54.9477 56.424 56.8317 55.704 59.3277 55.704C61.7517 55.704 63.5877 56.4 64.8357 57.792C66.1077 59.184 66.7437 61.02 66.7437 63.3C66.7437 64.716 66.4797 66 65.9517 67.152C65.4237 68.304 64.6077 69.216 63.5037 69.888C62.3997 70.536 61.0077 70.86 59.3277 70.86ZM59.3277 67.764C60.3837 67.764 61.1877 67.536 61.7397 67.08C62.3157 66.624 62.6997 66.048 62.8917 65.352C63.0837 64.632 63.1797 63.912 63.1797 63.192C63.1797 62.448 63.0837 61.716 62.8917 60.996C62.6997 60.276 62.3157 59.688 61.7397 59.232C61.1877 58.776 60.3837 58.548 59.3277 58.548C58.2477 58.548 57.4197 58.788 56.8437 59.268C56.2917 59.724 55.9077 60.312 55.6917 61.032C55.4997 61.728 55.4037 62.448 55.4037 63.192C55.4037 63.912 55.4997 64.632 55.6917 65.352C55.9077 66.048 56.2917 66.624 56.8437 67.08C57.4197 67.536 58.2477 67.764 59.3277 67.764ZM74.4722 70.86C73.1762 70.86 72.1682 70.608 71.4482 70.104C70.7282 69.6 70.2002 68.952 69.8642 68.16C69.5522 67.368 69.3602 66.54 69.2882 65.676C69.2162 64.788 69.1802 63.984 69.1802 63.264V55.704H72.7442V63.264C72.7442 64.008 72.8162 64.716 72.9602 65.388C73.1042 66.06 73.4042 66.6 73.8602 67.008C74.3402 67.416 75.0602 67.62 76.0202 67.62C76.9562 67.62 77.6642 67.416 78.1442 67.008C78.6242 66.576 78.9482 66.036 79.1162 65.388C79.2842 64.74 79.3802 64.068 79.4042 63.372L79.4402 55.704H83.1842V70.5H80.0522L79.4402 67.692H79.3682C79.3202 67.836 79.2002 68.076 79.0082 68.412C78.8162 68.748 78.5282 69.108 78.1442 69.492C77.7842 69.876 77.3042 70.2 76.7042 70.464C76.1042 70.728 75.3602 70.86 74.4722 70.86ZM86.0979 70.5V55.704H89.5179L89.7699 59.808C89.9139 59.184 90.1899 58.56 90.5979 57.936C91.0299 57.288 91.6179 56.76 92.3619 56.352C93.1299 55.92 94.1139 55.704 95.3139 55.704H95.8539V59.808H95.3139C93.2499 59.808 91.8099 60.144 90.9939 60.816C90.1779 61.464 89.7699 62.568 89.7699 64.128V70.5H86.0979ZM115.786 67.368V70.5H106.75V67.368H109.486V53.4H106.75V50.232H115.786V53.4H113.122V67.368H115.786ZM119.527 70.5V55.776H122.659L123.271 58.908H123.343C123.367 58.836 123.451 58.644 123.595 58.332C123.763 57.996 124.027 57.624 124.387 57.216C124.771 56.808 125.275 56.46 125.899 56.172C126.547 55.86 127.351 55.704 128.311 55.704C129.631 55.704 130.651 55.968 131.371 56.496C132.091 57.024 132.607 57.696 132.919 58.512C133.231 59.304 133.423 60.132 133.495 60.996C133.567 61.86 133.603 62.64 133.603 63.336V70.5H130.003V63.3C130.003 62.508 129.931 61.788 129.787 61.14C129.643 60.468 129.331 59.94 128.851 59.556C128.395 59.148 127.711 58.944 126.799 58.944C125.839 58.944 125.107 59.16 124.603 59.592C124.099 60.024 123.751 60.588 123.559 61.284C123.367 61.956 123.271 62.676 123.271 63.444V70.5H119.527ZM146.521 55.704H150.121V56.316L145.045 70.5H139.933L134.857 56.352V55.704H138.385L142.525 67.476H142.597L146.521 55.704ZM158.713 70.86C157.009 70.86 155.617 70.5 154.537 69.78C153.481 69.036 152.689 68.1 152.161 66.972C151.657 65.82 151.393 64.608 151.369 63.336C151.345 61.848 151.621 60.528 152.197 59.376C152.797 58.2 153.637 57.288 154.717 56.64C155.821 55.968 157.117 55.632 158.605 55.632C159.925 55.632 161.101 55.92 162.133 56.496C163.189 57.072 164.029 57.888 164.653 58.944C165.277 59.976 165.601 61.2 165.625 62.616C165.625 62.664 165.625 62.796 165.625 63.012C165.625 63.228 165.625 63.408 165.625 63.552H154.861C154.861 64.92 155.197 65.976 155.869 66.72C156.541 67.44 157.465 67.8 158.641 67.8C159.553 67.8 160.309 67.572 160.909 67.116C161.533 66.66 161.905 66.06 162.025 65.316H165.589C165.421 66.876 164.749 68.196 163.573 69.276C162.397 70.332 160.777 70.86 158.713 70.86ZM154.969 61.896H161.953C161.929 61.728 161.869 61.464 161.773 61.104C161.701 60.744 161.545 60.372 161.305 59.988C161.089 59.604 160.753 59.28 160.297 59.016C159.841 58.752 159.253 58.62 158.533 58.62C157.573 58.62 156.841 58.824 156.337 59.232C155.857 59.616 155.509 60.072 155.293 60.6C155.101 61.104 154.993 61.536 154.969 61.896ZM168.43 70.5V55.776H171.562L172.174 58.908H172.246C172.27 58.836 172.354 58.644 172.498 58.332C172.666 57.996 172.93 57.624 173.29 57.216C173.674 56.808 174.178 56.46 174.802 56.172C175.45 55.86 176.254 55.704 177.214 55.704C178.534 55.704 179.554 55.968 180.274 56.496C180.994 57.024 181.51 57.696 181.822 58.512C182.134 59.304 182.326 60.132 182.398 60.996C182.47 61.86 182.506 62.64 182.506 63.336V70.5H178.906V63.3C178.906 62.508 178.834 61.788 178.69 61.14C178.546 60.468 178.234 59.94 177.754 59.556C177.298 59.148 176.614 58.944 175.702 58.944C174.742 58.944 174.01 59.16 173.506 59.592C173.002 60.024 172.654 60.588 172.462 61.284C172.27 61.956 172.174 62.676 172.174 63.444V70.5H168.43ZM190.059 70.5C188.883 70.5 187.995 70.212 187.395 69.636C186.819 69.06 186.531 68.124 186.531 66.828V58.296H184.299V55.704C184.995 55.704 185.535 55.632 185.919 55.488C186.303 55.344 186.579 55.008 186.747 54.48C186.915 53.952 186.999 53.1 186.999 51.924H189.951V55.704H193.335V58.296H189.951V67.62H193.407V70.5H190.059ZM202.906 70.86C201.226 70.86 199.834 70.536 198.73 69.888C197.626 69.24 196.798 68.352 196.246 67.224C195.694 66.072 195.418 64.764 195.418 63.3C195.394 61.092 196.006 59.28 197.254 57.864C198.526 56.424 200.41 55.704 202.906 55.704C205.33 55.704 207.166 56.4 208.414 57.792C209.686 59.184 210.322 61.02 210.322 63.3C210.322 64.716 210.058 66 209.53 67.152C209.002 68.304 208.186 69.216 207.082 69.888C205.978 70.536 204.586 70.86 202.906 70.86ZM202.906 67.764C203.962 67.764 204.766 67.536 205.318 67.08C205.894 66.624 206.278 66.048 206.47 65.352C206.662 64.632 206.758 63.912 206.758 63.192C206.758 62.448 206.662 61.716 206.47 60.996C206.278 60.276 205.894 59.688 205.318 59.232C204.766 58.776 203.962 58.548 202.906 58.548C201.826 58.548 200.998 58.788 200.422 59.268C199.87 59.724 199.486 60.312 199.27 61.032C199.078 61.728 198.982 62.448 198.982 63.192C198.982 63.912 199.078 64.632 199.27 65.352C199.486 66.048 199.87 66.624 200.422 67.08C200.998 67.536 201.826 67.764 202.906 67.764ZM213.082 70.5V55.704H216.502L216.754 59.808C216.898 59.184 217.174 58.56 217.582 57.936C218.014 57.288 218.602 56.76 219.346 56.352C220.114 55.92 221.098 55.704 222.298 55.704H222.838V59.808H222.298C220.234 59.808 218.794 60.144 217.978 60.816C217.162 61.464 216.754 62.568 216.754 64.128V70.5H213.082ZM224.19 77.376V74.532H226.458C226.818 74.532 227.13 74.496 227.394 74.424C227.658 74.352 227.922 74.16 228.186 73.848C228.45 73.56 228.75 73.08 229.086 72.408L230.058 70.248L224.298 55.704H228.078L231.858 66.468L235.926 55.704H239.706L232.434 72.768C231.858 74.112 231.33 75.108 230.85 75.756C230.37 76.428 229.83 76.86 229.23 77.052C228.654 77.268 227.91 77.376 226.998 77.376H224.19Z" fill="#074EE8"/>
<path d="M658 40C658 35.5817 661.582 32 666 32H700C704.418 32 708 35.5817 708 40V74C708 78.4183 704.418 82 700 82H666C661.582 82 658 78.4183 658 74V40Z" fill="#E0EAFF"/>
<path d="M690 51.41L688.59 50L683 55.59L677.41 50L676 51.41L681.59 57L676 62.59L677.41 64L683 58.41L688.59 64L690 62.59L684.41 57L690 51.41Z" fill="#074EE8"/>
</g>
<defs>
<clipPath id="clip0_2_3">
<rect width="744" height="713" fill="white"/>
</clipPath>
</defs>
</svg>
