<svg width="250" height="250" viewBox="0 0 250 250" fill="none" xmlns="http://www.w3.org/2000/svg">
<rect width="250" height="250" fill="#262626"/>
<path d="M8.602 17V15.6C8.61133 15.5907 8.73267 15.5347 8.966 15.432C9.19933 15.32 9.49333 15.1707 9.848 14.984C10.2027 14.7973 10.576 14.5733 10.968 14.312C11.36 14.0507 11.724 13.766 12.06 13.458C12.396 13.1407 12.6527 12.8047 12.83 12.45C13.026 12.0393 13.0867 11.68 13.012 11.372C12.9467 11.064 12.788 10.8307 12.536 10.672C12.2933 10.504 12.0133 10.42 11.696 10.42C11.2107 10.42 10.828 10.5927 10.548 10.938C10.2773 11.274 10.198 11.7967 10.31 12.506L8.742 12.282C8.64867 11.5913 8.728 11.0033 8.98 10.518C9.24133 10.0233 9.624 9.65 10.128 9.398C10.632 9.13667 11.2107 9.006 11.864 9.006C12.368 9.006 12.8253 9.09933 13.236 9.286C13.656 9.47267 13.992 9.734 14.244 10.07C14.5053 10.3967 14.6547 10.7747 14.692 11.204C14.7387 11.6333 14.6453 12.0907 14.412 12.576C14.216 12.9587 13.964 13.304 13.656 13.612C13.3573 13.9107 13.0307 14.1767 12.676 14.41C12.3307 14.6433 11.99 14.844 11.654 15.012C11.3273 15.1707 11.038 15.2967 10.786 15.39C10.5433 15.474 10.3753 15.53 10.282 15.558H14.832V17H8.602ZM19.3848 17.196C18.1995 17.196 17.3175 16.8273 16.7388 16.09C16.1602 15.3433 15.8708 14.34 15.8708 13.08C15.8708 12.2493 15.9922 11.5307 16.2348 10.924C16.4868 10.308 16.8695 9.832 17.3828 9.496C17.9055 9.15067 18.5728 8.978 19.3848 8.978C20.5888 8.978 21.4755 9.35133 22.0448 10.098C22.6142 10.8353 22.8988 11.8293 22.8988 13.08C22.8988 13.892 22.7728 14.6107 22.5208 15.236C22.2688 15.852 21.8815 16.3327 21.3588 16.678C20.8455 17.0233 20.1875 17.196 19.3848 17.196ZM19.3708 15.796C20.0428 15.796 20.5375 15.572 20.8548 15.124C21.1722 14.6667 21.3308 13.9853 21.3308 13.08C21.3308 12.1747 21.1722 11.498 20.8548 11.05C20.5468 10.602 20.0522 10.378 19.3708 10.378C18.7175 10.378 18.2322 10.5973 17.9148 11.036C17.5975 11.4653 17.4388 12.1467 17.4388 13.08C17.4388 13.9853 17.5928 14.6667 17.9008 15.124C18.2088 15.572 18.6988 15.796 19.3708 15.796ZM25.0488 13.486C24.6662 13.486 24.4048 13.3927 24.2648 13.206C24.1342 13.0193 24.0688 12.7907 24.0688 12.52C24.0688 12.2587 24.1342 12.0347 24.2648 11.848C24.4048 11.6613 24.6662 11.568 25.0488 11.568C25.4222 11.568 25.6742 11.666 25.8048 11.862C25.9355 12.0487 26.0008 12.268 26.0008 12.52C26.0008 12.7907 25.9355 13.0193 25.8048 13.206C25.6742 13.3927 25.4222 13.486 25.0488 13.486ZM25.0488 16.65C24.6568 16.65 24.3955 16.5567 24.2648 16.37C24.1342 16.174 24.0688 15.9407 24.0688 15.67C24.0688 15.4087 24.1342 15.1893 24.2648 15.012C24.3955 14.8253 24.6568 14.732 25.0488 14.732C25.4222 14.732 25.6742 14.8253 25.8048 15.012C25.9355 15.1893 26.0008 15.4087 26.0008 15.67C26.0008 15.9407 25.9355 16.174 25.8048 16.37C25.6742 16.5567 25.4222 16.65 25.0488 16.65ZM30.6915 17.196C29.5062 17.196 28.6242 16.8273 28.0455 16.09C27.4668 15.3433 27.1775 14.34 27.1775 13.08C27.1775 12.2493 27.2988 11.5307 27.5415 10.924C27.7935 10.308 28.1762 9.832 28.6895 9.496C29.2122 9.15067 29.8795 8.978 30.6915 8.978C31.8955 8.978 32.7822 9.35133 33.3515 10.098C33.9208 10.8353 34.2055 11.8293 34.2055 13.08C34.2055 13.892 34.0795 14.6107 33.8275 15.236C33.5755 15.852 33.1882 16.3327 32.6655 16.678C32.1522 17.0233 31.4942 17.196 30.6915 17.196ZM30.6775 15.796C31.3495 15.796 31.8442 15.572 32.1615 15.124C32.4788 14.6667 32.6375 13.9853 32.6375 13.08C32.6375 12.1747 32.4788 11.498 32.1615 11.05C31.8535 10.602 31.3588 10.378 30.6775 10.378C30.0242 10.378 29.5388 10.5973 29.2215 11.036C28.9042 11.4653 28.7455 12.1467 28.7455 13.08C28.7455 13.9853 28.8995 14.6667 29.2075 15.124C29.5155 15.572 30.0055 15.796 30.6775 15.796ZM35.0675 15.516V14.074C35.5528 13.8687 35.9821 13.5747 36.3555 13.192C36.7288 12.8093 37.0415 12.3847 37.2935 11.918C37.5455 11.442 37.7321 10.9613 37.8535 10.476C37.9841 9.99067 38.0495 9.538 38.0495 9.118H39.8835C39.8835 9.678 39.7575 10.266 39.5055 10.882C39.2628 11.4887 38.9035 12.072 38.4275 12.632C37.9608 13.1827 37.3961 13.6633 36.7335 14.074H38.9735V13.066H40.6675V14.074H41.5915V15.516H40.6675V17H38.9735V15.516H35.0675Z" fill="white"/>
<path d="M164.313 17.196C163.127 17.196 162.245 16.8273 161.667 16.09C161.088 15.3433 160.799 14.34 160.799 13.08C160.799 12.2493 160.92 11.5307 161.163 10.924C161.415 10.308 161.797 9.832 162.311 9.496C162.833 9.15067 163.501 8.978 164.313 8.978C165.517 8.978 166.403 9.35133 166.973 10.098C167.542 10.8353 167.827 11.8293 167.827 13.08C167.827 13.892 167.701 14.6107 167.449 15.236C167.197 15.852 166.809 16.3327 166.287 16.678C165.773 17.0233 165.115 17.196 164.313 17.196ZM164.299 15.796C164.971 15.796 165.465 15.572 165.783 15.124C166.1 14.6667 166.259 13.9853 166.259 13.08C166.259 12.1747 166.1 11.498 165.783 11.05C165.475 10.602 164.98 10.378 164.299 10.378C163.645 10.378 163.16 10.5973 162.843 11.036C162.525 11.4653 162.367 12.1467 162.367 13.08C162.367 13.9853 162.521 14.6667 162.829 15.124C163.137 15.572 163.627 15.796 164.299 15.796ZM177.256 9.118H179.02V17H175.786L173.7 9.86H173.672V17H171.922V9.118H174.918L177.228 16.258H177.256V9.118ZM183.097 17.14C182.425 17.14 181.869 17.014 181.431 16.762C180.992 16.51 180.661 16.16 180.437 15.712C180.222 15.264 180.115 14.7553 180.115 14.186C180.096 13.3273 180.339 12.618 180.843 12.058C181.347 11.498 182.098 11.218 183.097 11.218C184.067 11.218 184.805 11.4887 185.309 12.03C185.813 12.5713 186.065 13.29 186.065 14.186C186.065 14.746 185.957 15.25 185.743 15.698C185.528 16.1367 185.201 16.4867 184.763 16.748C184.324 17.0093 183.769 17.14 183.097 17.14ZM183.097 15.726C183.479 15.726 183.764 15.6467 183.951 15.488C184.147 15.3293 184.277 15.1287 184.343 14.886C184.408 14.634 184.441 14.382 184.441 14.13C184.441 13.8687 184.408 13.6167 184.343 13.374C184.277 13.122 184.147 12.9167 183.951 12.758C183.764 12.59 183.479 12.506 183.097 12.506C182.714 12.506 182.425 12.59 182.229 12.758C182.033 12.9167 181.902 13.122 181.837 13.374C181.771 13.6167 181.739 13.8687 181.739 14.13C181.739 14.382 181.771 14.634 181.837 14.886C181.902 15.1287 182.033 15.3293 182.229 15.488C182.425 15.6467 182.714 15.726 183.097 15.726ZM189.151 17C188.647 17 188.255 16.8787 187.975 16.636C187.695 16.3933 187.555 15.9733 187.555 15.376V12.394H186.729V11.232C186.972 11.232 187.168 11.204 187.317 11.148C187.476 11.0827 187.593 10.9473 187.667 10.742C187.751 10.5273 187.793 10.2007 187.793 9.762H189.137V11.232H190.453V12.394H189.137V15.698H190.481V17H189.151ZM192.586 10.574C192.24 10.5833 192.007 10.504 191.886 10.336C191.774 10.1587 191.718 9.94867 191.718 9.706C191.718 9.47267 191.774 9.272 191.886 9.104C192.007 8.936 192.24 8.852 192.586 8.852C192.922 8.852 193.146 8.936 193.258 9.104C193.379 9.272 193.44 9.47267 193.44 9.706C193.44 9.958 193.379 10.168 193.258 10.336C193.146 10.4947 192.922 10.574 192.586 10.574ZM191.746 17V11.232H193.44V17H191.746ZM195.129 17.014V12.394H194.387V11.232H195.129V10.434C195.129 9.83667 195.269 9.41667 195.549 9.174C195.829 8.93133 196.221 8.81 196.725 8.81H198.153V10.126H196.809V11.232H198.125V12.394H196.809V17.014H195.129ZM200.351 10.574C200.006 10.5833 199.773 10.504 199.651 10.336C199.539 10.1587 199.483 9.94867 199.483 9.706C199.483 9.47267 199.539 9.272 199.651 9.104C199.773 8.936 200.006 8.852 200.351 8.852C200.687 8.852 200.911 8.936 201.023 9.104C201.145 9.272 201.205 9.47267 201.205 9.706C201.205 9.958 201.145 10.168 201.023 10.336C200.911 10.4947 200.687 10.574 200.351 10.574ZM199.511 17V11.232H201.205V17H199.511ZM205.26 17.14C204.719 17.14 204.22 17.0327 203.762 16.818C203.314 16.594 202.955 16.2673 202.684 15.838C202.423 15.3993 202.292 14.858 202.292 14.214C202.302 13.5887 202.437 13.052 202.698 12.604C202.969 12.1467 203.324 11.8013 203.762 11.568C204.21 11.3253 204.714 11.204 205.274 11.204C205.89 11.204 206.408 11.3207 206.828 11.554C207.248 11.7873 207.566 12.086 207.78 12.45C208.004 12.814 208.126 13.1873 208.144 13.57H206.604C206.483 12.954 206.063 12.646 205.344 12.646C204.878 12.646 204.523 12.7813 204.28 13.052C204.047 13.3133 203.93 13.654 203.93 14.074C203.93 14.5687 204.047 14.9607 204.28 15.25C204.514 15.5393 204.873 15.684 205.358 15.684C205.657 15.684 205.923 15.6047 206.156 15.446C206.39 15.278 206.539 15.026 206.604 14.69H208.144C208.126 15.0913 208.004 15.4833 207.78 15.866C207.566 16.2393 207.244 16.5473 206.814 16.79C206.394 17.0233 205.876 17.14 205.26 17.14ZM211.05 17.14C210.257 17.14 209.701 16.874 209.384 16.342C209.067 15.8007 208.908 15.0867 208.908 14.2C208.908 13.304 209.067 12.5853 209.384 12.044C209.711 11.4933 210.266 11.218 211.05 11.218C211.405 11.218 211.699 11.2693 211.932 11.372C212.165 11.4653 212.352 11.582 212.492 11.722C212.632 11.862 212.73 11.9927 212.786 12.114C212.851 12.226 212.893 12.296 212.912 12.324H212.94V11.232H214.676V17H213.206L212.94 16.132H212.912C212.893 16.1787 212.823 16.286 212.702 16.454C212.59 16.6127 212.399 16.7667 212.128 16.916C211.867 17.0653 211.507 17.14 211.05 17.14ZM211.75 15.726C212.086 15.726 212.338 15.656 212.506 15.516C212.674 15.376 212.786 15.194 212.842 14.97C212.898 14.7367 212.926 14.4847 212.926 14.214C212.926 13.934 212.898 13.682 212.842 13.458C212.786 13.2247 212.674 13.0427 212.506 12.912C212.338 12.772 212.086 12.702 211.75 12.702C211.414 12.702 211.157 12.772 210.98 12.912C210.812 13.052 210.7 13.2387 210.644 13.472C210.588 13.696 210.56 13.9433 210.56 14.214C210.56 14.4847 210.588 14.7367 210.644 14.97C210.7 15.194 210.812 15.376 210.98 15.516C211.157 15.656 211.414 15.726 211.75 15.726ZM217.739 17C217.235 17 216.843 16.8787 216.563 16.636C216.283 16.3933 216.143 15.9733 216.143 15.376V12.394H215.317V11.232C215.56 11.232 215.756 11.204 215.905 11.148C216.064 11.0827 216.18 10.9473 216.255 10.742C216.339 10.5273 216.381 10.2007 216.381 9.762H217.725V11.232H219.041V12.394H217.725V15.698H219.069V17H217.739ZM221.173 10.574C220.828 10.5833 220.595 10.504 220.473 10.336C220.361 10.1587 220.305 9.94867 220.305 9.706C220.305 9.47267 220.361 9.272 220.473 9.104C220.595 8.936 220.828 8.852 221.173 8.852C221.509 8.852 221.733 8.936 221.845 9.104C221.967 9.272 222.027 9.47267 222.027 9.706C222.027 9.958 221.967 10.168 221.845 10.336C221.733 10.4947 221.509 10.574 221.173 10.574ZM220.333 17V11.232H222.027V17H220.333ZM226.013 17.14C225.341 17.14 224.785 17.014 224.347 16.762C223.908 16.51 223.577 16.16 223.353 15.712C223.138 15.264 223.031 14.7553 223.031 14.186C223.012 13.3273 223.255 12.618 223.759 12.058C224.263 11.498 225.014 11.218 226.013 11.218C226.983 11.218 227.721 11.4887 228.225 12.03C228.729 12.5713 228.981 13.29 228.981 14.186C228.981 14.746 228.873 15.25 228.659 15.698C228.444 16.1367 228.117 16.4867 227.679 16.748C227.24 17.0093 226.685 17.14 226.013 17.14ZM226.013 15.726C226.395 15.726 226.68 15.6467 226.867 15.488C227.063 15.3293 227.193 15.1287 227.259 14.886C227.324 14.634 227.357 14.382 227.357 14.13C227.357 13.8687 227.324 13.6167 227.259 13.374C227.193 13.122 227.063 12.9167 226.867 12.758C226.68 12.59 226.395 12.506 226.013 12.506C225.63 12.506 225.341 12.59 225.145 12.758C224.949 12.9167 224.818 13.122 224.753 13.374C224.687 13.6167 224.655 13.8687 224.655 14.13C224.655 14.382 224.687 14.634 224.753 14.886C224.818 15.1287 224.949 15.3293 225.145 15.488C225.341 15.6467 225.63 15.726 226.013 15.726ZM229.953 17V11.246H231.409L231.689 12.38H231.717C231.727 12.3707 231.759 12.3053 231.815 12.184C231.871 12.0627 231.965 11.932 232.095 11.792C232.235 11.6427 232.427 11.512 232.669 11.4C232.912 11.288 233.22 11.232 233.593 11.232C234.116 11.232 234.513 11.3393 234.783 11.554C235.063 11.7687 235.259 12.0393 235.371 12.366C235.493 12.6833 235.558 13.01 235.567 13.346C235.586 13.682 235.595 13.9713 235.595 14.214V17H233.957V14.2C233.957 13.948 233.934 13.71 233.887 13.486C233.841 13.262 233.738 13.08 233.579 12.94C233.421 12.7907 233.173 12.716 232.837 12.716C232.501 12.716 232.249 12.7907 232.081 12.94C231.923 13.0893 231.815 13.2807 231.759 13.514C231.713 13.7473 231.689 13.9853 231.689 14.228V17H229.953ZM239.131 17.14C238.963 17.14 238.73 17.112 238.431 17.056C238.142 17 237.843 16.8973 237.535 16.748C237.237 16.5987 236.98 16.384 236.765 16.104C236.56 15.8147 236.457 15.4413 236.457 14.984H238.011C238.011 14.9933 238.016 15.0493 238.025 15.152C238.035 15.2453 238.067 15.3527 238.123 15.474C238.179 15.5953 238.282 15.7027 238.431 15.796C238.581 15.88 238.8 15.922 239.089 15.922C239.425 15.922 239.659 15.8613 239.789 15.74C239.92 15.6187 239.985 15.4973 239.985 15.376C239.985 15.208 239.901 15.0727 239.733 14.97C239.575 14.8673 239.365 14.7833 239.103 14.718C238.842 14.6433 238.562 14.564 238.263 14.48C237.974 14.3867 237.699 14.2747 237.437 14.144C237.185 14.004 236.975 13.8173 236.807 13.584C236.639 13.3507 236.56 13.052 236.569 12.688C236.569 12.128 236.784 11.7127 237.213 11.442C237.652 11.162 238.207 11.022 238.879 11.022C239.383 11.022 239.841 11.106 240.251 11.274C240.671 11.4327 241.003 11.6753 241.245 12.002C241.488 12.3287 241.614 12.7393 241.623 13.234H240.083C240.093 12.982 240.037 12.7907 239.915 12.66C239.803 12.52 239.659 12.4267 239.481 12.38C239.304 12.324 239.127 12.296 238.949 12.296C238.641 12.296 238.422 12.352 238.291 12.464C238.17 12.5667 238.109 12.6833 238.109 12.814C238.109 13.01 238.193 13.164 238.361 13.276C238.529 13.3787 238.744 13.4673 239.005 13.542C239.276 13.6167 239.561 13.696 239.859 13.78C240.158 13.864 240.438 13.9713 240.699 14.102C240.961 14.2327 241.175 14.41 241.343 14.634C241.521 14.8487 241.609 15.1333 241.609 15.488C241.609 16.0387 241.385 16.454 240.937 16.734C240.489 17.0047 239.887 17.14 239.131 17.14Z" fill="white"/>
<path d="M16.92 223H15L24 232L25 231.06M29.96 237.12L29.12 237.96C29.0275 238.053 28.9176 238.126 28.7966 238.176C28.6757 238.227 28.546 238.252 28.415 238.252C28.284 238.252 28.1543 238.227 28.0334 238.176C27.9124 238.126 27.8025 238.053 27.71 237.96L24.59 234.84L21.91 237.5L20.5 236.09L21.92 234.67L13 225.75V221H17.75L26.67 229.92L28.09 228.5L29.5 229.91L26.83 232.58L29.95 235.7C30.35 236.1 30.35 236.73 29.96 237.12V237.12Z" fill="#BC31EA"/>
<path d="M38.2784 235.5V223.864H40.0341V229.42H40.1761L45.0568 223.864H47.267L42.5739 229.102L47.2841 235.5H45.1705L41.4091 230.301L40.0341 231.881V235.5H38.2784ZM51.8878 235.676C51.0279 235.676 50.2874 235.492 49.6662 235.125C49.0488 234.754 48.5715 234.233 48.2344 233.562C47.901 232.888 47.7344 232.098 47.7344 231.193C47.7344 230.299 47.901 229.511 48.2344 228.83C48.5715 228.148 49.0412 227.616 49.6435 227.233C50.2495 226.85 50.9579 226.659 51.7685 226.659C52.2609 226.659 52.7382 226.741 53.2003 226.903C53.6624 227.066 54.0772 227.322 54.4446 227.67C54.812 228.019 55.1018 228.472 55.3139 229.028C55.526 229.581 55.6321 230.254 55.6321 231.045V231.648H48.6946V230.375H53.9673C53.9673 229.928 53.8764 229.532 53.6946 229.188C53.5128 228.839 53.2571 228.564 52.9276 228.364C52.6018 228.163 52.2192 228.062 51.7798 228.062C51.3026 228.062 50.8859 228.18 50.5298 228.415C50.1776 228.646 49.9048 228.949 49.7116 229.324C49.5223 229.695 49.4276 230.098 49.4276 230.534V231.528C49.4276 232.112 49.5298 232.608 49.7344 233.017C49.9427 233.426 50.2325 233.739 50.6037 233.955C50.9749 234.167 51.4086 234.273 51.9048 234.273C52.2268 234.273 52.5204 234.227 52.7855 234.136C53.0507 234.042 53.2798 233.902 53.473 233.716C53.6662 233.53 53.8139 233.301 53.9162 233.028L55.5241 233.318C55.3954 233.792 55.1643 234.206 54.831 234.562C54.5014 234.915 54.0866 235.189 53.5866 235.386C53.0904 235.58 52.5241 235.676 51.8878 235.676ZM57.517 235.5V226.773H59.1591V228.159H59.25C59.4091 227.689 59.6894 227.32 60.0909 227.051C60.4962 226.778 60.9545 226.642 61.4659 226.642C61.572 226.642 61.697 226.646 61.8409 226.653C61.9886 226.661 62.1042 226.67 62.1875 226.682V228.307C62.1193 228.288 61.9981 228.267 61.8239 228.244C61.6496 228.218 61.4754 228.205 61.3011 228.205C60.8996 228.205 60.5417 228.29 60.2273 228.46C59.9167 228.627 59.6705 228.86 59.4886 229.159C59.3068 229.455 59.2159 229.792 59.2159 230.17V235.5H57.517ZM63.6577 235.5V226.773H65.3565V235.5H63.6577ZM64.5156 225.426C64.2202 225.426 63.9664 225.328 63.7543 225.131C63.5459 224.93 63.4418 224.691 63.4418 224.415C63.4418 224.134 63.5459 223.896 63.7543 223.699C63.9664 223.498 64.2202 223.398 64.5156 223.398C64.8111 223.398 65.063 223.498 65.2713 223.699C65.4834 223.896 65.5895 224.134 65.5895 224.415C65.5895 224.691 65.4834 224.93 65.2713 225.131C65.063 225.328 64.8111 225.426 64.5156 225.426ZM74.1818 228.903L72.642 229.176C72.5777 228.979 72.4754 228.792 72.3352 228.614C72.1989 228.436 72.0133 228.29 71.7784 228.176C71.5436 228.062 71.25 228.006 70.8977 228.006C70.4167 228.006 70.0152 228.114 69.6932 228.33C69.3712 228.542 69.2102 228.816 69.2102 229.153C69.2102 229.445 69.3182 229.68 69.5341 229.858C69.75 230.036 70.0985 230.182 70.5795 230.295L71.9659 230.614C72.7689 230.799 73.3674 231.085 73.7614 231.472C74.1553 231.858 74.3523 232.36 74.3523 232.977C74.3523 233.5 74.2008 233.966 73.8977 234.375C73.5985 234.78 73.1799 235.098 72.642 235.33C72.108 235.561 71.4886 235.676 70.7841 235.676C69.8068 235.676 69.0095 235.468 68.392 235.051C67.7746 234.631 67.3958 234.034 67.2557 233.261L68.8977 233.011C69 233.439 69.2102 233.763 69.5284 233.983C69.8466 234.199 70.2614 234.307 70.7727 234.307C71.3295 234.307 71.7746 234.191 72.108 233.96C72.4413 233.725 72.608 233.439 72.608 233.102C72.608 232.83 72.5057 232.6 72.3011 232.415C72.1004 232.229 71.7917 232.089 71.375 231.994L69.8977 231.67C69.0833 231.485 68.4811 231.189 68.0909 230.784C67.7045 230.379 67.5114 229.866 67.5114 229.244C67.5114 228.729 67.6553 228.278 67.9432 227.892C68.2311 227.506 68.6288 227.205 69.1364 226.989C69.6439 226.769 70.2254 226.659 70.8807 226.659C71.8239 226.659 72.5663 226.864 73.108 227.273C73.6496 227.678 74.0076 228.222 74.1818 228.903ZM80.9489 229.682C80.9489 228.258 81.1364 226.947 81.5114 225.75C81.8864 224.553 82.4337 223.449 83.1534 222.438H84.7102C84.4299 222.812 84.1686 223.273 83.9261 223.818C83.6837 224.364 83.4716 224.962 83.2898 225.614C83.108 226.261 82.9659 226.934 82.8636 227.631C82.7614 228.324 82.7102 229.008 82.7102 229.682C82.7102 230.583 82.7992 231.496 82.9773 232.42C83.1553 233.345 83.3958 234.203 83.6989 234.994C84.0019 235.786 84.339 236.432 84.7102 236.932H83.1534C82.4337 235.92 81.8864 234.816 81.5114 233.619C81.1364 232.422 80.9489 231.11 80.9489 229.682ZM86.6378 223.864H88.7685L92.473 232.909H92.6094L96.3139 223.864H98.4446V235.5H96.7741V227.08H96.6662L93.2344 235.483H91.848L88.4162 227.074H88.3082V235.5H86.6378V223.864ZM100.861 235.5V226.773H102.56V235.5H100.861ZM101.719 225.426C101.423 225.426 101.17 225.328 100.957 225.131C100.749 224.93 100.645 224.691 100.645 224.415C100.645 224.134 100.749 223.896 100.957 223.699C101.17 223.498 101.423 223.398 101.719 223.398C102.014 223.398 102.266 223.498 102.474 223.699C102.687 223.896 102.793 224.134 102.793 224.415C102.793 224.691 102.687 224.93 102.474 225.131C102.266 225.328 102.014 225.426 101.719 225.426ZM106.544 230.318V235.5H104.845V226.773H106.476V228.193H106.584C106.785 227.731 107.099 227.36 107.527 227.08C107.959 226.799 108.502 226.659 109.158 226.659C109.752 226.659 110.273 226.784 110.72 227.034C111.167 227.28 111.514 227.648 111.76 228.136C112.006 228.625 112.129 229.229 112.129 229.949V235.5H110.43V230.153C110.43 229.521 110.266 229.027 109.936 228.67C109.607 228.311 109.154 228.131 108.578 228.131C108.184 228.131 107.834 228.216 107.527 228.386C107.224 228.557 106.983 228.807 106.805 229.136C106.631 229.462 106.544 229.856 106.544 230.318ZM118.482 226.773V228.136H113.714V226.773H118.482ZM114.993 224.682H116.692V232.938C116.692 233.267 116.741 233.515 116.839 233.682C116.938 233.845 117.065 233.956 117.22 234.017C117.379 234.074 117.552 234.102 117.737 234.102C117.874 234.102 117.993 234.093 118.095 234.074C118.197 234.055 118.277 234.04 118.334 234.028L118.641 235.432C118.542 235.47 118.402 235.508 118.22 235.545C118.038 235.587 117.811 235.61 117.538 235.614C117.091 235.621 116.675 235.542 116.288 235.375C115.902 235.208 115.589 234.951 115.351 234.602C115.112 234.254 114.993 233.816 114.993 233.29V224.682ZM123.628 230.67C123.628 232.098 123.44 233.411 123.065 234.608C122.69 235.805 122.143 236.909 121.423 237.92H119.866C120.147 237.545 120.408 237.085 120.651 236.54C120.893 235.994 121.105 235.398 121.287 234.75C121.469 234.098 121.611 233.424 121.713 232.727C121.815 232.03 121.866 231.345 121.866 230.67C121.866 229.773 121.777 228.862 121.599 227.938C121.421 227.013 121.181 226.155 120.878 225.364C120.575 224.572 120.238 223.926 119.866 223.426H121.423C122.143 224.437 122.69 225.542 123.065 226.739C123.44 227.936 123.628 229.246 123.628 230.67Z" fill="#F7DEFF"/>
<path d="M23.9998 66.4667L22.0665 64.7067C15.1998 58.48 10.6665 54.36 10.6665 49.3333C10.6665 45.2133 13.8932 42 17.9998 42C20.3198 42 22.5465 43.08 23.9998 44.7733C25.4532 43.08 27.6798 42 29.9998 42C34.1065 42 37.3332 45.2133 37.3332 49.3333C37.3332 54.36 32.7998 58.48 25.9332 64.7067L23.9998 66.4667Z" fill="#DC2626"/>
<path d="M51.3011 45.0455V62.5H48.6591V47.6875H48.5568L44.3807 50.4148V47.892L48.7358 45.0455H51.3011ZM62.0994 62.7898C60.7528 62.7841 59.6023 62.429 58.6477 61.7244C57.6932 61.0199 56.9631 59.9943 56.4574 58.6477C55.9517 57.3011 55.6989 55.679 55.6989 53.7812C55.6989 51.8892 55.9517 50.2727 56.4574 48.9318C56.9688 47.5909 57.7017 46.5682 58.6562 45.8636C59.6165 45.1591 60.7642 44.8068 62.0994 44.8068C63.4347 44.8068 64.5795 45.1619 65.5341 45.8722C66.4886 46.5767 67.2188 47.5994 67.7244 48.9403C68.2358 50.2756 68.4915 51.8892 68.4915 53.7812C68.4915 55.6847 68.2386 57.3097 67.733 58.6562C67.2273 59.9972 66.4972 61.0227 65.5426 61.733C64.5881 62.4375 63.4403 62.7898 62.0994 62.7898ZM62.0994 60.5142C63.2813 60.5142 64.2045 59.9375 64.8693 58.7841C65.5398 57.6307 65.875 55.9631 65.875 53.7812C65.875 52.3324 65.7216 51.108 65.4148 50.108C65.1136 49.1023 64.679 48.3409 64.1108 47.8239C63.5483 47.3011 62.8778 47.0398 62.0994 47.0398C60.9233 47.0398 60 47.6193 59.3295 48.7784C58.6591 49.9375 58.321 51.6051 58.3153 53.7812C58.3153 55.2358 58.4659 56.4659 58.767 57.4716C59.0739 58.4716 59.5085 59.2301 60.071 59.7472C60.6335 60.2585 61.3097 60.5142 62.0994 60.5142ZM77.5916 62.7898C76.245 62.7841 75.0945 62.429 74.1399 61.7244C73.1854 61.0199 72.4553 59.9943 71.9496 58.6477C71.4439 57.3011 71.1911 55.679 71.1911 53.7812C71.1911 51.8892 71.4439 50.2727 71.9496 48.9318C72.4609 47.5909 73.1939 46.5682 74.1484 45.8636C75.1087 45.1591 76.2564 44.8068 77.5916 44.8068C78.9268 44.8068 80.0717 45.1619 81.0263 45.8722C81.9808 46.5767 82.7109 47.5994 83.2166 48.9403C83.728 50.2756 83.9837 51.8892 83.9837 53.7812C83.9837 55.6847 83.7308 57.3097 83.2251 58.6562C82.7195 59.9972 81.9893 61.0227 81.0348 61.733C80.0803 62.4375 78.9325 62.7898 77.5916 62.7898ZM77.5916 60.5142C78.7734 60.5142 79.6967 59.9375 80.3615 58.7841C81.032 57.6307 81.3672 55.9631 81.3672 53.7812C81.3672 52.3324 81.2138 51.108 80.907 50.108C80.6058 49.1023 80.1712 48.3409 79.603 47.8239C79.0405 47.3011 78.37 47.0398 77.5916 47.0398C76.4155 47.0398 75.4922 47.6193 74.8217 48.7784C74.1513 49.9375 73.8132 51.6051 73.8075 53.7812C73.8075 55.2358 73.9581 56.4659 74.2592 57.4716C74.5661 58.4716 75.0007 59.2301 75.5632 59.7472C76.1257 60.2585 76.8018 60.5142 77.5916 60.5142ZM96.1179 59.2273V58.3068C96.1179 57.6477 96.2543 57.0455 96.527 56.5C96.8054 55.9489 97.2088 55.5085 97.7372 55.179C98.2713 54.8437 98.9162 54.6761 99.6719 54.6761C100.445 54.6761 101.092 54.8409 101.615 55.1705C102.138 55.5 102.533 55.9403 102.8 56.4915C103.072 57.0426 103.209 57.6477 103.209 58.3068V59.2273C103.209 59.8864 103.072 60.4915 102.8 61.0426C102.527 61.5881 102.126 62.0284 101.598 62.3636C101.075 62.6932 100.433 62.858 99.6719 62.858C98.9048 62.858 98.2571 62.6932 97.7287 62.3636C97.2003 62.0284 96.7997 61.5881 96.527 61.0426C96.2543 60.4915 96.1179 59.8864 96.1179 59.2273ZM98.1037 58.3068V59.2273C98.1037 59.7159 98.2202 60.1591 98.4531 60.5568C98.6861 60.9545 99.0923 61.1534 99.6719 61.1534C100.246 61.1534 100.646 60.9545 100.874 60.5568C101.101 60.1591 101.214 59.7159 101.214 59.2273V58.3068C101.214 57.8182 101.104 57.375 100.882 56.9773C100.666 56.5795 100.263 56.3807 99.6719 56.3807C99.1037 56.3807 98.7003 56.5795 98.4616 56.9773C98.223 57.375 98.1037 57.8182 98.1037 58.3068ZM87.3395 49.2386V48.3182C87.3395 47.6591 87.4759 47.054 87.7486 46.5028C88.027 45.9517 88.4304 45.5114 88.9588 45.1818C89.4929 44.8523 90.1378 44.6875 90.8935 44.6875C91.6662 44.6875 92.3139 44.8523 92.8366 45.1818C93.3594 45.5114 93.7543 45.9517 94.0213 46.5028C94.2884 47.054 94.4219 47.6591 94.4219 48.3182V49.2386C94.4219 49.8977 94.2855 50.5028 94.0128 51.054C93.7457 51.5994 93.348 52.0398 92.8196 52.375C92.2969 52.7045 91.6548 52.8693 90.8935 52.8693C90.1207 52.8693 89.4702 52.7045 88.9418 52.375C88.419 52.0398 88.0213 51.5994 87.7486 51.054C87.4759 50.5028 87.3395 49.8977 87.3395 49.2386ZM89.3338 48.3182V49.2386C89.3338 49.7273 89.4474 50.1705 89.6747 50.5682C89.9077 50.9659 90.3139 51.1648 90.8935 51.1648C91.4616 51.1648 91.8594 50.9659 92.0866 50.5682C92.3196 50.1705 92.4361 49.7273 92.4361 49.2386V48.3182C92.4361 47.8295 92.3253 47.3864 92.1037 46.9886C91.8821 46.5909 91.4787 46.392 90.8935 46.392C90.3253 46.392 89.9219 46.5909 89.6832 46.9886C89.4503 47.3864 89.3338 47.8295 89.3338 48.3182ZM88.1491 62.5L100.149 45.0455H102.186L90.1861 62.5H88.1491Z" fill="#FECACA"/>
<path d="M34.8802 88.9733C35.7669 88.0878 36.4432 87.0143 36.8591 85.8322C37.275 84.6501 37.4198 83.3896 37.2828 82.144C37.1458 80.8984 36.7306 79.6995 36.0678 78.636C35.4049 77.5725 34.5115 76.6716 33.4536 76C30.7736 74.2267 27.1869 74.2133 24.4802 75.96C22.1336 77.4667 20.8402 79.8133 20.6136 82.24C20.4402 84 19.7736 85.64 18.5469 86.8667L18.5069 86.9067C16.9602 88.4533 16.9602 90.8133 18.4136 92.2533L19.7336 93.5733C20.4321 94.2714 21.3793 94.6636 22.3669 94.6636C23.3545 94.6636 24.3017 94.2714 25.0002 93.5733C26.2936 92.28 28.0002 91.5733 29.8536 91.3733C31.6802 91.1733 33.4669 90.3733 34.8802 88.9733M16.3469 98.48C16.7069 99.2267 16.5869 100.133 15.9602 100.747C15.6888 101.022 15.3429 101.212 14.9649 101.294C14.5869 101.376 14.1933 101.346 13.8323 101.207C13.4713 101.068 13.1586 100.827 12.9327 100.513C12.7067 100.199 12.5773 99.8264 12.5602 99.44C12.1739 99.423 11.8009 99.2935 11.487 99.0676C11.1732 98.8416 10.9321 98.5289 10.7934 98.168C10.6546 97.807 10.6243 97.4133 10.706 97.0353C10.7878 96.6573 10.9781 96.3114 11.2536 96.04C11.8669 95.4267 12.7869 95.2933 13.5202 95.6533L16.8269 92.4133C17.0136 92.6667 17.2269 92.96 17.4669 93.2L18.7869 94.52C19.0669 94.7867 19.3336 95.0133 19.6802 95.2133L16.3469 98.48V98.48Z" fill="#EA580C"/>
<path d="M51.3011 79.0455V96.5H48.6591V81.6875H48.5568L44.3807 84.4148V81.892L48.7358 79.0455H51.3011ZM62.0994 96.7898C60.7528 96.7841 59.6023 96.429 58.6477 95.7244C57.6932 95.0199 56.9631 93.9943 56.4574 92.6477C55.9517 91.3011 55.6989 89.679 55.6989 87.7812C55.6989 85.8892 55.9517 84.2727 56.4574 82.9318C56.9688 81.5909 57.7017 80.5682 58.6562 79.8636C59.6165 79.1591 60.7642 78.8068 62.0994 78.8068C63.4347 78.8068 64.5795 79.1619 65.5341 79.8722C66.4886 80.5767 67.2188 81.5994 67.7244 82.9403C68.2358 84.2756 68.4915 85.8892 68.4915 87.7812C68.4915 89.6847 68.2386 91.3097 67.733 92.6562C67.2273 93.9972 66.4972 95.0227 65.5426 95.733C64.5881 96.4375 63.4403 96.7898 62.0994 96.7898ZM62.0994 94.5142C63.2813 94.5142 64.2045 93.9375 64.8693 92.7841C65.5398 91.6307 65.875 89.9631 65.875 87.7812C65.875 86.3324 65.7216 85.108 65.4148 84.108C65.1136 83.1023 64.679 82.3409 64.1108 81.8239C63.5483 81.3011 62.8778 81.0398 62.0994 81.0398C60.9233 81.0398 60 81.6193 59.3295 82.7784C58.6591 83.9375 58.321 85.6051 58.3153 87.7812C58.3153 89.2358 58.4659 90.4659 58.767 91.4716C59.0739 92.4716 59.5085 93.2301 60.071 93.7472C60.6335 94.2585 61.3097 94.5142 62.0994 94.5142ZM77.5916 96.7898C76.245 96.7841 75.0945 96.429 74.1399 95.7244C73.1854 95.0199 72.4553 93.9943 71.9496 92.6477C71.4439 91.3011 71.1911 89.679 71.1911 87.7812C71.1911 85.8892 71.4439 84.2727 71.9496 82.9318C72.4609 81.5909 73.1939 80.5682 74.1484 79.8636C75.1087 79.1591 76.2564 78.8068 77.5916 78.8068C78.9268 78.8068 80.0717 79.1619 81.0263 79.8722C81.9808 80.5767 82.7109 81.5994 83.2166 82.9403C83.728 84.2756 83.9837 85.8892 83.9837 87.7812C83.9837 89.6847 83.7308 91.3097 83.2251 92.6562C82.7195 93.9972 81.9893 95.0227 81.0348 95.733C80.0803 96.4375 78.9325 96.7898 77.5916 96.7898ZM77.5916 94.5142C78.7734 94.5142 79.6967 93.9375 80.3615 92.7841C81.032 91.6307 81.3672 89.9631 81.3672 87.7812C81.3672 86.3324 81.2138 85.108 80.907 84.108C80.6058 83.1023 80.1712 82.3409 79.603 81.8239C79.0405 81.3011 78.37 81.0398 77.5916 81.0398C76.4155 81.0398 75.4922 81.6193 74.8217 82.7784C74.1513 83.9375 73.8132 85.6051 73.8075 87.7812C73.8075 89.2358 73.9581 90.4659 74.2592 91.4716C74.5661 92.4716 75.0007 93.2301 75.5632 93.7472C76.1257 94.2585 76.8018 94.5142 77.5916 94.5142ZM96.1179 93.2273V92.3068C96.1179 91.6477 96.2543 91.0455 96.527 90.5C96.8054 89.9489 97.2088 89.5085 97.7372 89.179C98.2713 88.8437 98.9162 88.6761 99.6719 88.6761C100.445 88.6761 101.092 88.8409 101.615 89.1705C102.138 89.5 102.533 89.9403 102.8 90.4915C103.072 91.0426 103.209 91.6477 103.209 92.3068V93.2273C103.209 93.8864 103.072 94.4915 102.8 95.0426C102.527 95.5881 102.126 96.0284 101.598 96.3636C101.075 96.6932 100.433 96.858 99.6719 96.858C98.9048 96.858 98.2571 96.6932 97.7287 96.3636C97.2003 96.0284 96.7997 95.5881 96.527 95.0426C96.2543 94.4915 96.1179 93.8864 96.1179 93.2273ZM98.1037 92.3068V93.2273C98.1037 93.7159 98.2202 94.1591 98.4531 94.5568C98.6861 94.9545 99.0923 95.1534 99.6719 95.1534C100.246 95.1534 100.646 94.9545 100.874 94.5568C101.101 94.1591 101.214 93.7159 101.214 93.2273V92.3068C101.214 91.8182 101.104 91.375 100.882 90.9773C100.666 90.5795 100.263 90.3807 99.6719 90.3807C99.1037 90.3807 98.7003 90.5795 98.4616 90.9773C98.223 91.375 98.1037 91.8182 98.1037 92.3068ZM87.3395 83.2386V82.3182C87.3395 81.6591 87.4759 81.054 87.7486 80.5028C88.027 79.9517 88.4304 79.5114 88.9588 79.1818C89.4929 78.8523 90.1378 78.6875 90.8935 78.6875C91.6662 78.6875 92.3139 78.8523 92.8366 79.1818C93.3594 79.5114 93.7543 79.9517 94.0213 80.5028C94.2884 81.054 94.4219 81.6591 94.4219 82.3182V83.2386C94.4219 83.8977 94.2855 84.5028 94.0128 85.054C93.7457 85.5994 93.348 86.0398 92.8196 86.375C92.2969 86.7045 91.6548 86.8693 90.8935 86.8693C90.1207 86.8693 89.4702 86.7045 88.9418 86.375C88.419 86.0398 88.0213 85.5994 87.7486 85.054C87.4759 84.5028 87.3395 83.8977 87.3395 83.2386ZM89.3338 82.3182V83.2386C89.3338 83.7273 89.4474 84.1705 89.6747 84.5682C89.9077 84.9659 90.3139 85.1648 90.8935 85.1648C91.4616 85.1648 91.8594 84.9659 92.0866 84.5682C92.3196 84.1705 92.4361 83.7273 92.4361 83.2386V82.3182C92.4361 81.8295 92.3253 81.3864 92.1037 80.9886C91.8821 80.5909 91.4787 80.392 90.8935 80.392C90.3253 80.392 89.9219 80.5909 89.6832 80.9886C89.4503 81.3864 89.3338 81.8295 89.3338 82.3182ZM88.1491 96.5L100.149 79.0455H102.186L90.1861 96.5H88.1491Z" fill="#FED7AA"/>
<path d="M17.3335 108.667V123.333H21.3335V135.333L30.6668 119.333H25.3335L30.6668 108.667H17.3335Z" fill="#EAB308"/>
<path d="M51.3011 113.045V130.5H48.6591V115.688H48.5568L44.3807 118.415V115.892L48.7358 113.045H51.3011ZM62.0994 130.79C60.7528 130.784 59.6023 130.429 58.6477 129.724C57.6932 129.02 56.9631 127.994 56.4574 126.648C55.9517 125.301 55.6989 123.679 55.6989 121.781C55.6989 119.889 55.9517 118.273 56.4574 116.932C56.9688 115.591 57.7017 114.568 58.6562 113.864C59.6165 113.159 60.7642 112.807 62.0994 112.807C63.4347 112.807 64.5795 113.162 65.5341 113.872C66.4886 114.577 67.2188 115.599 67.7244 116.94C68.2358 118.276 68.4915 119.889 68.4915 121.781C68.4915 123.685 68.2386 125.31 67.733 126.656C67.2273 127.997 66.4972 129.023 65.5426 129.733C64.5881 130.438 63.4403 130.79 62.0994 130.79ZM62.0994 128.514C63.2813 128.514 64.2045 127.938 64.8693 126.784C65.5398 125.631 65.875 123.963 65.875 121.781C65.875 120.332 65.7216 119.108 65.4148 118.108C65.1136 117.102 64.679 116.341 64.1108 115.824C63.5483 115.301 62.8778 115.04 62.0994 115.04C60.9233 115.04 60 115.619 59.3295 116.778C58.6591 117.937 58.321 119.605 58.3153 121.781C58.3153 123.236 58.4659 124.466 58.767 125.472C59.0739 126.472 59.5085 127.23 60.071 127.747C60.6335 128.259 61.3097 128.514 62.0994 128.514ZM77.5916 130.79C76.245 130.784 75.0945 130.429 74.1399 129.724C73.1854 129.02 72.4553 127.994 71.9496 126.648C71.4439 125.301 71.1911 123.679 71.1911 121.781C71.1911 119.889 71.4439 118.273 71.9496 116.932C72.4609 115.591 73.1939 114.568 74.1484 113.864C75.1087 113.159 76.2564 112.807 77.5916 112.807C78.9268 112.807 80.0717 113.162 81.0263 113.872C81.9808 114.577 82.7109 115.599 83.2166 116.94C83.728 118.276 83.9837 119.889 83.9837 121.781C83.9837 123.685 83.7308 125.31 83.2251 126.656C82.7195 127.997 81.9893 129.023 81.0348 129.733C80.0803 130.438 78.9325 130.79 77.5916 130.79ZM77.5916 128.514C78.7734 128.514 79.6967 127.938 80.3615 126.784C81.032 125.631 81.3672 123.963 81.3672 121.781C81.3672 120.332 81.2138 119.108 80.907 118.108C80.6058 117.102 80.1712 116.341 79.603 115.824C79.0405 115.301 78.37 115.04 77.5916 115.04C76.4155 115.04 75.4922 115.619 74.8217 116.778C74.1513 117.937 73.8132 119.605 73.8075 121.781C73.8075 123.236 73.9581 124.466 74.2592 125.472C74.5661 126.472 75.0007 127.23 75.5632 127.747C76.1257 128.259 76.8018 128.514 77.5916 128.514ZM96.1179 127.227V126.307C96.1179 125.648 96.2543 125.045 96.527 124.5C96.8054 123.949 97.2088 123.509 97.7372 123.179C98.2713 122.844 98.9162 122.676 99.6719 122.676C100.445 122.676 101.092 122.841 101.615 123.17C102.138 123.5 102.533 123.94 102.8 124.491C103.072 125.043 103.209 125.648 103.209 126.307V127.227C103.209 127.886 103.072 128.491 102.8 129.043C102.527 129.588 102.126 130.028 101.598 130.364C101.075 130.693 100.433 130.858 99.6719 130.858C98.9048 130.858 98.2571 130.693 97.7287 130.364C97.2003 130.028 96.7997 129.588 96.527 129.043C96.2543 128.491 96.1179 127.886 96.1179 127.227ZM98.1037 126.307V127.227C98.1037 127.716 98.2202 128.159 98.4531 128.557C98.6861 128.955 99.0923 129.153 99.6719 129.153C100.246 129.153 100.646 128.955 100.874 128.557C101.101 128.159 101.214 127.716 101.214 127.227V126.307C101.214 125.818 101.104 125.375 100.882 124.977C100.666 124.58 100.263 124.381 99.6719 124.381C99.1037 124.381 98.7003 124.58 98.4616 124.977C98.223 125.375 98.1037 125.818 98.1037 126.307ZM87.3395 117.239V116.318C87.3395 115.659 87.4759 115.054 87.7486 114.503C88.027 113.952 88.4304 113.511 88.9588 113.182C89.4929 112.852 90.1378 112.688 90.8935 112.688C91.6662 112.688 92.3139 112.852 92.8366 113.182C93.3594 113.511 93.7543 113.952 94.0213 114.503C94.2884 115.054 94.4219 115.659 94.4219 116.318V117.239C94.4219 117.898 94.2855 118.503 94.0128 119.054C93.7457 119.599 93.348 120.04 92.8196 120.375C92.2969 120.705 91.6548 120.869 90.8935 120.869C90.1207 120.869 89.4702 120.705 88.9418 120.375C88.419 120.04 88.0213 119.599 87.7486 119.054C87.4759 118.503 87.3395 117.898 87.3395 117.239ZM89.3338 116.318V117.239C89.3338 117.727 89.4474 118.17 89.6747 118.568C89.9077 118.966 90.3139 119.165 90.8935 119.165C91.4616 119.165 91.8594 118.966 92.0866 118.568C92.3196 118.17 92.4361 117.727 92.4361 117.239V116.318C92.4361 115.83 92.3253 115.386 92.1037 114.989C91.8821 114.591 91.4787 114.392 90.8935 114.392C90.3253 114.392 89.9219 114.591 89.6832 114.989C89.4503 115.386 89.3338 115.83 89.3338 116.318ZM88.1491 130.5L100.149 113.045H102.186L90.1861 130.5H88.1491Z" fill="#FEF08A"/>
<path d="M13.696 209.032H21.16V211H11.272V197.488H20.92V199.6H13.696V203.152H19.24V205.168H13.696V209.032ZM26.8474 211.24C25.3914 211.24 24.3354 210.792 23.6794 209.896C23.0394 208.984 22.7194 207.768 22.7194 206.248C22.7194 204.712 23.0394 203.48 23.6794 202.552C24.3354 201.608 25.3914 201.136 26.8474 201.136C27.4714 201.136 27.9914 201.24 28.4074 201.448C28.8234 201.64 29.1514 201.872 29.3914 202.144C29.6314 202.416 29.7994 202.664 29.8954 202.888C30.0074 203.112 30.0714 203.248 30.0874 203.296H30.1354L30.5194 201.136H32.6554V215.392H30.1354V209.248H30.0874C30.0714 209.28 29.9994 209.4 29.8714 209.608C29.7594 209.816 29.5754 210.048 29.3194 210.304C29.0794 210.56 28.7514 210.784 28.3354 210.976C27.9354 211.152 27.4394 211.24 26.8474 211.24ZM27.5674 209.176C28.4634 209.176 29.1114 208.904 29.5114 208.36C29.9114 207.8 30.1114 207.088 30.1114 206.224C30.1114 205.392 29.9194 204.704 29.5354 204.16C29.1674 203.6 28.5354 203.32 27.6394 203.32C26.9674 203.32 26.4474 203.464 26.0794 203.752C25.7114 204.024 25.4474 204.384 25.2874 204.832C25.1434 205.264 25.0714 205.728 25.0714 206.224C25.0714 206.72 25.1434 207.2 25.2874 207.664C25.4314 208.112 25.6794 208.48 26.0314 208.768C26.3994 209.04 26.9114 209.176 27.5674 209.176ZM38.1559 211.24C37.2919 211.24 36.6199 211.072 36.1399 210.736C35.6599 210.4 35.3079 209.968 35.0839 209.44C34.8759 208.912 34.7479 208.36 34.6999 207.784C34.6519 207.192 34.6279 206.656 34.6279 206.176V201.136H37.0039V206.176C37.0039 206.672 37.0519 207.144 37.1479 207.592C37.2439 208.04 37.4439 208.4 37.7479 208.672C38.0679 208.944 38.5479 209.08 39.1879 209.08C39.8119 209.08 40.2839 208.944 40.6039 208.672C40.9239 208.384 41.1399 208.024 41.2519 207.592C41.3639 207.16 41.4279 206.712 41.4439 206.248L41.4679 201.136H43.9639V211H41.8759L41.4679 209.128H41.4199C41.3879 209.224 41.3079 209.384 41.1799 209.608C41.0519 209.832 40.8599 210.072 40.6039 210.328C40.3639 210.584 40.0439 210.8 39.6439 210.976C39.2439 211.152 38.7479 211.24 38.1559 211.24ZM47.4184 200.056C46.8904 200.072 46.5384 199.952 46.3624 199.696C46.2024 199.424 46.1224 199.104 46.1224 198.736C46.1224 198.384 46.2104 198.08 46.3864 197.824C46.5624 197.568 46.9064 197.44 47.4184 197.44C47.9144 197.44 48.2424 197.568 48.4024 197.824C48.5784 198.08 48.6664 198.384 48.6664 198.736C48.6664 199.104 48.5784 199.416 48.4024 199.672C48.2424 199.912 47.9144 200.04 47.4184 200.056ZM46.1704 211V201.136H48.6184V211H46.1704ZM56.8752 211.24C56.2672 211.24 55.7552 211.152 55.3392 210.976C54.9392 210.784 54.6112 210.56 54.3552 210.304C54.1152 210.048 53.9312 209.816 53.8032 209.608C53.6912 209.4 53.6272 209.28 53.6112 209.248H53.5632V215.392H51.0432V201.136H53.1792L53.5872 203.296H53.6352C53.6512 203.248 53.7072 203.112 53.8032 202.888C53.9152 202.664 54.0832 202.416 54.3072 202.144C54.5472 201.872 54.8752 201.64 55.2912 201.448C55.7072 201.24 56.2272 201.136 56.8512 201.136C58.3232 201.136 59.3792 201.608 60.0192 202.552C60.6592 203.496 60.9792 204.728 60.9792 206.248C60.9792 207.768 60.6512 208.984 59.9952 209.896C59.3392 210.792 58.2992 211.24 56.8752 211.24ZM56.1312 209.176C56.8032 209.176 57.3152 209.04 57.6672 208.768C58.0352 208.48 58.2832 208.112 58.4112 207.664C58.5552 207.2 58.6272 206.72 58.6272 206.224C58.6272 205.728 58.5472 205.264 58.3872 204.832C58.2432 204.384 57.9872 204.024 57.6192 203.752C57.2512 203.464 56.7392 203.32 56.0832 203.32C55.1872 203.32 54.5472 203.6 54.1632 204.16C53.7792 204.704 53.5872 205.392 53.5872 206.224C53.5872 207.088 53.7872 207.8 54.1872 208.36C54.5872 208.904 55.2352 209.176 56.1312 209.176ZM62.5677 211V201.136H64.7037L64.7277 203.272H64.7757C64.7917 203.208 64.8557 203.072 64.9677 202.864C65.0797 202.64 65.2477 202.4 65.4717 202.144C65.6957 201.872 65.9917 201.64 66.3597 201.448C66.7277 201.24 67.1837 201.136 67.7277 201.136C68.5277 201.136 69.1277 201.352 69.5277 201.784C69.9277 202.2 70.2157 202.696 70.3917 203.272H70.4397C70.4557 203.208 70.5197 203.072 70.6317 202.864C70.7597 202.64 70.9437 202.4 71.1837 202.144C71.4397 201.872 71.7597 201.64 72.1437 201.448C72.5277 201.24 72.9997 201.136 73.5597 201.136C74.1837 201.136 74.6877 201.272 75.0717 201.544C75.4557 201.8 75.7517 202.136 75.9597 202.552C76.1837 202.952 76.3357 203.384 76.4157 203.848C76.5117 204.312 76.5597 204.76 76.5597 205.192C76.5757 205.608 76.5837 205.952 76.5837 206.224V211H74.5197V206.2C74.5197 205.96 74.5117 205.68 74.4957 205.36C74.4797 205.024 74.4157 204.704 74.3037 204.4C74.1917 204.08 74.0077 203.816 73.7517 203.608C73.4957 203.4 73.1437 203.296 72.6957 203.296C72.1357 203.296 71.7117 203.448 71.4237 203.752C71.1357 204.04 70.9357 204.416 70.8237 204.88C70.7117 205.328 70.6557 205.8 70.6557 206.296V211H68.5917V206.2C68.5917 205.96 68.5837 205.68 68.5677 205.36C68.5517 205.024 68.4877 204.704 68.3757 204.4C68.2637 204.08 68.0797 203.816 67.8237 203.608C67.5677 203.4 67.2157 203.296 66.7677 203.296C66.2077 203.296 65.7837 203.448 65.4957 203.752C65.2077 204.04 65.0077 204.416 64.8957 204.88C64.7837 205.328 64.7277 205.8 64.7277 206.296V211H62.5677ZM83.0194 211.24C81.8834 211.24 80.9554 211 80.2354 210.52C79.5314 210.024 79.0034 209.4 78.6514 208.648C78.3154 207.88 78.1394 207.072 78.1234 206.224C78.1074 205.232 78.2914 204.352 78.6754 203.584C79.0754 202.8 79.6354 202.192 80.3554 201.76C81.0914 201.312 81.9554 201.088 82.9474 201.088C83.8274 201.088 84.6114 201.28 85.2994 201.664C86.0034 202.048 86.5634 202.592 86.9794 203.296C87.3954 203.984 87.6114 204.8 87.6274 205.744C87.6274 205.776 87.6274 205.864 87.6274 206.008C87.6274 206.152 87.6274 206.272 87.6274 206.368H80.4514C80.4514 207.28 80.6754 207.984 81.1234 208.48C81.5714 208.96 82.1874 209.2 82.9714 209.2C83.5794 209.2 84.0834 209.048 84.4834 208.744C84.8994 208.44 85.1474 208.04 85.2274 207.544H87.6034C87.4914 208.584 87.0434 209.464 86.2594 210.184C85.4754 210.888 84.3954 211.24 83.0194 211.24ZM80.5234 205.264H85.1794C85.1634 205.152 85.1234 204.976 85.0594 204.736C85.0114 204.496 84.9074 204.248 84.7474 203.992C84.6034 203.736 84.3794 203.52 84.0754 203.344C83.7714 203.168 83.3794 203.08 82.8994 203.08C82.2594 203.08 81.7714 203.216 81.4354 203.488C81.1154 203.744 80.8834 204.048 80.7394 204.4C80.6114 204.736 80.5394 205.024 80.5234 205.264ZM89.4974 211V201.184H91.5854L91.9934 203.272H92.0414C92.0574 203.224 92.1134 203.096 92.2094 202.888C92.3214 202.664 92.4974 202.416 92.7374 202.144C92.9934 201.872 93.3294 201.64 93.7454 201.448C94.1774 201.24 94.7134 201.136 95.3534 201.136C96.2334 201.136 96.9134 201.312 97.3934 201.664C97.8734 202.016 98.2174 202.464 98.4254 203.008C98.6334 203.536 98.7614 204.088 98.8094 204.664C98.8574 205.24 98.8814 205.76 98.8814 206.224V211H96.4814V206.2C96.4814 205.672 96.4334 205.192 96.3374 204.76C96.2414 204.312 96.0334 203.96 95.7134 203.704C95.4094 203.432 94.9534 203.296 94.3454 203.296C93.7054 203.296 93.2174 203.44 92.8814 203.728C92.5454 204.016 92.3134 204.392 92.1854 204.856C92.0574 205.304 91.9934 205.784 91.9934 206.296V211H89.4974ZM103.917 211C103.133 211 102.541 210.808 102.141 210.424C101.757 210.04 101.565 209.416 101.565 208.552V202.864H100.077V201.136C100.541 201.136 100.901 201.088 101.157 200.992C101.413 200.896 101.597 200.672 101.709 200.32C101.821 199.968 101.877 199.4 101.877 198.616H103.845V201.136H106.101V202.864H103.845V209.08H106.149V211H103.917Z" fill="white"/>
<path d="M175.488 59V45.488H178.392V56.528H184.632V59H175.488ZM190.888 59.24C189.72 59.24 188.768 59 188.032 58.52C187.312 58.04 186.776 57.424 186.424 56.672C186.088 55.904 185.912 55.096 185.896 54.248C185.88 53.208 186.072 52.296 186.472 51.512C186.872 50.728 187.44 50.12 188.176 49.688C188.928 49.256 189.8 49.04 190.792 49.04C191.704 49.04 192.52 49.232 193.24 49.616C193.96 50 194.528 50.552 194.944 51.272C195.36 51.976 195.576 52.816 195.592 53.792C195.592 53.808 195.592 53.896 195.592 54.056C195.592 54.216 195.592 54.336 195.592 54.416H188.656C188.656 55.232 188.848 55.84 189.232 56.24C189.632 56.64 190.168 56.84 190.84 56.84C191.368 56.84 191.8 56.712 192.136 56.456C192.488 56.2 192.696 55.864 192.76 55.448H195.568C195.472 56.488 195.024 57.384 194.224 58.136C193.44 58.872 192.328 59.24 190.888 59.24ZM188.704 53.192H192.688C192.688 53.128 192.672 53 192.64 52.808C192.608 52.616 192.528 52.416 192.4 52.208C192.272 51.984 192.072 51.792 191.8 51.632C191.544 51.472 191.184 51.392 190.72 51.392C190.112 51.392 189.664 51.52 189.376 51.776C189.104 52.016 188.928 52.288 188.848 52.592C188.768 52.88 188.72 53.08 188.704 53.192ZM204.179 49.112H207.011V49.52L203.771 59H199.763L196.499 49.544V49.112H199.307L201.779 56.6H201.827L204.179 49.112ZM212.732 59.24C211.564 59.24 210.612 59 209.876 58.52C209.156 58.04 208.62 57.424 208.268 56.672C207.932 55.904 207.756 55.096 207.74 54.248C207.724 53.208 207.916 52.296 208.316 51.512C208.716 50.728 209.284 50.12 210.02 49.688C210.772 49.256 211.644 49.04 212.636 49.04C213.548 49.04 214.364 49.232 215.084 49.616C215.804 50 216.372 50.552 216.788 51.272C217.204 51.976 217.42 52.816 217.436 53.792C217.436 53.808 217.436 53.896 217.436 54.056C217.436 54.216 217.436 54.336 217.436 54.416H210.5C210.5 55.232 210.692 55.84 211.076 56.24C211.476 56.64 212.012 56.84 212.684 56.84C213.212 56.84 213.644 56.712 213.98 56.456C214.332 56.2 214.54 55.864 214.604 55.448H217.412C217.316 56.488 216.868 57.384 216.068 58.136C215.284 58.872 214.172 59.24 212.732 59.24ZM210.548 53.192H214.532C214.532 53.128 214.516 53 214.484 52.808C214.452 52.616 214.372 52.416 214.244 52.208C214.116 51.984 213.916 51.792 213.644 51.632C213.388 51.472 213.028 51.392 212.564 51.392C211.956 51.392 211.508 51.52 211.22 51.776C210.948 52.016 210.772 52.288 210.692 52.592C210.612 52.88 210.564 53.08 210.548 53.192ZM219.519 59V45.488H222.351V59H219.519ZM229.261 56.456V53.984C230.093 53.632 230.829 53.128 231.469 52.472C232.109 51.816 232.645 51.088 233.077 50.288C233.509 49.472 233.829 48.648 234.037 47.816C234.261 46.984 234.373 46.208 234.373 45.488H237.517C237.517 46.448 237.301 47.456 236.869 48.512C236.453 49.552 235.837 50.552 235.021 51.512C234.221 52.456 233.253 53.28 232.117 53.984H235.957V52.256H238.861V53.984H240.445V56.456H238.861V59H235.957V56.456H229.261Z" fill="white"/>
<path d="M142.94 74V73.4162L145.791 70.2116C146.163 69.7912 146.463 69.4318 146.69 69.1335C146.918 68.8352 147.082 68.5597 147.185 68.3068C147.29 68.054 147.342 67.7912 147.342 67.5185C147.342 67.1861 147.264 66.8963 147.108 66.6491C146.955 66.3991 146.743 66.2045 146.473 66.0653C146.203 65.9261 145.899 65.8565 145.561 65.8565C145.203 65.8565 144.889 65.9332 144.619 66.0866C144.352 66.2401 144.145 66.4503 143.997 66.7173C143.849 66.9844 143.776 67.2912 143.776 67.6378H143.013C143.013 67.1548 143.124 66.7273 143.345 66.3551C143.57 65.9801 143.875 65.6861 144.261 65.473C144.651 65.2599 145.091 65.1534 145.582 65.1534C146.068 65.1534 146.5 65.2585 146.878 65.4688C147.256 65.6761 147.553 65.9588 147.768 66.3168C147.984 66.6747 148.092 67.0753 148.092 67.5185C148.092 67.8395 148.036 68.1506 147.922 68.4517C147.811 68.7528 147.619 69.0881 147.347 69.4574C147.074 69.8267 146.696 70.2784 146.213 70.8125L144.048 73.2287V73.2841H148.365V74H142.94ZM152.817 74.1193C152.331 74.1193 151.897 74.0213 151.513 73.8253C151.132 73.6264 150.828 73.3537 150.601 73.0071C150.377 72.6605 150.257 72.2642 150.243 71.8182H151.015C151.04 72.2812 151.222 72.6619 151.56 72.9602C151.898 73.2557 152.317 73.4034 152.817 73.4034C153.206 73.4034 153.553 73.3111 153.857 73.1264C154.161 72.9389 154.398 72.6832 154.569 72.3594C154.742 72.0327 154.828 71.6648 154.828 71.2557C154.826 70.8295 154.733 70.4545 154.551 70.1307C154.37 69.804 154.123 69.5483 153.81 69.3636C153.5 69.179 153.152 69.0866 152.766 69.0866C152.473 69.0838 152.186 69.1321 151.905 69.2315C151.624 69.331 151.39 69.4588 151.202 69.6151L150.405 69.5128L150.929 65.2727H155.242V65.9886H151.598L151.249 68.9077H151.292C151.485 68.7457 151.719 68.6136 151.995 68.5114C152.273 68.4091 152.567 68.358 152.877 68.358C153.391 68.358 153.853 68.4815 154.262 68.7287C154.674 68.9759 154.999 69.3168 155.238 69.7514C155.479 70.1832 155.6 70.6804 155.6 71.2429C155.6 71.794 155.479 72.2869 155.238 72.7216C154.999 73.1534 154.669 73.4943 154.249 73.7443C153.831 73.9943 153.354 74.1193 152.817 74.1193ZM157.204 72.125V71.4773L161.095 65.2727H161.572V66.3594H161.218L158.095 71.3537V71.4091H163.196V72.125H157.204ZM161.278 74V71.9205V71.6222V65.2727H162.037V74H161.278ZM168.798 67.4545L170.486 70.2457L172.173 67.4545H173.055L170.95 70.7273L173.055 74H172.173L170.486 71.2983L168.798 74H167.92L170 70.7273L167.92 67.4545H168.798ZM174.646 76.4545V67.4545H175.383V68.7031H175.473C175.564 68.5071 175.689 68.3068 175.848 68.1023C176.007 67.8949 176.217 67.7202 176.478 67.5781C176.743 67.4361 177.075 67.3651 177.475 67.3651C178.015 67.3651 178.487 67.5071 178.89 67.7912C179.297 68.0724 179.612 68.4673 179.836 68.9759C180.064 69.4815 180.177 70.071 180.177 70.7443C180.177 71.4205 180.064 72.0128 179.836 72.5213C179.612 73.0298 179.297 73.4261 178.89 73.7102C178.487 73.9943 178.018 74.1364 177.484 74.1364C177.089 74.1364 176.758 74.0653 176.491 73.9233C176.227 73.7812 176.012 73.6065 175.848 73.3991C175.686 73.1889 175.561 72.9844 175.473 72.7855H175.404V76.4545H174.646ZM175.396 70.7315C175.396 71.2599 175.474 71.7287 175.63 72.1378C175.789 72.544 176.017 72.8636 176.312 73.0966C176.61 73.3267 176.971 73.4418 177.395 73.4418C177.829 73.4418 178.196 73.3224 178.494 73.0838C178.795 72.8423 179.024 72.517 179.18 72.108C179.339 71.6989 179.419 71.2401 179.419 70.7315C179.419 70.2287 179.341 69.7756 179.184 69.3722C179.031 68.9687 178.804 68.6491 178.502 68.4134C178.201 68.1747 177.832 68.0554 177.395 68.0554C176.968 68.0554 176.606 68.1705 176.308 68.4006C176.01 68.6278 175.782 68.9432 175.626 69.3466C175.473 69.7472 175.396 70.2088 175.396 70.7315ZM187.794 67.4545V68.1151H184.671V67.4545H187.794ZM185.647 65.8864H186.409V72.2912C186.409 72.5639 186.456 72.7784 186.55 72.9347C186.644 73.0881 186.766 73.1974 186.917 73.2628C187.067 73.3253 187.228 73.3565 187.398 73.3565C187.498 73.3565 187.583 73.3509 187.654 73.3395C187.725 73.3253 187.787 73.3111 187.841 73.2969L188.003 73.983C187.929 74.0114 187.838 74.0369 187.73 74.0597C187.623 74.0852 187.489 74.098 187.33 74.098C187.051 74.098 186.783 74.0369 186.525 73.9148C186.269 73.7926 186.059 73.6108 185.894 73.3693C185.729 73.1278 185.647 72.8281 185.647 72.4702V65.8864ZM191.991 74.1364C191.425 74.1364 190.925 73.9929 190.491 73.706C190.059 73.419 189.721 73.0227 189.477 72.517C189.232 72.0085 189.11 71.4219 189.11 70.7571C189.11 70.0866 189.232 69.4972 189.477 68.9886C189.721 68.4773 190.059 68.0795 190.491 67.7955C190.925 67.5085 191.425 67.3651 191.991 67.3651C192.556 67.3651 193.055 67.5085 193.487 67.7955C193.918 68.0824 194.256 68.4801 194.501 68.9886C194.748 69.4972 194.871 70.0866 194.871 70.7571C194.871 71.4219 194.749 72.0085 194.505 72.517C194.261 73.0227 193.921 73.419 193.487 73.706C193.055 73.9929 192.556 74.1364 191.991 74.1364ZM191.991 73.4418C192.445 73.4418 192.83 73.3196 193.146 73.0753C193.461 72.831 193.7 72.5057 193.862 72.0994C194.026 71.6932 194.109 71.2457 194.109 70.7571C194.109 70.2685 194.026 69.8196 193.862 69.4105C193.7 69.0014 193.461 68.6733 193.146 68.4261C192.83 68.179 192.445 68.0554 191.991 68.0554C191.539 68.0554 191.154 68.179 190.836 68.4261C190.521 68.6733 190.281 69.0014 190.116 69.4105C189.954 69.8196 189.873 70.2685 189.873 70.7571C189.873 71.2457 189.954 71.6932 190.116 72.0994C190.281 72.5057 190.521 72.831 190.836 73.0753C191.151 73.3196 191.536 73.4418 191.991 73.4418ZM200.67 65.2727V74H199.912V65.2727H200.67ZM205.324 74.1364C204.713 74.1364 204.184 73.9943 203.738 73.7102C203.292 73.4233 202.947 73.027 202.703 72.5213C202.461 72.0128 202.341 71.4276 202.341 70.7656C202.341 70.1065 202.461 69.5213 202.703 69.0099C202.947 68.4957 203.284 68.0937 203.713 67.804C204.145 67.5114 204.643 67.3651 205.208 67.3651C205.564 67.3651 205.906 67.4304 206.235 67.5611C206.565 67.6889 206.86 67.8864 207.122 68.1534C207.386 68.4176 207.595 68.7514 207.748 69.1548C207.902 69.5554 207.978 70.0298 207.978 70.5781V70.9531H202.865V70.2841H207.203C207.203 69.8636 207.118 69.4858 206.947 69.1506C206.779 68.8125 206.545 68.5455 206.244 68.3494C205.946 68.1534 205.6 68.0554 205.208 68.0554C204.794 68.0554 204.429 68.1662 204.113 68.3878C203.798 68.6094 203.551 68.902 203.372 69.2656C203.196 69.6293 203.106 70.027 203.103 70.4588V70.8594C203.103 71.3793 203.193 71.8338 203.372 72.223C203.554 72.6094 203.811 72.9091 204.143 73.1222C204.475 73.3352 204.869 73.4418 205.324 73.4418C205.633 73.4418 205.904 73.3935 206.137 73.2969C206.373 73.2003 206.571 73.071 206.73 72.9091C206.892 72.7443 207.014 72.5639 207.096 72.3679L207.816 72.6023C207.717 72.8778 207.554 73.1321 207.326 73.3651C207.102 73.598 206.821 73.7855 206.483 73.9276C206.147 74.0668 205.761 74.1364 205.324 74.1364ZM214.517 67.4545L212.127 74H211.317L208.926 67.4545H209.749L211.692 72.9986H211.752L213.695 67.4545H214.517ZM218.413 74.1364C217.803 74.1364 217.274 73.9943 216.828 73.7102C216.382 73.4233 216.037 73.027 215.793 72.5213C215.551 72.0128 215.43 71.4276 215.43 70.7656C215.43 70.1065 215.551 69.5213 215.793 69.0099C216.037 68.4957 216.374 68.0937 216.803 67.804C217.234 67.5114 217.733 67.3651 218.298 67.3651C218.653 67.3651 218.996 67.4304 219.325 67.5611C219.655 67.6889 219.95 67.8864 220.212 68.1534C220.476 68.4176 220.685 68.7514 220.838 69.1548C220.991 69.5554 221.068 70.0298 221.068 70.5781V70.9531H215.955V70.2841H220.293C220.293 69.8636 220.207 69.4858 220.037 69.1506C219.869 68.8125 219.635 68.5455 219.334 68.3494C219.036 68.1534 218.69 68.0554 218.298 68.0554C217.884 68.0554 217.518 68.1662 217.203 68.3878C216.888 68.6094 216.641 68.902 216.462 69.2656C216.286 69.6293 216.196 70.027 216.193 70.4588V70.8594C216.193 71.3793 216.283 71.8338 216.462 72.223C216.643 72.6094 216.901 72.9091 217.233 73.1222C217.565 73.3352 217.959 73.4418 218.413 73.4418C218.723 73.4418 218.994 73.3935 219.227 73.2969C219.463 73.2003 219.661 73.071 219.82 72.9091C219.982 72.7443 220.104 72.5639 220.186 72.3679L220.906 72.6023C220.807 72.8778 220.643 73.1321 220.416 73.3651C220.192 73.598 219.911 73.7855 219.572 73.9276C219.237 74.0668 218.851 74.1364 218.413 74.1364ZM223.498 65.2727V74H222.74V65.2727H223.498ZM233.039 71.4986V67.4545H233.798V74H233.039V72.9134H232.98C232.826 73.2486 232.583 73.5284 232.251 73.7528C231.919 73.9744 231.512 74.0852 231.032 74.0852C230.615 74.0852 230.244 73.9943 229.92 73.8125C229.596 73.6278 229.342 73.358 229.157 73.0028C228.973 72.6477 228.88 72.2116 228.88 71.6946V67.4545H229.639V71.6477C229.639 72.1591 229.789 72.571 230.091 72.8835C230.392 73.1932 230.778 73.348 231.25 73.348C231.545 73.348 231.829 73.277 232.102 73.1349C232.375 72.9929 232.599 72.7855 232.775 72.5128C232.951 72.2372 233.039 71.8991 233.039 71.4986ZM235.806 76.4545V67.4545H236.543V68.7031H236.633C236.724 68.5071 236.849 68.3068 237.008 68.1023C237.167 67.8949 237.377 67.7202 237.638 67.5781C237.903 67.4361 238.235 67.3651 238.636 67.3651C239.175 67.3651 239.647 67.5071 240.05 67.7912C240.457 68.0724 240.772 68.4673 240.996 68.9759C241.224 69.4815 241.337 70.071 241.337 70.7443C241.337 71.4205 241.224 72.0128 240.996 72.5213C240.772 73.0298 240.457 73.4261 240.05 73.7102C239.647 73.9943 239.178 74.1364 238.644 74.1364C238.249 74.1364 237.918 74.0653 237.651 73.9233C237.387 73.7812 237.173 73.6065 237.008 73.3991C236.846 73.1889 236.721 72.9844 236.633 72.7855H236.565V76.4545H235.806ZM236.556 70.7315C236.556 71.2599 236.634 71.7287 236.79 72.1378C236.95 72.544 237.177 72.8636 237.472 73.0966C237.771 73.3267 238.131 73.4418 238.555 73.4418C238.989 73.4418 239.356 73.3224 239.654 73.0838C239.955 72.8423 240.184 72.517 240.34 72.108C240.499 71.6989 240.579 71.2401 240.579 70.7315C240.579 70.2287 240.501 69.7756 240.344 69.3722C240.191 68.9687 239.964 68.6491 239.663 68.4134C239.362 68.1747 238.992 68.0554 238.555 68.0554C238.129 68.0554 237.766 68.1705 237.468 68.4006C237.17 68.6278 236.942 68.9432 236.786 69.3466C236.633 69.7472 236.556 70.2088 236.556 70.7315Z" fill="white"/>
<path d="M234 90V89C234 88.4696 233.789 87.9609 233.414 87.5858C233.039 87.2107 232.53 87 232 87H228C227.47 87 226.961 87.2107 226.586 87.5858C226.211 87.9609 226 88.4696 226 89V90C224.939 90 223.922 90.4214 223.172 91.1716C222.421 91.9217 222 92.9391 222 94V105C222 105.53 222.211 106.039 222.586 106.414C222.961 106.789 223.47 107 224 107H236C236.53 107 237.039 106.789 237.414 106.414C237.789 106.039 238 105.53 238 105V94C238 92.9391 237.579 91.9217 236.828 91.1716C236.078 90.4214 235.061 90 234 90ZM228 89H232V90H228V89ZM230 94L232 96L230 98L228 96L230 94ZM236 101H227V103H226V101H224V100H236V101Z" fill="#0EA5E9"/>
<path d="M198.874 121.119C198.289 121.119 197.766 121.018 197.306 120.817C196.848 120.615 196.486 120.335 196.219 119.977C195.955 119.616 195.813 119.199 195.793 118.724H197.131C197.148 118.983 197.235 119.207 197.391 119.398C197.55 119.585 197.757 119.73 198.013 119.832C198.269 119.935 198.553 119.986 198.865 119.986C199.209 119.986 199.513 119.926 199.777 119.807C200.044 119.687 200.253 119.521 200.404 119.308C200.554 119.092 200.63 118.844 200.63 118.562C200.63 118.27 200.554 118.013 200.404 117.791C200.256 117.567 200.039 117.391 199.752 117.263C199.468 117.135 199.124 117.071 198.721 117.071H197.983V115.997H198.721C199.044 115.997 199.328 115.939 199.573 115.822C199.82 115.706 200.013 115.544 200.152 115.337C200.292 115.126 200.361 114.881 200.361 114.599C200.361 114.33 200.3 114.095 200.178 113.896C200.059 113.695 199.888 113.537 199.667 113.423C199.448 113.31 199.189 113.253 198.891 113.253C198.607 113.253 198.341 113.305 198.094 113.411C197.85 113.513 197.651 113.661 197.498 113.854C197.344 114.044 197.262 114.273 197.25 114.54H195.976C195.99 114.068 196.13 113.653 196.394 113.295C196.661 112.937 197.013 112.658 197.451 112.456C197.888 112.254 198.374 112.153 198.908 112.153C199.468 112.153 199.951 112.263 200.357 112.482C200.766 112.697 201.081 112.986 201.303 113.347C201.527 113.707 201.638 114.102 201.635 114.531C201.638 115.02 201.502 115.435 201.226 115.776C200.953 116.116 200.59 116.345 200.135 116.462V116.53C200.715 116.618 201.164 116.848 201.482 117.22C201.803 117.592 201.962 118.054 201.959 118.605C201.962 119.085 201.828 119.516 201.559 119.896C201.292 120.277 200.926 120.577 200.463 120.795C200 121.011 199.471 121.119 198.874 121.119ZM203.57 121V120.045L206.523 116.986C206.838 116.653 207.098 116.362 207.303 116.112C207.51 115.859 207.665 115.619 207.767 115.392C207.87 115.165 207.921 114.923 207.921 114.668C207.921 114.378 207.853 114.128 207.716 113.918C207.58 113.705 207.394 113.541 207.158 113.428C206.922 113.311 206.657 113.253 206.361 113.253C206.049 113.253 205.776 113.317 205.543 113.445C205.31 113.572 205.131 113.753 205.006 113.986C204.881 114.219 204.819 114.491 204.819 114.804H203.561C203.561 114.273 203.684 113.808 203.928 113.411C204.172 113.013 204.507 112.705 204.934 112.486C205.36 112.264 205.844 112.153 206.387 112.153C206.935 112.153 207.418 112.263 207.836 112.482C208.256 112.697 208.584 112.993 208.82 113.368C209.056 113.74 209.174 114.161 209.174 114.629C209.174 114.953 209.113 115.27 208.99 115.58C208.871 115.889 208.662 116.234 208.364 116.615C208.066 116.993 207.651 117.452 207.12 117.991L205.385 119.807V119.871H209.314V121H203.57ZM218.984 114.565C218.939 114.162 218.751 113.849 218.422 113.628C218.092 113.403 217.678 113.291 217.178 113.291C216.82 113.291 216.51 113.348 216.249 113.462C215.987 113.572 215.784 113.726 215.639 113.922C215.497 114.115 215.426 114.335 215.426 114.582C215.426 114.79 215.474 114.969 215.571 115.119C215.67 115.27 215.8 115.396 215.959 115.499C216.121 115.598 216.294 115.682 216.479 115.75C216.663 115.815 216.841 115.869 217.011 115.912L217.864 116.134C218.142 116.202 218.428 116.294 218.72 116.411C219.013 116.527 219.284 116.68 219.534 116.871C219.784 117.061 219.986 117.297 220.139 117.578C220.295 117.859 220.374 118.196 220.374 118.588C220.374 119.082 220.246 119.521 219.99 119.905C219.737 120.288 219.369 120.591 218.886 120.812C218.406 121.034 217.825 121.145 217.143 121.145C216.49 121.145 215.925 121.041 215.447 120.834C214.97 120.626 214.597 120.332 214.327 119.952C214.057 119.568 213.908 119.114 213.879 118.588H215.2C215.226 118.903 215.328 119.166 215.507 119.376C215.689 119.584 215.92 119.739 216.202 119.841C216.486 119.94 216.797 119.99 217.135 119.99C217.507 119.99 217.838 119.932 218.128 119.815C218.42 119.696 218.651 119.531 218.818 119.321C218.986 119.108 219.07 118.859 219.07 118.575C219.07 118.317 218.996 118.105 218.848 117.94C218.703 117.776 218.506 117.639 218.256 117.531C218.009 117.423 217.729 117.328 217.416 117.246L216.385 116.964C215.686 116.774 215.132 116.494 214.723 116.125C214.317 115.756 214.114 115.267 214.114 114.659C214.114 114.156 214.25 113.717 214.523 113.342C214.795 112.967 215.165 112.676 215.631 112.469C216.097 112.259 216.622 112.153 217.207 112.153C217.798 112.153 218.32 112.257 218.771 112.464C219.226 112.672 219.584 112.957 219.845 113.321C220.107 113.682 220.243 114.097 220.254 114.565H218.984ZM223.119 112.273V121H221.845V112.273H223.119ZM227.59 121.132C226.977 121.132 226.441 120.991 225.984 120.71C225.526 120.429 225.171 120.036 224.918 119.53C224.665 119.024 224.539 118.433 224.539 117.757C224.539 117.078 224.665 116.484 224.918 115.976C225.171 115.467 225.526 115.072 225.984 114.791C226.441 114.51 226.977 114.369 227.59 114.369C228.204 114.369 228.739 114.51 229.197 114.791C229.654 115.072 230.009 115.467 230.262 115.976C230.515 116.484 230.641 117.078 230.641 117.757C230.641 118.433 230.515 119.024 230.262 119.53C230.009 120.036 229.654 120.429 229.197 120.71C228.739 120.991 228.204 121.132 227.59 121.132ZM227.594 120.062C227.992 120.062 228.322 119.957 228.583 119.747C228.844 119.537 229.038 119.257 229.163 118.908C229.29 118.558 229.354 118.173 229.354 117.753C229.354 117.335 229.29 116.952 229.163 116.602C229.038 116.25 228.844 115.967 228.583 115.754C228.322 115.541 227.992 115.435 227.594 115.435C227.194 115.435 226.862 115.541 226.597 115.754C226.336 115.967 226.141 116.25 226.013 116.602C225.888 116.952 225.826 117.335 225.826 117.753C225.826 118.173 225.888 118.558 226.013 118.908C226.141 119.257 226.336 119.537 226.597 119.747C226.862 119.957 227.194 120.062 227.594 120.062ZM235.119 114.455V115.477H231.544V114.455H235.119ZM232.502 112.886H233.777V119.078C233.777 119.325 233.814 119.511 233.887 119.636C233.961 119.759 234.056 119.842 234.173 119.888C234.292 119.93 234.422 119.952 234.561 119.952C234.663 119.952 234.752 119.945 234.829 119.93C234.906 119.916 234.966 119.905 235.008 119.896L235.238 120.949C235.164 120.977 235.059 121.006 234.923 121.034C234.787 121.065 234.616 121.082 234.412 121.085C234.076 121.091 233.764 121.031 233.474 120.906C233.184 120.781 232.95 120.588 232.771 120.327C232.592 120.065 232.502 119.737 232.502 119.342V112.886ZM241.328 116.053L240.173 116.257C240.125 116.109 240.048 115.969 239.943 115.835C239.841 115.702 239.701 115.592 239.525 115.507C239.349 115.422 239.129 115.379 238.865 115.379C238.504 115.379 238.203 115.46 237.961 115.622C237.72 115.781 237.599 115.987 237.599 116.24C237.599 116.459 237.68 116.635 237.842 116.768C238.004 116.902 238.265 117.011 238.626 117.097L239.666 117.335C240.268 117.474 240.717 117.689 241.012 117.979C241.308 118.268 241.456 118.645 241.456 119.108C241.456 119.5 241.342 119.849 241.115 120.156C240.89 120.46 240.576 120.699 240.173 120.872C239.772 121.045 239.308 121.132 238.779 121.132C238.047 121.132 237.449 120.976 236.985 120.663C236.522 120.348 236.238 119.901 236.133 119.321L237.365 119.134C237.441 119.455 237.599 119.697 237.838 119.862C238.076 120.024 238.387 120.105 238.771 120.105C239.189 120.105 239.522 120.018 239.772 119.845C240.022 119.669 240.147 119.455 240.147 119.202C240.147 118.997 240.071 118.825 239.917 118.686C239.767 118.547 239.535 118.442 239.223 118.371L238.115 118.128C237.504 117.989 237.052 117.767 236.76 117.463C236.47 117.159 236.325 116.774 236.325 116.308C236.325 115.922 236.433 115.584 236.649 115.294C236.865 115.004 237.163 114.778 237.544 114.616C237.924 114.452 238.36 114.369 238.852 114.369C239.559 114.369 240.116 114.523 240.522 114.83C240.929 115.134 241.197 115.541 241.328 116.053Z" fill="white"/>
<path d="M228 134H232V145H228V134ZM228 152V148H232V152H228Z" fill="#BC31EA"/>
<path d="M133.981 168V160.727H135.078V167.055H138.373V168H133.981ZM141.838 168.11C141.326 168.11 140.88 167.993 140.499 167.759C140.118 167.524 139.822 167.196 139.611 166.775C139.4 166.353 139.295 165.861 139.295 165.298C139.295 164.732 139.4 164.237 139.611 163.813C139.822 163.389 140.118 163.06 140.499 162.826C140.88 162.592 141.326 162.474 141.838 162.474C142.349 162.474 142.795 162.592 143.176 162.826C143.557 163.06 143.853 163.389 144.064 163.813C144.275 164.237 144.38 164.732 144.38 165.298C144.38 165.861 144.275 166.353 144.064 166.775C143.853 167.196 143.557 167.524 143.176 167.759C142.795 167.993 142.349 168.11 141.838 168.11ZM141.841 167.219C142.173 167.219 142.447 167.131 142.665 166.956C142.883 166.781 143.044 166.548 143.148 166.256C143.254 165.965 143.308 165.644 143.308 165.294C143.308 164.946 143.254 164.626 143.148 164.335C143.044 164.042 142.883 163.806 142.665 163.629C142.447 163.451 142.173 163.362 141.841 163.362C141.507 163.362 141.23 163.451 141.01 163.629C140.792 163.806 140.63 164.042 140.524 164.335C140.419 164.626 140.367 164.946 140.367 165.294C140.367 165.644 140.419 165.965 140.524 166.256C140.63 166.548 140.792 166.781 141.01 166.956C141.23 167.131 141.507 167.219 141.841 167.219ZM149.653 163.877L148.69 164.048C148.65 163.924 148.586 163.807 148.499 163.696C148.413 163.585 148.297 163.494 148.151 163.423C148.004 163.352 147.82 163.316 147.6 163.316C147.299 163.316 147.049 163.384 146.847 163.518C146.646 163.651 146.545 163.823 146.545 164.033C146.545 164.216 146.613 164.362 146.748 164.474C146.883 164.585 147.101 164.676 147.401 164.747L148.268 164.946C148.77 165.062 149.144 165.241 149.39 165.482C149.636 165.724 149.759 166.037 149.759 166.423C149.759 166.75 149.665 167.041 149.475 167.297C149.288 167.55 149.027 167.749 148.69 167.893C148.357 168.038 147.969 168.11 147.529 168.11C146.918 168.11 146.42 167.98 146.034 167.719C145.648 167.457 145.411 167.084 145.324 166.601L146.35 166.445C146.414 166.712 146.545 166.915 146.744 167.052C146.943 167.187 147.202 167.254 147.522 167.254C147.87 167.254 148.148 167.182 148.357 167.038C148.565 166.891 148.669 166.712 148.669 166.501C148.669 166.331 148.605 166.188 148.477 166.072C148.352 165.956 148.159 165.868 147.898 165.809L146.975 165.607C146.466 165.491 146.09 165.306 145.846 165.053C145.604 164.799 145.484 164.478 145.484 164.09C145.484 163.768 145.574 163.487 145.754 163.245C145.933 163.004 146.182 162.815 146.499 162.68C146.817 162.543 147.18 162.474 147.589 162.474C148.179 162.474 148.643 162.602 148.982 162.858C149.32 163.111 149.544 163.451 149.653 163.877ZM153.473 162.545V163.398H150.493V162.545H153.473ZM151.292 161.239H152.354V166.398C152.354 166.604 152.385 166.759 152.447 166.864C152.508 166.965 152.587 167.035 152.684 167.073C152.784 167.109 152.892 167.126 153.008 167.126C153.093 167.126 153.167 167.121 153.231 167.109C153.295 167.097 153.345 167.087 153.381 167.08L153.572 167.957C153.511 167.981 153.423 168.005 153.309 168.028C153.196 168.054 153.054 168.069 152.883 168.071C152.604 168.076 152.344 168.026 152.102 167.922C151.861 167.818 151.665 167.657 151.516 167.439C151.367 167.221 151.292 166.948 151.292 166.619V161.239ZM157.294 168V162.545H158.356V168H157.294ZM157.83 161.704C157.645 161.704 157.487 161.642 157.354 161.519C157.224 161.394 157.159 161.245 157.159 161.072C157.159 160.897 157.224 160.747 157.354 160.624C157.487 160.499 157.645 160.436 157.83 160.436C158.015 160.436 158.172 160.499 158.302 160.624C158.435 160.747 158.501 160.897 158.501 161.072C158.501 161.245 158.435 161.394 158.302 161.519C158.172 161.642 158.015 161.704 157.83 161.704ZM160.846 164.761V168H159.784V162.545H160.803V163.433H160.871C160.996 163.144 161.193 162.912 161.46 162.737C161.73 162.562 162.07 162.474 162.479 162.474C162.851 162.474 163.177 162.553 163.456 162.709C163.735 162.863 163.952 163.092 164.106 163.398C164.26 163.703 164.337 164.081 164.337 164.531V168H163.275V164.658C163.275 164.263 163.172 163.954 162.966 163.732C162.76 163.507 162.477 163.394 162.117 163.394C161.871 163.394 161.652 163.447 161.46 163.554C161.271 163.661 161.121 163.817 161.009 164.023C160.9 164.226 160.846 164.473 160.846 164.761ZM170.953 162.545V163.398H167.974V162.545H170.953ZM168.773 161.239H169.835V166.398C169.835 166.604 169.865 166.759 169.927 166.864C169.989 166.965 170.068 167.035 170.165 167.073C170.264 167.109 170.372 167.126 170.488 167.126C170.573 167.126 170.648 167.121 170.712 167.109C170.776 167.097 170.825 167.087 170.861 167.08L171.053 167.957C170.991 167.981 170.904 168.005 170.79 168.028C170.676 168.054 170.534 168.069 170.364 168.071C170.084 168.076 169.824 168.026 169.583 167.922C169.341 167.818 169.146 167.657 168.997 167.439C168.847 167.221 168.773 166.948 168.773 166.619V161.239ZM173.307 164.761V168H172.245V160.727H173.293V163.433H173.36C173.488 163.14 173.683 162.906 173.946 162.734C174.209 162.561 174.552 162.474 174.976 162.474C175.35 162.474 175.677 162.551 175.956 162.705C176.238 162.859 176.455 163.089 176.609 163.394C176.766 163.697 176.844 164.076 176.844 164.531V168H175.782V164.658C175.782 164.258 175.679 163.948 175.473 163.728C175.267 163.505 174.981 163.394 174.614 163.394C174.363 163.394 174.138 163.447 173.939 163.554C173.742 163.661 173.587 163.817 173.474 164.023C173.362 164.226 173.307 164.473 173.307 164.761ZM180.612 168.11C180.074 168.11 179.611 167.995 179.223 167.766C178.837 167.534 178.539 167.208 178.328 166.789C178.12 166.368 178.016 165.874 178.016 165.308C178.016 164.75 178.12 164.257 178.328 163.831C178.539 163.405 178.832 163.072 179.209 162.833C179.588 162.594 180.03 162.474 180.537 162.474C180.845 162.474 181.143 162.525 181.432 162.627C181.721 162.729 181.98 162.889 182.21 163.107C182.439 163.324 182.62 163.607 182.753 163.955C182.885 164.301 182.952 164.721 182.952 165.216V165.592H178.616V164.797H181.911C181.911 164.518 181.854 164.27 181.741 164.055C181.627 163.837 181.467 163.665 181.261 163.54C181.058 163.414 180.819 163.352 180.544 163.352C180.246 163.352 179.985 163.425 179.763 163.572C179.543 163.716 179.372 163.906 179.251 164.14C179.133 164.372 179.074 164.624 179.074 164.896V165.518C179.074 165.882 179.138 166.192 179.266 166.448C179.396 166.704 179.577 166.899 179.809 167.034C180.041 167.167 180.312 167.233 180.622 167.233C180.823 167.233 181.007 167.205 181.173 167.148C181.338 167.089 181.482 167.001 181.602 166.885C181.723 166.769 181.815 166.626 181.879 166.455L182.884 166.636C182.804 166.932 182.659 167.192 182.451 167.414C182.245 167.634 181.986 167.806 181.673 167.929C181.363 168.05 181.009 168.11 180.612 168.11ZM188.364 168.121C188.018 168.121 187.705 168.057 187.426 167.929C187.147 167.799 186.925 167.611 186.762 167.364C186.601 167.118 186.521 166.816 186.521 166.459C186.521 166.151 186.58 165.898 186.698 165.699C186.817 165.5 186.976 165.343 187.178 165.227C187.379 165.111 187.604 165.023 187.852 164.964C188.101 164.905 188.354 164.86 188.612 164.829C188.939 164.791 189.204 164.76 189.408 164.737C189.611 164.71 189.759 164.669 189.852 164.612C189.944 164.555 189.99 164.463 189.99 164.335V164.31C189.99 164 189.902 163.76 189.727 163.589C189.554 163.419 189.296 163.334 188.953 163.334C188.596 163.334 188.314 163.413 188.108 163.572C187.904 163.728 187.763 163.902 187.685 164.094L186.688 163.866C186.806 163.535 186.979 163.268 187.206 163.064C187.436 162.858 187.7 162.709 187.998 162.616C188.296 162.522 188.61 162.474 188.939 162.474C189.157 162.474 189.388 162.5 189.631 162.553C189.878 162.602 190.107 162.695 190.32 162.83C190.536 162.964 190.712 163.157 190.849 163.408C190.987 163.657 191.055 163.98 191.055 164.378V168H190.018V167.254H189.976C189.907 167.392 189.804 167.527 189.667 167.659C189.53 167.792 189.353 167.902 189.138 167.989C188.922 168.077 188.664 168.121 188.364 168.121ZM188.594 167.268C188.888 167.268 189.139 167.21 189.347 167.094C189.558 166.978 189.718 166.827 189.827 166.64C189.938 166.451 189.994 166.248 189.994 166.033V165.33C189.956 165.367 189.882 165.403 189.773 165.436C189.667 165.467 189.545 165.494 189.408 165.518C189.27 165.539 189.137 165.559 189.006 165.578C188.876 165.595 188.767 165.609 188.68 165.621C188.474 165.647 188.286 165.691 188.115 165.752C187.947 165.814 187.812 165.902 187.71 166.018C187.611 166.132 187.561 166.284 187.561 166.473C187.561 166.736 187.658 166.935 187.852 167.07C188.046 167.202 188.294 167.268 188.594 167.268ZM192.47 168V162.545H193.496V163.412H193.553C193.652 163.118 193.827 162.888 194.078 162.719C194.332 162.549 194.618 162.464 194.938 162.464C195.004 162.464 195.082 162.466 195.172 162.471C195.264 162.476 195.337 162.482 195.389 162.489V163.504C195.346 163.492 195.27 163.479 195.161 163.465C195.052 163.449 194.944 163.44 194.835 163.44C194.584 163.44 194.36 163.494 194.164 163.6C193.969 163.704 193.816 163.85 193.702 164.037C193.588 164.222 193.531 164.432 193.531 164.669V168H192.47ZM198.41 168.11C197.882 168.11 197.427 167.991 197.046 167.751C196.667 167.51 196.376 167.177 196.173 166.754C195.969 166.33 195.867 165.844 195.867 165.298C195.867 164.744 195.971 164.255 196.18 163.831C196.388 163.405 196.682 163.072 197.06 162.833C197.439 162.594 197.885 162.474 198.399 162.474C198.813 162.474 199.183 162.551 199.507 162.705C199.831 162.857 200.093 163.07 200.292 163.344C200.493 163.619 200.613 163.94 200.651 164.307H199.617C199.56 164.051 199.43 163.831 199.227 163.646C199.025 163.462 198.755 163.369 198.417 163.369C198.121 163.369 197.862 163.447 197.639 163.604C197.419 163.758 197.247 163.978 197.124 164.264C197.001 164.548 196.94 164.884 196.94 165.273C196.94 165.67 197 166.014 197.121 166.303C197.241 166.591 197.412 166.815 197.632 166.974C197.855 167.132 198.116 167.212 198.417 167.212C198.618 167.212 198.8 167.175 198.964 167.102C199.129 167.026 199.268 166.918 199.379 166.778C199.493 166.639 199.572 166.471 199.617 166.274H200.651C200.613 166.627 200.498 166.942 200.306 167.219C200.114 167.496 199.857 167.714 199.536 167.872C199.216 168.031 198.841 168.11 198.41 168.11ZM202.848 164.761V168H201.786V160.727H202.834V163.433H202.901C203.029 163.14 203.224 162.906 203.487 162.734C203.75 162.561 204.093 162.474 204.517 162.474C204.891 162.474 205.218 162.551 205.497 162.705C205.779 162.859 205.997 163.089 206.15 163.394C206.307 163.697 206.385 164.076 206.385 164.531V168H205.323V164.658C205.323 164.258 205.22 163.948 205.014 163.728C204.808 163.505 204.522 163.394 204.155 163.394C203.904 163.394 203.679 163.447 203.48 163.554C203.283 163.661 203.128 163.817 203.015 164.023C202.903 164.226 202.848 164.473 202.848 164.761ZM207.802 168V162.545H208.863V168H207.802ZM208.338 161.704C208.153 161.704 207.995 161.642 207.862 161.519C207.732 161.394 207.667 161.245 207.667 161.072C207.667 160.897 207.732 160.747 207.862 160.624C207.995 160.499 208.153 160.436 208.338 160.436C208.523 160.436 208.68 160.499 208.81 160.624C208.943 160.747 209.009 160.897 209.009 161.072C209.009 161.245 208.943 161.394 208.81 161.519C208.68 161.642 208.523 161.704 208.338 161.704ZM210.292 170.045V162.545H211.329V163.43H211.418C211.479 163.316 211.568 163.185 211.684 163.036C211.8 162.886 211.961 162.756 212.167 162.645C212.373 162.531 212.645 162.474 212.984 162.474C213.424 162.474 213.817 162.586 214.163 162.808C214.508 163.031 214.779 163.352 214.976 163.771C215.175 164.19 215.274 164.694 215.274 165.283C215.274 165.873 215.176 166.378 214.979 166.8C214.783 167.219 214.513 167.542 214.17 167.769C213.826 167.994 213.435 168.107 212.994 168.107C212.663 168.107 212.392 168.051 212.181 167.94C211.973 167.828 211.809 167.698 211.691 167.549C211.573 167.4 211.482 167.267 211.418 167.151H211.354V170.045H210.292ZM211.332 165.273C211.332 165.656 211.388 165.992 211.499 166.281C211.611 166.57 211.772 166.796 211.982 166.96C212.193 167.121 212.451 167.201 212.756 167.201C213.074 167.201 213.339 167.117 213.552 166.949C213.765 166.778 213.926 166.548 214.035 166.256C214.146 165.965 214.202 165.637 214.202 165.273C214.202 164.913 214.147 164.59 214.038 164.303C213.932 164.017 213.771 163.791 213.555 163.625C213.342 163.459 213.076 163.376 212.756 163.376C212.449 163.376 212.188 163.456 211.975 163.614C211.764 163.773 211.605 163.994 211.496 164.278C211.387 164.562 211.332 164.894 211.332 165.273ZM218.815 168.11C218.277 168.11 217.814 167.995 217.426 167.766C217.04 167.534 216.742 167.208 216.531 166.789C216.323 166.368 216.219 165.874 216.219 165.308C216.219 164.75 216.323 164.257 216.531 163.831C216.742 163.405 217.036 163.072 217.412 162.833C217.791 162.594 218.233 162.474 218.74 162.474C219.048 162.474 219.346 162.525 219.635 162.627C219.924 162.729 220.183 162.889 220.413 163.107C220.642 163.324 220.823 163.607 220.956 163.955C221.089 164.301 221.155 164.721 221.155 165.216V165.592H216.819V164.797H220.114C220.114 164.518 220.058 164.27 219.944 164.055C219.83 163.837 219.67 163.665 219.464 163.54C219.261 163.414 219.022 163.352 218.747 163.352C218.449 163.352 218.188 163.425 217.966 163.572C217.746 163.716 217.575 163.906 217.455 164.14C217.336 164.372 217.277 164.624 217.277 164.896V165.518C217.277 165.882 217.341 166.192 217.469 166.448C217.599 166.704 217.78 166.899 218.012 167.034C218.244 167.167 218.515 167.233 218.825 167.233C219.027 167.233 219.21 167.205 219.376 167.148C219.541 167.089 219.685 167.001 219.805 166.885C219.926 166.769 220.018 166.626 220.082 166.455L221.087 166.636C221.007 166.932 220.862 167.192 220.654 167.414C220.448 167.634 220.189 167.806 219.876 167.929C219.566 168.05 219.212 168.11 218.815 168.11ZM223.395 160.727V168H222.333V160.727H223.395ZM226.411 168.121C226.065 168.121 225.752 168.057 225.473 167.929C225.194 167.799 224.972 167.611 224.809 167.364C224.648 167.118 224.567 166.816 224.567 166.459C224.567 166.151 224.627 165.898 224.745 165.699C224.863 165.5 225.023 165.343 225.224 165.227C225.426 165.111 225.651 165.023 225.899 164.964C226.148 164.905 226.401 164.86 226.659 164.829C226.986 164.791 227.251 164.76 227.455 164.737C227.658 164.71 227.806 164.669 227.898 164.612C227.991 164.555 228.037 164.463 228.037 164.335V164.31C228.037 164 227.949 163.76 227.774 163.589C227.601 163.419 227.343 163.334 227 163.334C226.643 163.334 226.361 163.413 226.155 163.572C225.951 163.728 225.81 163.902 225.732 164.094L224.734 163.866C224.853 163.535 225.026 163.268 225.253 163.064C225.482 162.858 225.746 162.709 226.045 162.616C226.343 162.522 226.657 162.474 226.986 162.474C227.204 162.474 227.434 162.5 227.678 162.553C227.924 162.602 228.154 162.695 228.367 162.83C228.583 162.964 228.759 163.157 228.896 163.408C229.034 163.657 229.102 163.98 229.102 164.378V168H228.065V167.254H228.023C227.954 167.392 227.851 167.527 227.714 167.659C227.576 167.792 227.4 167.902 227.185 167.989C226.969 168.077 226.711 168.121 226.411 168.121ZM226.641 167.268C226.935 167.268 227.186 167.21 227.394 167.094C227.605 166.978 227.765 166.827 227.874 166.64C227.985 166.451 228.04 166.248 228.04 166.033V165.33C228.003 165.367 227.929 165.403 227.82 165.436C227.714 165.467 227.592 165.494 227.455 165.518C227.317 165.539 227.183 165.559 227.053 165.578C226.923 165.595 226.814 165.609 226.727 165.621C226.521 165.647 226.332 165.691 226.162 165.752C225.994 165.814 225.859 165.902 225.757 166.018C225.658 166.132 225.608 166.284 225.608 166.473C225.608 166.736 225.705 166.935 225.899 167.07C226.093 167.202 226.341 167.268 226.641 167.268ZM232.803 170.159C232.37 170.159 231.997 170.102 231.685 169.989C231.375 169.875 231.121 169.725 230.925 169.538C230.728 169.351 230.582 169.146 230.485 168.923L231.397 168.547C231.461 168.651 231.546 168.761 231.653 168.877C231.762 168.996 231.909 169.096 232.093 169.179C232.28 169.262 232.521 169.303 232.814 169.303C233.217 169.303 233.549 169.205 233.812 169.009C234.075 168.814 234.206 168.504 234.206 168.078V167.006H234.139C234.075 167.122 233.982 167.251 233.862 167.393C233.743 167.535 233.58 167.658 233.372 167.762C233.163 167.866 232.892 167.918 232.558 167.918C232.128 167.918 231.739 167.818 231.394 167.616C231.05 167.413 230.778 167.113 230.577 166.718C230.378 166.32 230.279 165.831 230.279 165.251C230.279 164.671 230.377 164.174 230.573 163.76C230.772 163.346 231.044 163.028 231.39 162.808C231.736 162.586 232.128 162.474 232.566 162.474C232.904 162.474 233.177 162.531 233.386 162.645C233.594 162.756 233.756 162.886 233.872 163.036C233.991 163.185 234.082 163.316 234.146 163.43H234.224V162.545H235.264V168.121C235.264 168.589 235.155 168.974 234.938 169.275C234.72 169.576 234.425 169.798 234.053 169.942C233.684 170.087 233.267 170.159 232.803 170.159ZM232.793 167.038C233.098 167.038 233.356 166.967 233.567 166.825C233.78 166.68 233.941 166.474 234.05 166.207C234.161 165.937 234.217 165.614 234.217 165.237C234.217 164.87 234.162 164.547 234.053 164.268C233.945 163.988 233.785 163.771 233.574 163.614C233.363 163.456 233.103 163.376 232.793 163.376C232.473 163.376 232.207 163.459 231.994 163.625C231.781 163.788 231.62 164.011 231.511 164.293C231.404 164.574 231.351 164.889 231.351 165.237C231.351 165.595 231.405 165.908 231.514 166.178C231.623 166.448 231.784 166.659 231.997 166.81C232.213 166.962 232.478 167.038 232.793 167.038ZM238.986 168.11C238.475 168.11 238.028 167.993 237.647 167.759C237.266 167.524 236.97 167.196 236.759 166.775C236.549 166.353 236.443 165.861 236.443 165.298C236.443 164.732 236.549 164.237 236.759 163.813C236.97 163.389 237.266 163.06 237.647 162.826C238.028 162.592 238.475 162.474 238.986 162.474C239.497 162.474 239.944 162.592 240.325 162.826C240.706 163.06 241.002 163.389 241.213 163.813C241.423 164.237 241.529 164.732 241.529 165.298C241.529 165.861 241.423 166.353 241.213 166.775C241.002 167.196 240.706 167.524 240.325 167.759C239.944 167.993 239.497 168.11 238.986 168.11ZM238.99 167.219C239.321 167.219 239.596 167.131 239.813 166.956C240.031 166.781 240.192 166.548 240.296 166.256C240.403 165.965 240.456 165.644 240.456 165.294C240.456 164.946 240.403 164.626 240.296 164.335C240.192 164.042 240.031 163.806 239.813 163.629C239.596 163.451 239.321 163.362 238.99 163.362C238.656 163.362 238.379 163.451 238.159 163.629C237.941 163.806 237.779 164.042 237.672 164.335C237.568 164.626 237.516 164.946 237.516 165.294C237.516 165.644 237.568 165.965 237.672 166.256C237.779 166.548 237.941 166.781 238.159 166.956C238.379 167.131 238.656 167.219 238.99 167.219Z" fill="white"/>
</svg>
