<svg width="93" height="159" viewBox="0 0 93 159" fill="none" xmlns="http://www.w3.org/2000/svg">
<g id="Graph">
<rect width="93" height="159" fill="white"/>
<g id="Group 1">
<circle id="Ellipse 1" cx="37.009" cy="14" r="11" fill="#EEEEEE" stroke="#767676" stroke-width="2"/>
<text id="1" fill="#111111" xml:space="preserve" style="white-space: pre" font-family="Inter" font-size="14" font-weight="800" letter-spacing="1px"><tspan x="32.1555" y="19.0909">1</tspan></text>
<circle id="Ellipse 2" cx="37.009" cy="58" r="11" fill="#E0EAFF" stroke="#074EE8" stroke-width="2"/>
<text id="2" fill="#111111" xml:space="preserve" style="white-space: pre" font-family="Inter" font-size="14" font-weight="800" letter-spacing="1px"><tspan x="32.1555" y="63.0909">2</tspan></text>
<circle id="Ellipse 4" cx="37.009" cy="102" r="11" fill="#E0EAFF" stroke="#074EE8" stroke-width="2"/>
<circle id="Ellipse 6" cx="80.009" cy="58" r="11" fill="#F7DEFF" stroke="#BC31EA" stroke-width="2"/>
<text id="3" fill="#111111" xml:space="preserve" style="white-space: pre" font-family="Inter" font-size="14" font-weight="800" letter-spacing="1px"><tspan x="32.1555" y="107.091">3</tspan></text>
<text id="6" fill="#111111" xml:space="preserve" style="white-space: pre" font-family="Inter" font-size="14" font-weight="800" letter-spacing="1px"><tspan x="75.1555" y="63.0909">5</tspan></text>
<circle id="Ellipse 3" cx="37.009" cy="146" r="11" fill="#F7DEFF" stroke="#BC31EA" stroke-width="2"/>
<text id="4" fill="#111111" xml:space="preserve" style="white-space: pre" font-family="Inter" font-size="14" font-weight="800" letter-spacing="1px"><tspan x="32.1692" y="151.091">4</tspan></text>
<path id="Arrow 1" d="M37.509 28C37.509 27.7239 37.2851 27.5 37.009 27.5C36.7329 27.5 36.509 27.7239 36.509 28H37.509ZM36.6554 43.3536C36.8507 43.5488 37.1673 43.5488 37.3626 43.3536L40.5445 40.1716C40.7398 39.9763 40.7398 39.6597 40.5445 39.4645C40.3493 39.2692 40.0327 39.2692 39.8374 39.4645L37.009 42.2929L34.1806 39.4645C33.9853 39.2692 33.6687 39.2692 33.4735 39.4645C33.2782 39.6597 33.2782 39.9763 33.4735 40.1716L36.6554 43.3536ZM36.509 28V43H37.509V28H36.509Z" fill="#FB923C"/>
<path id="Arrow 2" d="M37.509 73C37.509 72.7239 37.2851 72.5 37.009 72.5C36.7329 72.5 36.509 72.7239 36.509 73H37.509ZM36.6554 88.3536C36.8507 88.5488 37.1673 88.5488 37.3626 88.3536L40.5445 85.1716C40.7398 84.9763 40.7398 84.6597 40.5445 84.4645C40.3493 84.2692 40.0327 84.2692 39.8374 84.4645L37.009 87.2929L34.1806 84.4645C33.9853 84.2692 33.6687 84.2692 33.4735 84.4645C33.2782 84.6597 33.2782 84.9763 33.4735 85.1716L36.6554 88.3536ZM36.509 73V88H37.509V73H36.509Z" fill="#FB923C"/>
<path id="Arrow 5" d="M51.009 57.5C50.7329 57.5 50.509 57.7239 50.509 58C50.509 58.2761 50.7329 58.5 51.009 58.5V57.5ZM66.3626 58.3536C66.5578 58.1583 66.5578 57.8417 66.3626 57.6464L63.1806 54.4645C62.9853 54.2692 62.6687 54.2692 62.4735 54.4645C62.2782 54.6597 62.2782 54.9763 62.4735 55.1716L65.3019 58L62.4735 60.8284C62.2782 61.0237 62.2782 61.3403 62.4735 61.5355C62.6687 61.7308 62.9853 61.7308 63.1806 61.5355L66.3626 58.3536ZM51.009 58.5H66.009V57.5H51.009V58.5Z" fill="#FB923C"/>
<path id="Arrow 3" d="M37.509 117C37.509 116.724 37.2851 116.5 37.009 116.5C36.7329 116.5 36.509 116.724 36.509 117H37.509ZM36.6554 132.354C36.8507 132.549 37.1673 132.549 37.3626 132.354L40.5445 129.172C40.7398 128.976 40.7398 128.66 40.5445 128.464C40.3493 128.269 40.0327 128.269 39.8374 128.464L37.009 131.293L34.1806 128.464C33.9853 128.269 33.6687 128.269 33.4735 128.464C33.2782 128.66 33.2782 128.976 33.4735 129.172L36.6554 132.354ZM36.509 117V132H37.509V117H36.509Z" fill="#FB923C"/>
<path id="Arrow 4" d="M23.0814 104.495C23.3546 104.455 23.5437 104.201 23.5037 103.928C23.4637 103.654 23.2098 103.465 22.9366 103.505L23.0814 104.495ZM3.009 81L2.50909 80.9904L3.009 81ZM23.2637 60.4303C23.5013 60.2896 23.5799 59.983 23.4393 59.7453L21.1473 55.8727C21.0067 55.6351 20.7 55.5565 20.4624 55.6971C20.2248 55.8378 20.1461 56.1444 20.2868 56.3821L22.3241 59.8244L18.8817 61.8616C18.6441 62.0023 18.5655 62.309 18.7061 62.5466C18.8468 62.7842 19.1534 62.8629 19.3911 62.7222L23.2637 60.4303ZM23.009 104C22.9366 103.505 22.9368 103.505 22.937 103.505C22.9369 103.505 22.937 103.505 22.9369 103.505C22.9366 103.505 22.9361 103.505 22.9353 103.505C22.9336 103.506 22.9307 103.506 22.9266 103.507C22.9184 103.508 22.9054 103.509 22.8877 103.512C22.8524 103.516 22.7984 103.523 22.7271 103.53C22.5844 103.545 22.3725 103.564 22.1012 103.579C21.5585 103.609 20.7802 103.625 19.8463 103.564C17.9757 103.441 15.4981 103.014 13.0429 101.802C10.5939 100.592 8.15876 98.5981 6.36143 95.322C4.56166 92.0414 3.38515 87.4452 3.50891 81.0096L2.50909 80.9904C2.38285 87.5548 3.58134 92.3336 5.4847 95.803C7.39049 99.2768 9.98657 101.408 12.6001 102.698C15.2074 103.986 17.8235 104.434 19.7811 104.561C20.7613 104.625 21.5806 104.61 22.157 104.577C22.4453 104.561 22.6733 104.541 22.8307 104.525C22.9094 104.516 22.9705 104.509 23.0127 104.504C23.0338 104.501 23.0502 104.499 23.0617 104.497C23.0674 104.497 23.072 104.496 23.0753 104.496C23.0769 104.495 23.0782 104.495 23.0793 104.495C23.0798 104.495 23.0803 104.495 23.0806 104.495C23.081 104.495 23.0814 104.495 23.009 104ZM3.50891 81.0096C3.63275 74.5699 4.93233 70.0989 6.77452 67.0058C8.61274 63.9195 11.0083 62.1758 13.3842 61.2134C15.7683 60.2477 18.1465 60.0637 19.9373 60.1247C20.8311 60.1551 21.5737 60.2464 22.0907 60.3296C22.3491 60.3712 22.5507 60.4106 22.6863 60.4393C22.7541 60.4537 22.8053 60.4653 22.8388 60.4732C22.8555 60.4771 22.8678 60.4801 22.8755 60.482C22.8794 60.483 22.8821 60.4836 22.8837 60.484C22.8844 60.4842 22.8849 60.4844 22.8851 60.4844C22.8852 60.4844 22.8851 60.4844 22.8852 60.4844C22.885 60.4844 22.8848 60.4843 23.009 60C23.1332 59.5157 23.1328 59.5156 23.1324 59.5154C23.1321 59.5154 23.1316 59.5153 23.1311 59.5151C23.1301 59.5149 23.1288 59.5145 23.1272 59.5142C23.1241 59.5134 23.1197 59.5123 23.1142 59.5109C23.1032 59.5082 23.0875 59.5044 23.0673 59.4997C23.027 59.4902 22.9687 59.477 22.8935 59.461C22.7431 59.4292 22.5253 59.3866 22.2496 59.3423C21.6982 59.2536 20.9135 59.1574 19.9713 59.1253C18.0903 59.0612 15.5622 59.2523 13.0088 60.2866C10.4472 61.3242 7.87401 63.2055 5.91536 66.4941C3.96067 69.7761 2.63525 74.4301 2.50909 80.9904L3.50891 81.0096Z" fill="#FB923C"/>
</g>
</g>
</svg>
